<?xml version="1.0" encoding="utf-8"?>
<!-- Generator: Adobe Illustrator 26.0.1, SVG Export Plug-In . SVG Version: 6.00 Build 0)  -->
<svg version="1.1" id="Layer_1" xmlns="http://www.w3.org/2000/svg" xmlns:xlink="http://www.w3.org/1999/xlink" x="0px" y="0px"
	 viewBox="0 0 254.9 203.3" style="enable-background:new 0 0 254.9 203.3;" xml:space="preserve">
<style type="text/css">
	.st0{fill:#FFFFFF;}
</style>
<g id="Layer_1_00000025441075213065794560000017020990512880012969_">
	<g id="Layer_1_00000023258460650757421360000012532134025915718316_">
	</g>
	<g>
		<path id="Icon_awesome-paint-brush_00000166655069638169116620000011597837858264045246_" class="st0" d="M42.2,139.1
			c-3.5,0-6.7,1.1-8.8,5.7c-0.2,0.5-0.8,0.8-1.3,0.8c-2,0.1-3.8-2.6-4.6-3.3c-0.4,7.1,2.4,13.5,10.2,14c6.5,0.4,11.3-3.1,11.7-9.7
			c0-0.3,0-0.5,0-0.8L42.2,139.1z M68.9,114c-1.3,0,0.2,3.4-0.8,4.2c-18.6,14.6-15.7,11-16,15.7c-0.1,1.2-2.9,1.3-2.5,2.4l4.4,2.4
			c0.6,0.2-2.2-1.9-1.5-1.9c5.4,0.3,4.8,3.1,15.7-14.4c0.8-1.2,5-2.4,5.2-3.8C73.3,116.1,71.4,114.1,68.9,114z"/>
		<path class="st0" d="M153.4,54.3c-2.5,6.5-4.9,13-7.2,19.7c-2.2,6.7-4.2,13.8-5.9,21.3c-1.7,7.6-3,15.7-4.1,24.5
			s-1.5,18.5-1.6,29.2c-0.5,0.3-1.3,0.7-2.2,1.3c-1,0.5-2.1,1.1-3.3,1.7c-1.2,0.6-2.5,1.2-3.8,1.8s-2.6,1.2-3.8,1.8
			s-2.3,1.1-3.3,1.6s-1.7,0.8-2.2,1.1c0-2.9,0.3-6.1,0.6-9.6c0.4-3.5,0.9-7.2,1.6-11.1c0.7-3.9,1.4-7.9,2.3-12.1
			c0.9-4.2,1.8-8.4,2.8-12.6c-3,3.8-5.9,6.9-8.7,9.4s-5.2,4.5-7.4,6c-2.5,1.8-4.8,3.2-7,4.3c-0.9,0.5-2,0.5-3.2,0.1
			c-1.3-0.4-2.5-1-3.8-1.8c-1.2-0.8-2.4-1.6-3.4-2.6c-1-0.9-1.8-1.7-2.2-2.3c-0.4-0.6-0.9-2.4-1.4-5.3c-0.5-2.9-0.8-7.1-1-12.6
			c-1.8,2.2-3.8,4.5-5.9,6.9c-2.1,2.4-4.3,4.8-6.4,7.2c-2.2,2.4-4.3,4.7-6.4,6.9c-2.1,2.2-4.1,4.3-5.9,6.1s-3.5,3.4-4.9,4.8
			c-1.5,1.3-2.6,2.3-3.4,2.9c-0.4-0.4-0.9-0.9-1.6-1.5c-0.6-0.5-1.2-1.1-1.9-1.7c-0.7-0.6-1.3-1.2-1.9-1.8s-1.2-1.2-1.6-1.7
			c6.2-5,12.4-12,18.7-21.1s12.4-20,18.1-32.8c0.6,0.5,1.2,1,1.8,1.5c0.5,0.5,1.1,0.9,1.6,1.4c0.3-6.2,0.9-13,1.6-20.5
			s1.7-15.8,3-25c0.2,0.1,0.7,0.4,1.5,1.1c0.8,0.7,1.7,1.5,2.8,2.5s2.2,2.1,3.4,3.2c1.2,1.1,2.3,2.2,3.4,3.3s2,2,2.8,2.8
			s1.4,1.4,1.6,1.7c-0.1,0.3-0.3,1.1-0.6,2.5c-0.3,1.4-0.6,3.1-1,5.3c-0.4,2.1-0.8,4.6-1.3,7.4s-0.9,5.7-1.3,8.8s-0.7,6.3-1,9.6
			c-0.3,3.3-0.4,6.5-0.5,9.7c0,1.3-0.1,2.9-0.1,4.6s0,3.5,0,5.3s0,3.6,0.1,5.4s0.2,3.4,0.3,4.8c0.1,1.4,0.3,2.6,0.5,3.5
			s0.5,1.4,0.9,1.5c0.5,0.1,1.6-0.4,3.4-1.7s3.9-3.1,6.4-5.5c2.5-2.4,5.2-5.3,8.1-8.8s5.8-7.3,8.5-11.6c1.3-4.6,2.5-9,3.8-13.2
			s2.5-8.2,3.7-11.8c1.2-3.6,2.3-6.9,3.4-9.7c1.1-2.9,2-5.2,2.8-7c0.8,0,1.8,0.1,2.9,0.1s2.2,0.1,3.3,0.2s2.1,0.2,3.1,0.3
			C152,54.1,152.8,54.2,153.4,54.3z"/>
		<path class="st0" d="M241.2,58.6c0,0.1,0.1,0.3,0.3,0.6c0.1,0.3,0.3,0.6,0.4,1s0.2,0.7,0.3,1.1c0.1,0.4,0.2,0.6,0.2,0.8
			c0,1.3-0.3,2.9-0.9,4.8c-0.6,1.8-1.4,3.8-2.4,5.9s-2.2,4.2-3.6,6.3c-1.4,2.1-2.9,4.2-4.4,6.1c-1.6,1.9-3.2,3.7-4.8,5.3
			c-1.7,1.6-3.3,2.8-4.9,3.8c-0.6-0.5-1.3-1.1-2.1-1.8c-0.8-0.7-1.7-1.4-2.6-2.2c-0.9-0.8-1.9-1.6-2.8-2.4c-0.9-0.8-1.8-1.6-2.6-2.4
			c1.2-0.9,2.6-2.1,4.1-3.5s3.1-3.1,4.7-4.9c1.6-1.8,3.1-3.6,4.7-5.5c1.5-1.9,2.8-3.7,4-5.5c1.1-1.8,2-3.4,2.6-4.8s0.9-2.6,0.7-3.4
			c-0.1-0.4-0.3-0.7-0.6-0.9c-0.3-0.2-0.8-0.3-1.5-0.3c-2.6,0-5.5,0.5-8.9,1.4s-6.9,2.3-10.6,4.1c-3.7,1.8-7.4,3.9-11.1,6.5
			c-3.7,2.6-7.2,5.5-10.5,8.7s-6.2,6.8-8.7,10.6c-2.6,3.9-4.5,8-5.9,12.3c3,0,5.8-0.1,8.4-0.3c2.7-0.2,5.2-0.4,7.6-0.6
			c2.4-0.2,4.7-0.4,6.9-0.5c2.2-0.2,4.3-0.2,6.4-0.2c1.1,0,2.3,0.5,3.5,1.6s2.4,2.4,3.5,3.9s2,3.1,2.7,4.7s1.1,2.9,1.1,3.9
			c0,2.8-0.8,5.5-2.3,8.3s-3.6,5.5-6.2,8.1c-2.6,2.6-5.6,5-9,7.2s-7,4.2-10.8,5.8c-3.8,1.7-7.6,3-11.6,3.9
			c-24,5.3-38.2,3.6-41.8,3.6c-0.5-0.3,0.6-3.1-0.2-3.8s-1.6-1.5-2.4-2.4c-0.9-0.9-1.8-1.8-2.7-2.8c-0.9-1-1.8-1.9-2.5-2.8
			c-0.8-0.9-1.5-1.7-2.1-2.5c-0.6-0.7-1-1.3-1.2-1.7c2.3,0.3,12.5,3.3,37.6,0.4c3.3-0.4,6.5-0.8,10.1-1.5s7.3-1.7,11-3
			s7.1-2.9,10.3-4.9s6-4.3,8.5-7.1c2.4-2.7,4.2-5.9,5.3-9.5c-2.4,0-4.7,0.1-6.6,0.3s-3.9,0.4-5.8,0.6c-1.9,0.2-3.8,0.4-5.7,0.6
			s-4.1,0.2-6.5,0.2c-0.8,0-1.6,0-2.5,0s-1.8-0.1-2.7-0.2s-1.7-0.3-2.5-0.5s-1.5-0.6-2-1c-1.1-0.9-2.2-1.8-3.3-2.8s-2-2-2.8-3
			s-1.5-2.1-2-3.1c-0.5-1.1-0.8-2.1-0.8-3c0-3,0.8-6.3,2.4-9.9c1.6-3.6,3.8-7.3,6.7-11s6.2-7.3,10.1-10.8c3.9-3.5,8.1-6.6,12.7-9.3
			c4.6-2.7,9.4-4.9,14.5-6.5s10.2-2.5,15.4-2.5c1.8,0,3.5,0.3,5,0.8s2.9,1.2,4.1,2c1.2,0.8,2.3,1.7,3.3,2.7s1.8,2,2.6,2.9
			s1.4,1.8,2,2.6C240.3,57.6,240.8,58.2,241.2,58.6z"/>
		<path class="st0" d="M155.4,2.1c-11.4,0-23.1,1-34.3,2.9c-10.9,1.8-21.9,5.2-32.3,9C53.1,27.2,18.2,56.5,6.9,93.9
			c-7.5,24.8-1.3,44.7,9.4,66.9c2.8,5.8,18.5,4.6,7.2-6.8c-13.8-13.9,22.9-27.9-8.3-51.8c-3.1-2.4-4.2-5.3-3.9-8.5
			c1.2-11.8,21.2-27.8,31-37.8c11.8-12.2,26-22.1,41.5-29.1C102,18.6,122,15.4,141.7,13c5.5-0.7,11.4-1.1,16.9-0.4
			c0.9,0.1,9.7,0.9,19.3,3.6c9.2,2.6,18.4,7.6,22.3,10.5c14.1,10.6,37.1,36.1,39.7,37.2c3.5,1.5,4.5-4.5-7.9-20.6
			c-1.5-2-9.8-12.4-14.7-17c-1.3-1.2-4.7-4.4-8.9-7.4c-2.1-1.5-5-3.2-6.7-4.3c-6.5-4.2-19.4-8.4-26.4-10
			C168,2.8,158.6,2.1,155.4,2.1z"/>
		<path class="st0" d="M93.7,198.1c32.3,6.9,66,2.6,95.7-11.8c27.1-13.1,54.3-36.4,62-66.6c1.9-7.4-9.6-10.6-11.5-3.2
			c-7,27.3-32.2,47.7-56.6,59.5c-26.7,12.9-57.5,16.8-86.5,10.6C89.4,185,86.2,196.5,93.7,198.1L93.7,198.1z"/>
		<path id="path2987" class="st0" d="M84.5,195.7c-0.3-0.1-0.7-0.1-1-0.2c-1-0.2-1.6-0.3-1.7-0.3c0,0-0.2-0.1-0.4-0.1
			c-0.2,0-0.4-0.1-0.4-0.1s-0.2-0.1-0.3-0.1c-0.3-0.1-0.6-0.2-0.9-0.2c-0.1,0-0.2-0.1-0.2-0.1l0,0c0,0-0.1,0-0.3-0.1
			c-0.2,0-0.3-0.1-0.3-0.1v-0.1c0-0.1,0-0.1-0.3-0.2c-0.1,0-0.3-0.1-0.3-0.1c-0.1,0-0.2-0.1-0.2-0.1c-0.1,0-0.1-0.1,0-0.2
			c0.1-0.1,0.3-0.2,0.5-0.2c0.1,0,0.3-0.1,0.3-0.2c0,0-0.1-0.1-0.3-0.1c0,0-0.2-0.1-0.3-0.1c-0.1,0-0.3-0.1-0.4-0.1
			s-0.3-0.1-0.5-0.1c-0.4-0.1-0.5-0.1-0.5-0.2c0,0-0.1-0.1-0.2-0.2c-0.1-0.1-0.1-0.1-0.1-0.1l0,0c-0.1,0-0.2-0.1-0.3-0.2
			c0-0.1,0-0.2,0.1-0.2l0,0c0,0,0.1,0,0.2,0s0.2,0,0.2,0s0,0,0.1,0s0.1,0,0.1,0l0,0l0,0c0,0,0,0,0.1,0h0.1l0,0l0,0
			c0,0-0.1-0.1-0.2-0.1s-0.2,0-0.2-0.1s-0.1-0.1-0.2-0.1s-0.1,0-0.1,0h-0.1c-0.1,0-0.1,0,0-0.1l0,0l0,0c0,0,0.2-0.1,0.2,0l0,0l0,0
			c0,0,0.2,0,0.3,0h0.1c0,0,0.2,0,0.1,0h0.1h0.1c0.1,0,0.1,0.1,0.1,0c0,0,0,0,0.1,0s0.2,0,0.3,0c0.1,0,0.3,0,0.3,0
			c0.1,0,0.1-0.1,0-0.2c-0.1-0.1-0.1-0.1-0.1-0.2l0,0h0.1c0,0,0.1,0,0.2,0s0.1,0,0.2-0.1s0.1-0.1,0.1-0.2c0,0,0-0.1,0,0
			c0,0,0,0,0.1-0.1c0-0.1,0.1-0.1,0.1-0.1s0,0-0.1,0s-0.1,0-0.1,0l0,0c-0.1,0-0.1,0-0.1,0s-0.2-0.1-0.3-0.2c-0.3-0.2-0.4-0.2-1-0.3
			c-0.5-0.1,0.2-0.6,0.3-0.5c0.2,0,0.3,0.1,0.3,0.1s0.1,0,0.2,0s0.1,0,0.1,0s0.9,0.1,1,0.1c0.2,0,0.4,0,0.7,0c0.1,0,0.3,0,0.3,0
			s0,0-0.1-0.1l0,0l0,0H80c0,0,0,0-0.1,0l0,0c0,0,0,0-0.1,0h-0.1v-0.1l0.1-0.1c0,0-0.1-0.2-0.1-0.1l0,0l0,0c-0.1,0-0.1,0,0,0
			c0-0.1,0-0.1-0.1,0l0,0l-0.1-0.1l0,0l0,0l0,0c0,0.1-0.1,0-0.1,0l0,0v0.1l0,0c-0.1,0-0.1,0,0-0.1c0,0,0,0-0.1,0s-0.2,0-0.1,0l0,0
			h-0.1l0,0l0,0v-0.1c0-0.1,0.1-0.1,0.2,0c0,0,0.1,0,0,0s0,0.1,0,0.1c0.1,0,0.1,0,0.1,0v-0.1c0,0,0,0,0-0.1l0,0h0.1l0,0
			c0,0,0,0,0-0.1c0,0,0-0.1,0.1-0.1v-0.1l0,0v-0.1l0,0l0,0c0,0,0,0,0.1-0.1c0,0,0.1,0,0-0.1s0,0,0,0l0,0c0,0,0,0-0.1,0l0,0
			c0,0,0.1-0.1,0.1-0.2l0.1-0.1c0,0,0,0-0.1,0c0-0.1,0-0.1,0.1,0h0.1l0,0c0.1,0,0.1,0,0.1,0l0,0l0,0l0,0l0,0l0,0c0,0,0,0-0.1,0
			s-0.1,0-0.1,0l0,0l0,0l0,0l0,0l0,0l0,0c0,0,0,0,0.1,0c0,0,0.1,0,0.1-0.1s0-0.1-0.1-0.1s-0.1,0,0,0c0,0,0,0,0-0.1l-0.1-0.1
			c-0.1,0,0,0,0.1,0s0.1,0,0.1,0l0,0l0,0h0.1c0.1,0,0.1,0,0.1,0s0,0,0.1,0c0,0,0,0,0.1,0h0.1c0.1,0,0.4,0,0.5,0c0,0,0.3,0,0.4,0
			c0,0,0.1-0.1,0-0.2v-0.1c0-0.1,0-0.1,0-0.1l0,0c0,0,0,0-0.1-0.1c-0.1,0-0.1-0.1-0.1-0.1l0,0h-0.1v-0.1c-0.1,0-0.1-0.1,0-0.1l0,0
			l0,0c0.1,0,0.1,0,0.1,0.1s0.1,0,0.1,0l0,0c-0.1,0-0.1,0-0.1-0.1l0,0l0,0V187c0,0,0,0,0.1,0l0,0l0,0l0,0l0,0l0,0l0,0v0.1l0,0
			c-0.1,0-0.1-0.1,0-0.1c0,0,0,0,0-0.1s0-0.1,0.1-0.1h0.1c0,0,0,0,0.1,0s0.1,0.1,0,0.1s0,0.1,0.1,0.1s0.1,0,0,0s-0.1,0,0,0h0.1h-0.1
			c-0.1-0.1-0.1-0.1,0-0.1l0,0l0,0c0,0,0,0,0-0.1c0,0,0-0.1,0.1-0.1l0,0h-0.1c0,0,0,0-0.1,0c0,0,0,0,0-0.1h0.1c0,0,0.1,0,0.1-0.1
			l0,0l0,0c0,0,0-0.1,0.1,0c0,0,0,0,0,0.1l0,0c0,0,0,0,0.1-0.1c0-0.1,0.1-0.1,0.2-0.1s0.1,0,0.1,0s0.1,0,0.2,0s0.2,0,0.2,0h0.1
			c0.1,0,0.1,0,0.1,0l0,0c0,0-0.1,0-0.1-0.1s-0.1-0.1-0.1-0.1s0,0-0.1,0v-0.1l0,0c0,0,0,0.1,0.1,0.1l0,0v-0.1l0,0l0,0
			c0-0.1,0-0.2-0.1-0.2l0,0l0,0l0,0l0,0c0,0,0-0.1,0.1-0.1c0,0,0.1,0,0-0.1c0,0,0,0,0.1,0s0.1,0,0,0c0-0.1,0-0.1,0-0.1s0-0.1,0-0.2
			c0,0,0-0.1-0.1-0.1l0,0l0.1-0.1l0,0l0,0c0,0,0,0,0-0.1c0,0,0,0,0.1,0c0,0.1,0.1,0.1,0.1,0l0,0l0,0l0,0l0,0h0.1h0.1l0,0l0,0l0,0
			c0,0,0,0,0.1,0s0.1,0,0.3,0c0.1,0,0.1,0,0.2,0c0,0,0,0,0.1,0h0.3c0,0,0,0,0.1,0s0.3,0,0.4,0.1c0.1,0,0.1,0,0.1,0v-0.1
			c0,0-0.2-0.1-0.5-0.2c-0.1,0-0.3-0.1-0.3-0.1h-0.1h-0.1c-0.1,0-0.1,0-0.1-0.1c0,0,0-0.1,0.1,0c0.1,0,0.1,0,0,0c0,0,0,0,0.2,0
			c0.1,0,0.3,0.1,0.3,0.1s0,0,0.1,0c0.2,0,0.5,0,0.6,0s0.1,0,0.1,0l0,0c0.1,0,0.1,0,0.2,0l0.1-0.1c0.1-0.1,0.2-0.2,0.2-0.1
			c0,0,0,0,0.1,0h0.1l0.5,0.1l0,0c0,0,0.2,0.1,0.3,0h0.1c0,0,0.3,0.1,0.6,0.1c0.3,0.1,0.7,0.1,0.9,0.2c1.1,0.2,6.6,0.8,6.6,0.8
			l8.4,0.9c0,0,0.1,0,0.2,0s1.3,0.2,1.3,0.2c0.1,0,0.5,0,1.1,0.1c0.2,0,9.2,1.7,15,2.2c1.2,0.1,2.8,0.2,3.5,0.3
			c0.4,0.1-0.4,0.2-0.4,0.2c0.1,0,0.2,0.1,0.3,0.1c0.2,0,0.5,0.1,0.5,0.1s0.1,0,0.2,0.1c0.1,0,0.3,0.1,0.4,0.1
			c0.1,0,0.2,0.1,0.2,0.1s0.2,0.1,0.3,0.1c0.1,0.1,0.2,0.1,0.3,0.1h0.1l0,0c0.2,0,0.6,0.1,0.7,0.2l0.1,0.1c0.1,0.1,0.2,0.2,0.4,0.3
			s0.5,0.1,0.6,0.1h0.1l0,0c0,0,0,0,0.1,0s0.1,0.1,0.2,0.2c0.1,0.1,0.2,0.1,0.4,0.2c0.2,0,0.2,0.1,0.2,0.2c0,0.1-0.1,0.1-0.3,0.1
			h-0.1h-0.1c-0.1,0-0.4,0-0.4,0c0,0.1,0.2,0.2,0.4,0.2c0.1,0,0.4,0.1,0.6,0.1c0.4,0.1,0.5,0.1,0.5,0.2c0,0.1-0.4,0.3-0.8,0.4
			c-0.1,0-0.2,0.1-0.2,0.1c-0.1,0.1-0.1,0.2,0.1,0.3c0.1,0,0.1,0.1,0.1,0.1v0.1c0.1,0.1,0,0.1-0.1,0.2c-0.1,0-0.2,0.1-0.2,0.1
			c-0.1,0.1-0.2,0.1-0.3,0.1s-0.2,0-0.2,0s-0.1,0.1,0,0.1l0,0c0,0,0,0-0.1,0.1c0,0,0,0.1,0,0l0.1,0.1l0,0c0,0,0,0-0.1,0
			c-0.1,0-0.2,0-0.2,0s-0.1,0-0.2,0c-0.1,0-0.1,0-0.1,0l0,0c-0.1,0.1,0,0.2,0.1,0.3c0.1,0,0.1,0.1,0.2,0.2l0.1,0.1
			c0.2,0.1,0.2,0.3,0,0.3c-0.1,0-0.2,0.1-0.2,0.2c0,0.1,0,0.1,0,0.1c-0.1,0-0.1,0.1-0.1,0.1c0,0.1,0,0.1-0.3,0.1c0,0-0.1,0-0.2,0.1
			c-0.1,0-0.1,0.1-0.2,0.1c0,0-0.1,0-0.1,0.1s-0.1,0.1-0.2,0.1c-0.1,0-0.2,0-0.2,0.1s0.1,0.2,0.1,0.2l0.2,0.2c0,0-0.1,0.1-0.3,0.1
			c-0.1,0-0.3,0-0.3,0c-0.1,0-0.6,0-0.7,0c0,0-0.1,0.1,0,0.1c0,0,0,0,0,0.1s0,0.1,0,0.1s0,0.4-0.1,0.4c0,0-0.1,0-0.2,0
			c-0.1,0-0.2,0-0.2,0.1l0,0l0,0l0,0c0,0,0,0-0.1,0s-0.1,0-0.1,0c-0.2,0-0.1,0.1,0.1,0.2c0.2,0.1,0.3,0.1,0.2,0.1c0,0-0.2,0-0.4,0
			c-0.5-0.1-0.6-0.1-0.6,0.2c0,0.1-0.1,0.2-0.1,0.2c-0.1,0.1-0.1,0.2-0.2,0.3c0,0,0,0-0.1,0s-0.1,0-0.1,0l0,0l0,0l-0.1,0.1
			c-0.2,0.1-0.3,0.2-0.1,0.3c0.1,0,0.1,0.1,0,0.2c0,0.1,0,0.2,0.3,0.3s0.4,0.2,0.3,0.2c-0.1,0-0.4-0.1-1-0.2c-0.3-0.1-0.4-0.1-0.5,0
			s-0.1,0.1-0.3,0.1s-0.3,0-0.3,0.1c0,0,0.1,0.1,0.3,0.1c0.1,0,0.2,0.1,0.2,0.1h-0.1l0,0c0,0-0.2,0-0.2,0.1
			c-0.1,0.1-0.2,0.1-0.3,0.1s-0.3,0-0.3,0s0.1,0.2,0.2,0.2l0,0c0,0,0,0,0,0.1l0,0c0,0,0,0,0,0.1s0,0.1-0.2,0.1c-0.1,0-0.3,0-0.3,0
			c-0.1,0-0.3,0-0.5,0s-0.5,0-0.6,0s-0.2,0-0.3,0s-0.3,0-0.4,0c-0.2,0-0.3,0-1.2-0.1c-0.5-0.1-1.1-0.2-1.2-0.2
			c-0.3-0.1-0.8-0.2-0.8-0.2s-0.4-0.1-0.7-0.1c-0.5-0.1-0.8-0.1-1.1-0.1c-0.2,0-0.6,0-0.9-0.1s-0.5-0.1-0.6-0.1
			c-0.2,0-0.9-0.1-1.3-0.1c-0.2,0-0.6-0.1-0.9-0.1s-0.8-0.1-1.2-0.1s-0.7-0.1-0.8-0.1c0,0-0.4,0-0.7-0.1s-0.7-0.1-0.7-0.1
			c-0.1,0-0.3,0-1.1-0.1c-0.6-0.1-1-0.1-1.4-0.1c-0.2,0-0.3,0-0.4,0s-0.1,0-0.2,0c0,0-0.2,0-0.3,0c-0.1,0-0.3,0-0.5,0s-0.4,0-0.5,0
			s-0.3,0-0.4,0s-0.3,0-0.4,0s-0.3,0-0.5,0s-0.4,0-0.5,0s-0.3,0-0.4,0s-0.3,0-0.5-0.1c-0.2,0-0.4,0-0.6-0.1c-0.2,0-0.7-0.1-1.1-0.1
			c-0.1,0-0.3,0-0.4,0s-0.6-0.1-1.1-0.1c-0.5-0.1-1-0.1-1-0.1s-0.3,0-0.6-0.1s-0.6-0.1-0.7-0.1s-0.4,0-0.6-0.1
			c-0.3,0-0.6-0.1-0.7-0.1s-0.3,0-0.3,0s0.5,0.3,0.3,0.3s-1.2-0.3-1.4-0.4S84.7,195.7,84.5,195.7L84.5,195.7z M79.2,191.2
			L79.2,191.2c-0.1-0.1-0.1-0.1-0.3-0.2c-0.1,0-0.2,0-0.2,0s0.2,0.1,0.3,0.1C79.1,191.2,79.2,191.2,79.2,191.2z M80.1,189.7
			L80.1,189.7C80,189.7,80,189.7,80.1,189.7C80,189.8,80,189.8,80.1,189.7C80.1,189.8,80.1,189.8,80.1,189.7z M78.8,188.7
			C78.8,188.7,78.8,188.6,78.8,188.7C78.7,188.6,78.7,188.6,78.8,188.7C78.7,188.7,78.8,188.7,78.8,188.7L78.8,188.7z M79.2,187.8
			L79.2,187.8C79.2,187.8,79.2,187.9,79.2,187.8C79.3,187.8,79.3,187.8,79.2,187.8L79.2,187.8z M79.5,187.5L79.5,187.5L79.5,187.5
			L79.5,187.5L79.5,187.5z M79.3,187.3L79.3,187.3L79.3,187.3L79.3,187.3L79.3,187.3z M80.7,186.1C80.6,186.1,80.6,186.1,80.7,186.1
			C80.6,186.1,80.6,186.1,80.7,186.1L80.7,186.1L80.7,186.1z M80.7,186l-0.1-0.2l0,0c0,0.1,0.1,0,0,0c0-0.1-0.1,0-0.1,0l0,0l0,0v0.1
			C80.6,186,80.6,186,80.7,186C80.6,186,80.6,186,80.7,186C80.7,186.1,80.7,186,80.7,186L80.7,186z M80.5,185.9L80.5,185.9
			C80.5,185.9,80.6,185.9,80.5,185.9C80.6,185.9,80.5,185.9,80.5,185.9L80.5,185.9z M81.1,185.4L81.1,185.4L81.1,185.4
			C81,185.4,81,185.4,81.1,185.4C81,185.5,81.1,185.5,81.1,185.4z M80.9,185.4C81,185.3,80.9,185.3,80.9,185.4L80.9,185.4
			L80.9,185.4L80.9,185.4z M82,184.5L82,184.5C81.9,184.5,81.9,184.5,82,184.5C81.9,184.5,81.9,184.5,82,184.5L82,184.5L82,184.5z
			 M76.3,191.5C76.3,191.5,76.3,191.4,76.3,191.5C76.3,191.4,76.3,191.4,76.3,191.5L76.3,191.5L76.3,191.5z M77.8,189.3L77.8,189.3
			C77.9,189.3,77.9,189.3,77.8,189.3L77.8,189.3z M78.2,189.4C78.2,189.3,78.2,189.3,78.2,189.4C78.3,189.4,78.3,189.4,78.2,189.4
			c0.1,0,0.1,0,0.2,0l0,0l0,0C78.3,189.4,78.2,189.4,78.2,189.4z M78.1,189.3C78.1,189.2,78.1,189.2,78.1,189.3L78.1,189.3
			C78,189.3,78,189.3,78.1,189.3L78.1,189.3z M78.8,188.9L78.8,188.9C78.9,188.9,78.9,188.9,78.8,188.9
			C78.9,189,78.9,189,78.8,188.9C78.8,189,78.8,189,78.8,188.9z M78.9,188.5C79,188.4,79,188.4,78.9,188.5
			C79,188.5,79,188.5,78.9,188.5L78.9,188.5L78.9,188.5z M79.3,187.4C79.2,187.4,79.3,187.4,79.3,187.4
			C79.4,187.4,79.4,187.4,79.3,187.4L79.3,187.4L79.3,187.4z M80.1,185.6C80.1,185.6,80.2,185.6,80.1,185.6
			C80.2,185.6,80.2,185.6,80.1,185.6L80.1,185.6L80.1,185.6z M80.2,185.5C80.2,185.5,80.3,185.5,80.2,185.5
			C80.3,185.5,80.3,185.5,80.2,185.5L80.2,185.5z M80.8,185.2C80.8,185.1,80.8,185.1,80.8,185.2C80.8,185.1,80.8,185.2,80.8,185.2
			L80.8,185.2L80.8,185.2z M82,183.7L82,183.7L82,183.7C82.1,183.8,82.1,183.8,82,183.7L82,183.7z"/>
		<path id="path2987_00000178194641421865208450000005490204594392517285_" class="st0" d="M239,141.4c-0.1,0.2-0.2,0.5-0.3,0.7
			c-0.3,0.7-0.5,1.1-0.6,1.2c0,0-0.1,0.2-0.2,0.3c-0.1,0.1-0.1,0.3-0.2,0.3s-4.7-0.1-1.4-0.4c0.3,0,2.6,0.3,2.5,0.4
			c-0.1,0.1-0.1,0.1-0.1,0.1l0,0c0,0-0.1,0-0.1,0.2c-0.1,0.1-0.1,0.2-0.1,0.2h-0.1c-0.1,0-0.1,0-0.3,0.2c0,0.1-0.1,0.2-0.2,0.2
			c-0.1,0.1-0.1,0.1-0.1,0.1c-0.1,0.1-0.1,0.1-0.2-0.1c-0.1-0.1-0.1-0.2-0.1-0.4c0-0.1-0.1-0.3-0.1-0.3s-0.1,0.1-0.2,0.2
			c0,0-0.1,0.1-0.1,0.2c-0.1,0.1-0.1,0.2-0.2,0.3c-0.1,0.1,1.4-0.6,1.4-0.5c-0.1,0.3-0.2,0.4-0.3,0.3c0,0-0.1,0-0.2,0.1
			c-0.1,0-0.1,0.1-0.1,0.1l0,0c0,0.1-0.1,0.2-0.2,0.2c-0.1,0-0.2-0.1-0.2-0.1l0,0v-0.1c0-0.1,0-0.1,0-0.2s0,0,0-0.1c0,0,0,0,0-0.1
			s0,0,0,0l0,0l0,0v-0.1l0,0l0,0c0,0-0.1,0-0.1,0.1s-0.1,0.1-0.1,0.2l-0.1,0.1c0,0,0,0-0.1,0.1c0,0,0,0,0,0.1s0,0.1-0.1,0l0,0l0,0
			c0,0-0.1-0.1,0-0.1l0,0l0,0c0,0,0-0.2,0.1-0.2c0,0,0,0,0-0.1l1.3,1c-1.6-1.6-1.3-1.9,0-0.1v-0.1c0.1-0.1,0.1-0.1,0,0
			c0,0,0,0,0-0.1c0,0,0-0.1,0.1-0.2c0-0.1,0.6,0,0.6,0c0-0.1-0.1-0.1-0.2,0c-0.1,0-0.2,0.1-0.2,0l0,0c0,0,0,0,0-0.1v-0.1
			c0-0.1,0-0.1,0-0.1c-0.1-0.1-0.1-0.1-0.2-0.1c0,0-0.1,0,0,0c0,0,0,0-0.1-0.1c-0.1,0-0.1-0.1-0.1-0.1s0,0,0,0.1s0,0.1-0.1,0l0,0
			c0,0,0,0.1-0.1,0.1c0,0-0.1,0.1-0.2,0.2c-0.2,0.2-0.3,0.3-0.5,0.7c-0.2,0.3-0.2,0.4-0.2,0.4c-0.1,0-0.2,0.3-0.3,0.5
			c0,0.1-0.1,0.2-0.2,0.2c-0.1,0-0.1,0.1-0.2,0.2c-0.1,0.1-0.2,0.2-0.2,0.2v-0.1c0-0.1,0-0.2,0.2-0.6c0.1-0.3,0.2-0.5,0.2-0.5
			c0-0.1,0-0.2,0.2-0.3c0,0,0.1-0.2,0.2-0.3c0.1-0.1,0.1-0.2,0.1-0.2s0-0.1,0.1-0.1v-0.1l0.3-0.7c0-0.1,0.1-0.3,0.1-0.5
			c0-0.1,0.1-0.2,0-0.2c0,0-0.1,0-0.1,0.1l0,0l0,0l0,0l0,0l0,0l0,0c0,0,0,0-0.1,0h-0.1l-0.1-0.1c0,0-0.2,0-0.2,0.1l0,0l0,0l0,0
			c-0.1,0-0.1,0-0.1,0l0,0c0,0-0.2,0-0.1,0.1l0,0l0,0l0,0c0.1,0,0,0.1,0,0l0,0h0.1l0,0c0,0,0,0-0.1,0c0,0,0,0-0.1,0.1
			c0,0.1,0,0.1-0.1,0.1l0,0l0,0l0,0l0,0c0,0-0.1,0-0.1-0.1c-0.1,0-0.1-0.1,0-0.1h0.1c0,0.1,0,0,0.1,0v-0.1h-0.1c0,0,0,0-0.1,0
			c0,0-0.1,0,0,0c0,0,0,0,0-0.1l0,0c0,0,0,0-0.1,0l-0.1-0.1c0,0-0.1-0.1-0.1,0l0,0H236l0,0l0,0c0,0,0,0-0.1-0.1v-0.1l0,0l0,0l0,0
			l0,0l-0.1-0.1l-0.1-0.1c0,0,0,0-0.1,0s-0.1,0,0-0.1v-0.1l0,0v-0.1l0,0l0,0l0,0l0,0l0,0c0,0,0,0,0,0.1s0,0.1,0,0.1l0,0l0,0l0,0
			c0,0,0,0-0.1,0l0,0l0,0c0,0,0,0,0-0.1c0,0,0-0.1-0.1-0.1s-0.1,0-0.1,0c0,0.1,0,0.1,0,0c0,0,0,0-0.1,0h-0.1c0,0.1,0,0,0-0.1
			s0-0.1,0-0.1l0,0l0,0c0,0,0,0,0-0.1v-0.1l0,0c0,0,0,0,0-0.1V142c0-0.1,0.1-0.3,0.1-0.4c0,0,0-0.3,0.1-0.3c0,0-0.1-0.1-0.2-0.1H235
			c-0.1,0-0.1,0-0.1,0l0,0c0,0,0,0-0.1,0c0,0.1-0.1,0.1-0.2,0l0,0c0,0,0,0-0.1,0h-0.1h-0.1l0,0l0,0c0,0,0-0.1,0.1,0
			c0.1,0,0.1,0,0-0.1l0,0c0,0.1,0,0.1-0.1,0.1l0,0l0,0c0,0-0.1,0,0-0.1c0,0,0,0,0-0.1l0,0l0,0l0,0l0,0l0,0l0,0h0.1l0,0h-0.1
			c0,0,0,0-0.1-0.1c-0.1,0-0.1-0.1-0.1-0.1v-0.1c0,0,0,0,0-0.1h0.1c0,0.1,0.1,0,0.1,0c0-0.1,0-0.1,0,0s0,0.1,0,0v-0.1h-0.1
			c-0.1,0-0.1,0-0.1,0l0,0l0,0l0,0c0,0-0.1,0,0-0.1l0,0c0,0-0.1,0,0,0c0,0,0,0,0,0.1c0,0,0,0-0.1,0v-0.1c0,0,0-0.1-0.1-0.1l0,0l0,0
			c0,0-0.1-0.1,0-0.1c0,0,0,0,0.1,0l0,0c0,0,0,0-0.1-0.1c-0.1,0-0.1-0.1-0.1-0.2v-0.1v-0.1c0-0.1,0-0.1,0-0.2s0-0.1,0-0.1v-0.1l0,0
			h-0.1c-0.1,0-0.1,0-0.1,0l0,0h-0.1l0,0h0.1l0,0h-0.1l0,0l0,0c-0.1,0-0.2,0-0.2,0l0,0l0,0l0,0c0,0,0,0-0.1,0c0,0-0.1,0-0.1-0.1
			c0,0,0-0.1-0.1-0.1l0,0l0,0c-0.1,0-0.1,0-0.1-0.1c0,0,0,0-0.2-0.1h-0.1l0,0l-0.1-0.1l0,0l0,0c0,0,0,0-0.1,0c0,0,0,0,0-0.1
			c0.1,0,0.1,0,0,0l0,0l0,0l0,0l0,0c0,0,0,0,0-0.1s0-0.1,0-0.1l0,0l0,0l0,0c0,0,0,0,0-0.1s0-0.1,0-0.2c0-0.1,0-0.1,0-0.1s0,0,0-0.1
			c0,0,0-0.2,0.1-0.2c0,0,0,0,0-0.1s0.1-0.2,0.1-0.3v-0.1l-0.1-0.1c0,0-0.1,0.1-0.2,0.4c0,0.1-0.1,0.2-0.1,0.2h-0.1v0.1
			c0,0.1,0,0.1-0.1,0.1s-0.1,0,0-0.1c0-0.1,0-0.1,0,0c-0.1,0,0,0,0-0.2c0-0.1,0.1-0.2,0.1-0.2s0,0,0-0.1s0.1-0.4,0.1-0.4v-0.1l0,0
			c0-0.1,0-0.1,0-0.1s0-0.1-0.1-0.1c-0.1-0.1-0.1-0.2-0.1-0.2l0,0l0,0c0,0,0.2-0.3,0.2-0.4l0,0c0,0,0.1-0.1,0.1-0.2v-0.1
			c0,0,0.1-0.2,0.2-0.4c0.1-0.2,0.2-0.5,0.3-0.6c0.4-0.8,0.5-1,0.7-1.5c0.2-0.4,0.2-0.5,0.3-0.5l0,0c0,0,0-0.2,0.2-0.5
			c0-0.1,0.1-0.2,0.1-0.2s0-0.1,0.1-0.3c0-0.1,0.1-0.2,0.1-0.3l0,0c0,0,0-0.1,0-0.2c0-0.1,0.1-0.2,0.1-0.3s0.1-0.2,0.1-0.4
			c0.1-0.1,0.1-0.3,0.1-0.4c0-0.1,0.1-0.2,0.1-0.2l0,0c0,0,0-0.1,0.1-0.2c0-0.1,0.1-0.4,0.1-0.4s0.4-1,0.4-1.1s0.1-0.2,0.1-0.3
			c0.1-0.3,0.2-0.6,0.2-0.6s0.1-0.1,0.1-0.3c0-0.1,0.2-0.4,0.2-0.4s0,0,0-0.1c0.2-0.6,0.7-1.7,0.7-1.8l0.1-0.2c0,0,0-0.2,0.1-0.3
			s0.2-0.3,0.2-0.3s0-0.1,0.1-0.1c0-0.1,0.1-0.1,0-0.1c0,0,0,0,0-0.1v-0.1c0,0,0-0.1,0.1-0.2c0-0.1,0.1-0.2,0.1-0.2l0,0l0.1-0.2l0,0
			c0,0,0,0,0.1-0.1c0,0,0-0.1,0.1-0.1v-0.1c0,0,0-0.1,0.2-0.6c0-0.1,0.1-0.3,0.1-0.4c0-0.1,0.1-0.4,0.2-0.6s0.2-0.4,0.2-0.4
			s0.1-0.3,0.2-0.6c0.2-0.6,2.8-6.9,3.1-7.7c0-0.1,0.1-0.2,0.1-0.3c0-0.1,0.2-0.5,0.4-0.8c0.4-0.8,0.5-1.1,0.7-1.6
			c0.1-0.3,0.3-0.6,0.3-0.7c0,0,0.1-0.1,0.1-0.2c0.1-0.2,0.2-0.3,0.2-0.4l0.1-0.1c0-0.1,0.1-0.2,0.2-0.2s0.1-0.1,0.1-0.2
			c0,0,0.1-0.1,0.2-0.2s0.1-0.2,0.1-0.2l0,0l0,0c0.1-0.1,0.2-0.5,0.3-0.5c0,0,0.1-0.1,0.2-0.1s0.3-0.1,0.3-0.2
			c0.1-0.1,0.2-0.4,0.2-0.4l0,0l0,0c0,0,0,0,0.1,0c0,0,0.1-0.1,0.2-0.1c0.1-0.1,0.2-0.1,0.2-0.2c0.1-0.1,0.1-0.2,0.2-0.1
			c0.1,0,0.1,0.1,0.1,0.2v0.1v0.1c0,0.1-0.1,0.3,0,0.3s0.2-0.1,0.3-0.3c0-0.1,0.1-0.3,0.2-0.4c0.1-0.3,0.2-0.3,0.2-0.3
			c0.1,0,0.3,0.4,0.3,0.7c0,0.1,0,0.1,0.1,0.2s0.2,0.1,0.3,0c0.1,0,0.1-0.1,0.2,0h0.1c0.1,0,0.2,0,0.2,0.1c0,0,0.1,0.1,0.1,0.2
			c0.1,0.1,0.1,0.2,0,0.2c0,0.1,0,0.1,0,0.2l0.1,0.1l0,0c0,0,0,0,0,0.1s0,0,0,0s0.1-0.1,0.1,0l0,0c0,0,0,0,0,0.1s0,0.1,0,0.2v0.1
			v0.1l0,0c0.1,0.1,0.2,0.1,0.3,0c0.1,0,0.1-0.1,0.2-0.1c0,0,0.1,0,0.1-0.1c0.1-0.1,0.3-0.1,0.3,0.1c0,0.1,0.1,0.2,0.2,0.2
			s0.1,0,0.1,0s0,0.1,0.1,0.1s0.1,0,0.1,0.2v0.1c0,0.1,0.1,0.1,0.1,0.2c0,0,0,0.1,0.1,0.1s0.1,0.1,0.1,0.2s0,0.2,0.1,0.2
			s0.2,0,0.2,0s0.2-0.1,0.3-0.1c0,0,0.1,0.1,0,0.3c0,0.1,0,0.2-0.1,0.3c0,0.1-0.1,0.5-0.1,0.5l0.1,0.1c0,0,0,0,0.1,0h0.1
			c0,0,0.4,0.1,0.4,0.2v0.1c0,0.1,0,0.2,0,0.2l0,0l0,0l0,0c0,0,0,0,0,0.1c0,0,0,0,0,0.1s0.1,0.1,0.2,0s0.1-0.2,0.2-0.1
			c0,0,0,0.2-0.1,0.3c-0.1,0.4-0.1,0.4,0.1,0.5c0.1,0,0.2,0.1,0.2,0.2c0.1,0.1,0.2,0.2,0.3,0.2c0,0,0,0,0,0.1v0.1l0,0l0,0
			c0,0,0,0.1,0.1,0.1c0.1,0.2,0.1,0.2,0.2,0.2c0,0,0.1,0,0.2,0c0.1,0.1,0.2,0,0.3-0.2c0.2-0.2,0.2-0.2,0.3-0.1
			c0,0.1-0.1,0.3-0.4,0.7c-0.1,0.2-0.1,0.3,0,0.4s0.1,0.1,0.1,0.3c0,0.1,0,0.3,0.1,0.3c0,0,0.1-0.1,0.2-0.2c0-0.1,0.2-0.1,0.2-0.1
			v0.1l0,0c0,0,0,0.2,0.1,0.2c0.1,0.1,0.1,0.2,0.1,0.2c-0.1,0.1-0.1,0.2-0.1,0.3c0,0,0.2,0,0.2-0.1l0,0c0,0,0,0,0.1,0l0,0
			c0,0,0,0,0.1,0s0.1,0,0,0.2c0,0.1-0.1,0.2-0.1,0.3s0,0.2-0.1,0.4c0,0.2-0.1,0.4-0.1,0.4c0,0.1,0,0.2,0,0.3s-0.1,0.2-0.1,0.3
			c0,0.2,0,0.2-0.3,0.9c-0.2,0.4-0.4,0.8-0.4,0.9c-0.1,0.2-0.3,0.5-0.3,0.6c0,0-0.1,0.3-0.3,0.5c-0.2,0.4-0.2,0.6-0.3,0.8
			c0,0.2-0.1,0.5-0.2,0.6c-0.1,0.2-0.1,0.4-0.1,0.4c0,0.2-0.2,0.7-0.3,0.9c-0.1,0.2-0.2,0.5-0.2,0.7s-0.2,0.6-0.3,0.9
			c-0.1,0.3-0.2,0.5-0.2,0.6c0,0-0.1,0.3-0.2,0.5s-0.3,0.3-0.3,0.3c0,0.1-0.1,0.1-0.3,0.7c-1.1,1.9-1.3,2.3-1.4,2.5
			c0,0.1-0.1,0.3-0.1,0.3v0.1c0,0,0,0.1,0,0.2c0,0.1-0.1,0.2-0.1,0.4c0,0.1-0.1-1-0.1-0.9s-3.7,0.6-3.8,0.7c0,0.1-0.1,0.2-0.1,0.3
			s-0.1,0.2-0.1,0.4c0,0.1-0.1,0.3-0.1,0.4c0,0.1-0.1,0.2-0.1,0.3s-0.1,0.2-0.1,0.4c-0.1,0.1-0.1,0.3-0.1,0.4c0,0.2-0.2,0.5-0.3,0.8
			c0,0.1-0.1,0.2-0.1,0.3s-0.1,0.4-0.3,0.8c-0.1,0.4-0.3,0.7-0.3,0.7s-0.1,0.2-0.2,0.5c-0.1,0.2-0.2,0.5-0.2,0.5
			c0,0.1-0.1,0.3-0.2,0.5s-0.2,0.4-0.2,0.5s-0.1,0.2-0.1,0.2s-0.1,0.2-0.1,0.3s-0.1,0.4-0.2,0.5c0,0.1-0.1,0.2-0.1,0.3
			c0,0-0.1,0.2-0.1,0.4c-0.1,0.2-0.1,0.3-0.1,0.3s0,0.1-0.1,0.3c0,0.1-0.1,0.3-0.1,0.3s-0.6,1.5-0.8,2.1
			C239.2,140.9,239.1,141.2,239,141.4L239,141.4z M238.6,143.8L238.6,143.8c-0.1,0-0.1,0-0.2,0.2c0,0.1,0,0.2,0,0.2s0.1-0.1,0.2-0.2
			C238.6,143.9,238.6,143.9,238.6,143.8z M237.3,142.7C237.3,142.7,237.2,142.7,237.3,142.7C237.2,142.8,237.2,142.8,237.3,142.7
			C237.3,142.8,237.3,142.8,237.3,142.7C237.3,142.8,237.3,142.7,237.3,142.7z M236,143.4C236,143.4,235.9,143.5,236,143.4
			C235.9,143.5,235.9,143.5,236,143.4C236,143.5,236,143.5,236,143.4L236,143.4z M235.2,142.9C235.1,142.9,235.1,142.9,235.2,142.9
			L235.2,142.9C235.2,142.9,235.2,142.8,235.2,142.9L235.2,142.9z M234.9,142.6C234.8,142.6,234.8,142.6,234.9,142.6L234.9,142.6
			C234.9,142.6,234.9,142.5,234.9,142.6L234.9,142.6z M234.6,142.6L234.6,142.6C234.6,142.7,234.6,142.7,234.6,142.6
			C234.7,142.7,234.7,142.7,234.6,142.6C234.7,142.7,234.7,142.6,234.6,142.6z M233.6,141.3L233.6,141.3L233.6,141.3L233.6,141.3
			L233.6,141.3z M233.5,141.3h-0.2l0,0c0.1,0,0-0.1,0,0c-0.1,0,0,0.1,0,0.1l0,0l0,0C233.4,141.4,233.5,141.4,233.5,141.3
			L233.5,141.3C233.5,141.3,233.6,141.3,233.5,141.3C233.6,141.3,233.6,141.2,233.5,141.3L233.5,141.3z M233.4,141.4
			C233.4,141.4,233.4,141.3,233.4,141.4C233.4,141.3,233.4,141.3,233.4,141.4C233.4,141.3,233.5,141.3,233.4,141.4L233.4,141.4z
			 M233,140.8C232.9,140.7,232.9,140.7,233,140.8L233,140.8C232.9,140.8,233,140.8,233,140.8C233.1,140.8,233.1,140.8,233,140.8z
			 M232.9,140.9C232.9,140.8,232.9,140.8,232.9,140.9L232.9,140.9L232.9,140.9L232.9,140.9z M232.2,139.8L232.2,139.8
			C232.2,139.8,232.2,139.9,232.2,139.8C232.2,139.9,232.2,139.9,232.2,139.8L232.2,139.8L232.2,139.8z M236.6,144.8L236.6,144.8
			C236.5,144.8,236.6,144.8,236.6,144.8L236.6,144.8C236.6,144.8,236.6,144.9,236.6,144.8z M236.5,144.4
			C236.4,144.4,236.4,144.3,236.5,144.4C236.5,144.3,236.5,144.3,236.5,144.4L236.5,144.4z M236.6,144.1
			C236.6,144.1,236.5,144.1,236.6,144.1c0-0.1,0-0.1,0-0.1l0,0l0,0C236.6,144,236.6,144,236.6,144.1
			C236.7,144,236.6,144.1,236.6,144.1z M236.5,144.2C236.5,144.1,236.5,144.1,236.5,144.2C236.5,144.1,236.5,144.1,236.5,144.2
			L236.5,144.2L236.5,144.2z M236.3,143.5C236.2,143.5,236.2,143.5,236.3,143.5C236.2,143.4,236.3,143.4,236.3,143.5L236.3,143.5
			L236.3,143.5z M235.8,143.3C235.7,143.2,235.7,143.2,235.8,143.3C235.8,143.2,235.8,143.3,235.8,143.3L235.8,143.3L235.8,143.3z
			 M234.8,142.7C234.8,142.7,234.7,142.7,234.8,142.7C234.8,142.6,234.8,142.6,234.8,142.7L234.8,142.7L234.8,142.7z M233,141.5
			L233,141.5L233,141.5C233,141.5,233,141.6,233,141.5L233,141.5z M232.9,141.4L232.9,141.4C233,141.4,233,141.4,232.9,141.4
			C232.9,141.4,232.9,141.5,232.9,141.4z M232.7,140.9L232.7,140.9L232.7,140.9C232.8,140.9,232.7,140.9,232.7,140.9L232.7,140.9z
			 M231.4,139.6L231.4,139.6L231.4,139.6C231.5,139.6,231.5,139.6,231.4,139.6L231.4,139.6z"/>
	</g>
</g>
</svg>
