<?xml version="1.0" encoding="utf-8"?>
<!-- Generator: Adobe Illustrator 26.0.1, SVG Export Plug-In . SVG Version: 6.00 Build 0)  -->
<svg version="1.1"
	 id="svg2" xmlns:cc="http://creativecommons.org/ns#" xmlns:dc="http://purl.org/dc/elements/1.1/" xmlns:rdf="http://www.w3.org/1999/02/22-rdf-syntax-ns#" xmlns:svg="http://www.w3.org/2000/svg"
	 xmlns="http://www.w3.org/2000/svg" xmlns:xlink="http://www.w3.org/1999/xlink" x="0px" y="0px" viewBox="0 0 570.1 44.4"
	 style="enable-background:new 0 0 570.1 44.4;" xml:space="preserve">
<style type="text/css">
	.st0{fill:#00A9B1;}
</style>
<path id="path2987_00000008137389772447847310000013417742189554338202_" class="st0" d="M101.1,43c-2.9-0.1-7.7-0.1-10.7-0.2
	c-10.8-0.2-17.5-0.3-18.4-0.3c-0.5,0-2.5-0.1-4.4-0.1s-4-0.1-4.6-0.1s-2-0.1-3.1-0.1c-3.6-0.1-6.9-0.2-9.6-0.4
	c-0.7-0.1-1.4-0.1-2.2-0.1c-0.2,0-0.2,0-0.1,0c-1-0.1-2.1-0.2-3.2-0.1c-1.9,0-3.6-0.1-3.8-0.1c-0.3,0-0.5-0.2-0.6-0.4
	c-0.2-0.4-0.5-0.4-3.4-0.6c-1.1-0.1-2.8-0.2-3.8-0.3s-2.2-0.2-2.6-0.2c-1.3-0.1-1.2-0.3,0.1-0.7c1.5-0.4,3.1-0.7,4.7-0.7
	c1.2,0,2.3-0.3,3.4-0.7c-1.1-0.2-2.1-0.3-3.2-0.3c-0.5,0-2.2-0.1-3.7-0.1c-1.5,0-3.5-0.1-4.5-0.2c-1.1-0.1-3.2-0.2-5.4-0.2
	c-4,0-5.8-0.2-6-0.5c-0.6-0.2-1.3-0.4-1.9-0.4c-0.5,0-1.1-0.1-1.6-0.3c0.1,0,0-0.1-0.2,0c-1,0.1-2-0.1-3-0.4
	c-0.6-0.3-0.3-0.6,0.6-0.6c0.2,0,0.5,0,0.5-0.1c0.7-0.1,1.4-0.1,2.1-0.1c0.7,0,1.5,0,2.2-0.1c0.2-0.1,0.5-0.1,0.7-0.1
	c0.3,0,0.5,0,0.8-0.1c0.2-0.1,0.3-0.1,0.5-0.1c0.2,0,0.2,0,0.2,0.1s0.2,0.1,0.7,0.1c0.5,0,0.9,0,0.9-0.1s0.1-0.1,0.3-0.1
	s0.3,0,0.3,0c0-0.1-0.8-0.2-2.2-0.2c-0.7,0-1.9,0-2.7-0.1s-1.6-0.1-1.8-0.1s-0.7-0.1-1-0.1c-0.4,0-0.8-0.1-1.1,0
	c-0.8,0.1-1-0.1-0.4-0.2c0.3-0.1,0.5-0.1,0.5,0s0.1,0,0.2,0c0.5-0.2,1.1-0.2,1.6-0.2c0,0,0.1,0.1,0.3,0.1s0.3,0,0.2-0.1
	c1-0.1,1.9-0.1,2.9,0c0.3,0.1,0.6,0.1,0.9,0c0.4-0.1,1.7-0.2,1.4,0c-0.3,0.1,0.7,0.1,1.1,0c0.4-0.1,0.8-0.1,1.1,0
	c1,0.1,1.3,0.1,0.7,0c-0.3-0.1-0.2-0.1,0.6-0.1c0.6,0,2.1,0,3.4-0.1s2.7-0.1,3.1-0.1c1.3,0,1-0.3-0.8-0.7c-1-0.2-1.5-0.4-1.4-0.4
	c0.2-0.1,0.3-0.1,0.5,0c0.3,0,0.6,0.1,1,0c0.3,0,1.1-0.1,1.8-0.1c0.6,0,1.2,0,1.7-0.2c0.7-0.3,0.8-0.5,0.4-0.7
	c-0.2-0.1-0.2-0.2,0-0.1c0.3,0,0.5-0.1,0.7-0.3c0.2-0.2,0.5-0.3,0.8-0.4c0.2,0-0.2-0.1-0.9-0.1c-0.9,0-1.1,0-0.8-0.1
	s0.2-0.1-0.5-0.1c-0.5,0-1,0-1.5-0.1c-0.3,0-1.8-0.2-3.3-0.4c-3.1-0.4-15.9-2.7-13.1-2.5c0.7,0,2.8,0.1,4.6,0.1s3.5,0.1,3.8,0.1
	c0.6,0.1,1.1,0.1,1.7,0c0.6,0,1.2,0,1.4,0c0.5,0,9.9,0.1,10.9,0c1.8-0.1,4-0.1,7-0.1c1.6,0,3-0.1,3.2-0.1c0.3-0.1-0.2-0.1-1.2-0.1
	c-0.2,0-0.4,0-0.4-0.1s-0.2-0.1-0.4-0.1c-0.3,0-0.5,0-0.8-0.1c-0.2-0.1-0.4-0.1-0.6,0c-0.2,0.1-0.3,0.1-0.3,0c0-0.1-0.2-0.1-0.6-0.1
	c-0.3,0.1-0.5,0-0.8-0.1c-0.1-0.1,0-0.2,0.1-0.2c0.4,0,0.9-0.2,1.3-0.4c-0.5-0.3-1-0.4-1.5-0.4c-0.2,0-0.2,0-0.1-0.1
	c0.1-0.1,0-0.1-0.5-0.1c-0.6,0-0.7,0-0.5-0.1c0.3-0.2-0.3-0.3-0.9-0.1c-0.3,0.1-0.4,0.1-0.3,0c0.2-0.1-1.2-0.4-1.8-0.3
	c-0.2,0-0.2,0-0.1,0s0.1-0.1-0.1-0.1s-0.3,0.1-0.3,0.1c0,0.2-0.6,0.2-0.6,0c0-0.1,0-0.1-0.3,0c-0.1,0.1-0.2,0.2-0.2,0.2
	s-0.2,0.1-0.5,0.1c-0.7,0-0.8-0.1-0.1-0.2c0.4-0.1,0.1-0.1-1.2-0.1c-0.5,0.1-1,0-1.5-0.1c0.1,0-0.1-0.1-0.4,0c-0.4,0-0.6,0-0.6-0.1
	s-0.2-0.1-0.4,0c-0.3,0-0.3,0-0.1-0.1c0.1-0.1,0.2-0.2,0.3-0.3c0.1-0.2,0.9-0.3,1.9-0.1c0.5,0.1,0.7,0.1,0.5,0.1
	c-0.8,0-0.4,0.2,0.4,0.2c0.6,0,0.8,0,0.6-0.1c-0.1-0.1,0-0.2,0.2-0.2c0.2,0,0.2-0.1-0.1-0.2c-0.3-0.1-0.3-0.1,0.1-0.1
	c0.3,0,0.6,0,0.9,0c0.3-0.1,0.3-0.1-0.1,0c-0.5,0-0.5,0-0.3-0.2c0.1-0.1,0.3-0.2,0.5-0.3c0.5-0.1,0-0.4-0.5-0.4
	c-0.3,0-0.4,0-0.3-0.1s-0.1-0.2-0.5-0.2c-0.3,0-0.4,0-0.2,0s0.3-0.1,0.2-0.1s0.1-0.1,0.5-0.2s0.5-0.1,0.4-0.2s0.1-0.1,0.4-0.1
	c0.5,0,0.5,0,0.1-0.1c-0.2-0.1-0.5-0.1-0.7,0c-0.1,0.1-0.3,0.1-0.4,0c-0.2-0.1,0.4-0.4,0.8-0.5c0.3-0.1,0.8-0.5,0.4-0.4
	c-0.2,0-0.4,0-0.6-0.1c-0.3-0.2-0.3-0.2,0.5-0.1c0.5,0,0.8,0,0.8-0.1s0-0.1,0.2-0.1c0.6,0,1,0,1-0.1c0-0.1,0.2-0.1,0.3-0.1
	s0.2,0,0.2-0.1s0-0.1,0.2-0.1c0.2,0,0.2,0-0.1-0.1c-0.3,0-0.5,0-0.5-0.1c-0.4-0.1-0.7-0.1-1.1-0.1c-0.6,0-1,0-0.9-0.1
	s-0.1-0.1-0.5-0.1s-0.6,0-0.5-0.1s0-0.1-0.2-0.1s-0.3-0.1-0.2-0.1c0.2-0.1,0.1-0.1-0.3,0s-0.5,0.1-0.5,0c0-0.1,0.3-0.2,0.6-0.2
	c0.4,0,0.6-0.1,0.6-0.2c0-0.2-0.1-0.2-0.8-0.1c-0.7,0-0.8,0-0.3,0c0.5-0.1,0.5-0.1-0.1-0.3c-0.4-0.1-0.7-0.2-1.1-0.2
	c-0.9,0-0.1-0.1,1.2-0.1c0.7,0,1.2,0,1.1,0.1s0,0.1,0.1,0.1c0.2,0,0.3,0,0.5-0.1c0.4-0.1,0.8-0.1,1.2,0c0.5,0,0.9,0,1.4-0.1
	c0.2-0.1,0.4,0,0.6,0c0.3,0.1,0.5,0.1,0.8,0c0.4-0.1,0.9-0.1,1.3-0.1c1.1,0,4.9,0,5.1-0.1c0.2,0,3.6-0.1,4.6-0.1
	c0.5,0,0.5-0.4,0-0.5c-0.2-0.1-0.5-0.2-0.5-0.4c0-0.2-0.2-0.2-0.4-0.2s-0.3,0-0.2-0.1s-0.1-0.1-0.7-0.2c-1-0.1-1.7-0.3-1.4-0.4
	c0.1,0-0.1-0.1-0.4,0c-0.4,0-0.6,0-0.6-0.1c0-0.1-0.3-0.2-0.6-0.2c-0.7-0.1-0.8-0.2-0.2-0.3c0.2,0,0.3,0,0.1,0
	c-0.1,0.1-0.1,0.1,0,0.1c0.7,0,1,0,1,0.2c0,0.2,0.7,0.1,0.9-0.1c0.1-0.1,0-0.1-0.1-0.1c-0.8,0-1.3,0-1.3-0.2c0-0.1,0.2-0.2,0.3-0.1
	s0.3,0,0.3-0.1s0.2-0.2,0.4-0.2c0.2,0,0.4,0,0.6-0.1c0.1-0.1,0.1-0.1-0.1-0.1c-0.1,0-0.3,0-0.4-0.1c-0.1-0.1-0.1,0-0.1,0
	s-0.1,0.2-0.2,0.2s-0.3,0-0.3-0.1s-0.2,0-0.4,0.1c-0.3,0.1-0.4,0.2-0.1,0.2c0.2,0,0.1,0.1-0.3,0c-0.6,0-0.9-0.3-0.4-0.2
	c0.2,0,0.3-0.1,0.4-0.3c0.2-0.2,0.4-0.3,1-0.3c0.3,0,0.5,0,0.8-0.1c0,0,0.3-0.1,0.6-0.1c0.7,0,0.8,0.1,0.3,0.2
	c-0.6,0.1,0,0.2,0.9,0.2c1.3,0,1.6-0.1,0.4-0.1c-0.9,0-0.9,0-0.1-0.1l0.8-0.1l-0.7-0.1c-0.8-0.1-0.9-0.3-0.2-0.3
	c0.3,0,0.4,0,0.3,0.1s-0.1,0.1,0.1,0.1s0.3-0.1,0.3-0.2s0.2-0.2,0.5-0.2c0.5,0,0.4,0-0.1-0.1c-0.5-0.1-0.6-0.1-0.7,0
	c-0.2,0.1-0.5,0.1-0.7,0c-0.5-0.1-0.5-0.1,0-0.2c0.3-0.1,0.6-0.1,1-0.1c0.4,0,0.6-0.1,0.5-0.3c0,0,0.2-0.1,0.4-0.1s0.4,0,0.3-0.1
	c-0.2-0.1,0.4-0.2,0.8-0.1c0.2,0,0.2,0.1-0.1,0.2s-0.3,0.1,0,0.1c0.4,0,0.5-0.1,0.4-0.4c-0.1-0.2,0.5-0.3,1.9-0.3
	c0.7,0,1.1,0,1.1-0.1c0.6-0.1,1.2-0.1,1.8-0.1c0.7,0,1.5,0,2.2-0.1c0.4-0.1,0.9-0.1,1.3,0c0.4,0.1,0.9,0,1.3-0.1
	c0.2-0.1,0.3-0.1,0.1-0.1c-0.4,0-0.8-0.1-1.1-0.3c-0.3-0.2-0.5-0.3-0.8-0.3c0,0-0.3,0-0.6-0.1s-0.6-0.2-0.6-0.3s0.2,0,0.3,0.1
	c0.3,0.1,0.5,0.2,0.8,0.2c0.4,0,0.4,0,0.2-0.1c-0.2-0.1-0.3-0.2-0.2-0.2c0.2-0.1,0.2-0.1,0.4,0c0.2,0.1,0.3,0.1,0.3-0.1
	c0-0.2-0.7-0.5-1-0.4c-0.1,0-0.1,0,0,0c0.2-0.1,0.3-0.1,0.5-0.1c0.2,0,0.3,0,0.3,0s-0.1-0.1-0.3-0.1c-0.4-0.1,0-0.3,0.7-0.5
	c0.3-0.1,0.5-0.2,0.4-0.2c-0.1-0.1,0.1-0.1,0.5,0c0.6,0.1,0.7,0,0.3-0.1c-0.5-0.1-0.5-0.4,0-0.5C61,8.2,61.1,8,61,7.6
	c0-0.1-0.3-0.2-0.7-0.2s-0.5,0-0.3-0.1C60.5,7.3,60.8,7,60.5,7c-0.1,0-0.3,0-0.4,0.1c-0.1,0.1-0.2,0.1-0.3,0.1c-0.1,0,0-0.1,0.1-0.2
	c0.2-0.1,0.4-0.1,0.9,0c0.6,0.2,0.6,0.2,0.7,0c0-0.1,0.1-0.1,0.2-0.1C61.8,7,61.9,7,62.1,7c0.2,0,0.2-0.1,0.2-0.1s-0.1-0.1,0.1-0.1
	c0.4,0,0.7,0,1.1-0.1c0.4-0.1,0.8-0.1,1.2,0c0.2,0,0.3,0,0.3,0s0.1-0.1,0.3,0c0.2,0,0.3,0,0.5,0c0.2-0.1,0.5-0.1,0.7-0.1
	c0.9,0,1.9-0.1,2.8-0.2C69.8,6.1,70.6,6,70.9,6c0.2,0,0.4,0,0.6-0.1c1-0.1,2-0.1,3,0c0.3,0,0.6,0,0.8,0c1.4-0.1,2.9,0,4.3,0.1
	C80,6,80.4,6,80.9,5.8c0.2-0.1,0.3-0.3,0.2-0.3c-1.9-0.2-3.8-0.3-5.7-0.3c-1.6,0-3.2-0.1-3.6-0.2C71.5,5,71.2,5,70.9,5
	c-0.1,0-0.7,0-1.4,0c-0.8,0-1.1-0.1-1.3-0.2s0-0.2,0.7-0.2c0.8,0,0.8,0,0.2-0.1c-0.5-0.1-0.3-0.1,2.2-0.1c1.5,0,2.8,0.1,2.8,0.1
	c0.3,0,0.6,0.1,0.8,0c2.1-0.1,5.3-0.1,6.4-0.1c0.4,0,0.8,0,1.1-0.1c-0.1,0,0.1-0.1,0.4-0.1c0.7,0,1.4,0,2-0.1
	c0.4-0.1,0.8-0.2,1.2-0.4c0.6-0.3,1.6-0.5,1.8-0.3c0.1,0.1,0.2,0.1,0.6,0c0.2-0.1,0.4-0.1,0.7,0c1.8,0.1,3.7,0.1,5.5,0
	c0.2,0,0.4,0,0.5,0c0.9,0.1,1.9,0.1,2.8,0c0.5,0,0.9,0,1.4,0c0.6,0.1,3.6,0.1,6.7,0.2s7.4,0.1,9.6,0.2c11.8,0.2,15.4,0.3,22.8,0.3
	c5.8,0,8.1,0.1,8,0.2s0.1,0.1,0.4,0c0.4-0.1,2.3-0.1,7.6,0c1.6,0,3.1,0,3.2,0l3.7-0.1c1.9,0,3.6,0,3.9,0c0.2,0,0.5,0,0.7,0
	c0.1,0,1.3-0.1,2.7-0.1s3.3,0,4.3-0.1c1,0,3.5-0.1,5.7-0.1s4.9,0,6.1,0s2.4,0,2.7,0.1c0.3,0,0.5,0.1,0.4,0c0.9-0.1,1.9-0.1,2.8-0.1
	c1.6,0,3.5,0,4.1-0.1c0.4-0.1,0.9-0.1,1.3,0c0.1,0.1,0.2,0.1,0.2,0c0.7-0.1,1.5-0.1,2.2-0.1c3,0,12.3,0.1,14.2,0.1
	c0.8,0,2.8,0,4.3,0c3.7,0,9.4,0,9.4,0c1.3,0.1,2.6,0.1,3.9-0.1c1.2-0.1,2.6-0.1,3.1,0c1,0.1,2.1,0.1,3.1,0.1c0.3-0.1,0.6-0.1,0.8,0
	c8.6,0.1,24.8,0,25.3-0.1c0.1,0,0.2,0,0.2,0c0.3,0.1,0.6,0.1,0.9,0c0.5,0,1,0,1.5,0c0.6,0.1,1.2,0.1,1.8,0.1c-0.1,0,2.3,0,5.2,0
	s5.3,0.1,5.3,0.1s0.9,0,1.9,0c0.6,0,1.3,0,1.9,0c0.4,0,0.7,0,1.1,0c0.4,0,0.8,0.1,1.2,0c0.1,0,1.4,0,2.9,0c0.9,0,1.9,0,2.8-0.1
	c0-0.1,0.1,0,0.2,0c1,0.1,1.9,0.1,2.9,0c0.2-0.1,0.2-0.1,0.2,0c0.4,0.1,0.8,0.1,1.1,0.1c0.6,0,1.5,0,1.9,0.1c0.4,0.1,0.9,0.1,1.3,0
	c0.6-0.1,1.8-0.1,8.5-0.2c1.7,0,4.5-0.1,6.1-0.1s5.5,0,8.4,0s5.9,0,6.6,0s4.4,0,8.3,0c9.1,0,16,0,18.7-0.1l5.7-0.2
	c1.9-0.1,5.2-0.1,7.2-0.2s4.3-0.1,5.1-0.1c2.5-0.1,5,0,7.1,0.1c1.3,0.1,5.2,0.1,11,0.2c4.9,0,9,0.1,9.2,0.1s5.3,0.1,11.6,0.2
	S423,4,424.3,4c7.6,0.2,13.3,0.3,25.9,0.3c1.8,0,3.7,0,4.3,0.1c1.3,0,7.2,0.2,12.7,0.3c12,0.2,16.4,0.3,24.5,0.4
	c4.9,0.1,9.4,0.1,10,0.2s2.2,0.1,3.5,0.1c2.5,0.1,5.3,0.2,5.7,0.2c0.1,0,1.1,0.1,2.3,0.1s2.9,0.1,3.9,0.2s2.2,0.1,2.8,0.1
	s2,0.1,3.4,0.3s2.8,0.2,3.1,0.2c0.2,0,0.4,0,0.6,0.1c0,0,0.2,0.1,0.4,0.1c2.1,0,7,0.2,7.8,0.3c0.5,0.1,1.1,0.2,1.6,0.4
	c1.4,0.4,2.8,0.6,4.2,0.7c2.1,0.1,5.8,0.2,6.6,0.2c0.4,0,0.8,0,0.8,0.1s0.1,0.1,0.2,0c0.3,0,0.6,0,0.8,0.1c0.3,0.1,1.5,0.3,2.7,0.5
	c1.4,0.2,2.8,0.4,4.2,0.4c2.3,0.1,2.7,0.1,2.4,0.5c-0.9,0.3-1.8,0.5-2.7,0.4c-0.3,0-0.6,0-0.9,0.1c-0.4,0.1-0.8,0.1-1.2,0.1
	c-1.4,0-2.8,0.1-4.2,0.3c0,0.2,2.3,0.4,4.6,0.5c1.2,0,4.1,0.1,6.4,0.1c4.6,0.1,5.1,0.1,5.3,0.3c0.3,0.3-4,1.2-7.5,1.6
	c-0.7,0-1.4,0.2-2.1,0.5c-0.7,0.4-0.4,0.5,1.4,0.9c0.4,0,0.9,0.2,1.3,0.4c0,0.1,0.2,0.2,0.4,0.3c0.7,0.2,0.5,0.4-0.5,0.6
	c-0.5,0.1-1.6,0.3-2.3,0.5c-0.9,0.3-1.9,0.4-2.9,0.4c-0.7,0-1.4,0-2,0.2c-0.3,0.1-0.5,0.2-0.4,0.3s0,0.1-0.2,0.1
	c-0.2,0-0.5,0.1-0.7,0.2c-0.2,0.1-0.3,0.2-0.1,0.1c0.3-0.1,1.1,0.2,0.9,0.3c-0.1,0.1,0,0.1,0.4,0c0.3,0,0,0-0.7,0.1
	c-0.7,0.1-1.5,0.2-2.2,0.2c-0.5,0-1.3,0-1.8,0.1c-0.6,0.1-0.8,0.1-0.8,0c0-0.1-0.1,0-0.3,0c-0.6,0.3,0,0.6,1.5,0.8
	c0.6,0.1,1.3,0.2,1.9,0.4c0.5,0.2,1.1,0.3,1.7,0.3c2.5,0.2,2.8,0.7,0.6,0.9c-1.3,0.1-2,0.4-1.6,0.7c0.2,0.2,0.2,0.2,0,0.2
	c-0.6,0-1.1,0.2-1.1,0.4s0,0.2-2.6,0.4c-0.6,0-1.1,0.1-1.7,0.3c-0.5,0.1-1.3,0.3-1.8,0.4s-0.9,0.2-0.9,0.3c-0.8,0.3-1.6,0.4-2.5,0.4
	c-1.5,0-2,0.1-2.1,0.4c-0.1,0.2,1.1,0.6,1.7,0.6c0.7,0.1,1.4,0.3,2.1,0.6c0,0.2-1.1,0.3-3.3,0.3c-1.2,0-2.8,0.1-3.7,0.1
	c-1.4,0.1-6.4,0.3-7.6,0.3c-0.5,0-0.7,0.3-0.2,0.3c0.1,0,0.1,0.1-0.1,0.2s-0.2,0.2-0.1,0.2c0.4,0.1,0.1,1.3-0.3,1.4
	c-0.6,0.1-1.2,0.1-1.8,0.1c-1.3,0-2.1,0.1-1.8,0.3c0.1,0-0.1,0.1-0.3,0.2s-0.4,0.1-0.4,0s-0.2,0-0.4,0c-0.3,0.1-0.5,0.1-0.8,0
	c-0.4-0.1-0.9-0.1-1.3,0c-1.6,0.2-1.1,0.5,1,0.6c2.4,0.1,2.9,0.2,2.5,0.3c-0.1,0-2.3,0-4.9,0c-5.5,0-6.1,0.1-6.6,0.7
	c-0.3,0.3-0.7,0.5-1.1,0.7c-0.7,0.3-1.2,0.7-1.3,0.9c-0.3,0.1-0.7,0.1-1.1,0.1c-0.7,0-1.1,0.1-1.2,0.2c-0.1,0.1-0.3,0.1-0.4,0.1
	c-0.1,0-0.3,0-0.3,0c-0.5,0.2-0.9,0.3-1.4,0.3c-2.2,0.4-2.5,0.7-0.9,0.8c0.7,0.1,0.8,0.2,0.2,0.5c-0.4,0.3,0.6,0.5,3.9,0.7
	c3.2,0.3,4.1,0.4,3.1,0.6c-0.6,0.1-4.7,0-11.3-0.4c-3-0.2-4.2-0.1-4.9,0.2s-1.4,0.4-3.4,0.5c-1.7,0-3.3,0.3-3.3,0.5
	c0.9,0.3,1.9,0.4,2.9,0.3c1.2,0,2.6,0.3,1.9,0.3c-0.3,0-0.6,0.1-0.9,0.2c-0.3,0.1-0.5,0.1-0.5,0.1c-0.8,0-1.5,0.2-2.3,0.4
	c-0.9,0.3-1.8,0.5-2.7,0.5c-1.2-0.1-2.5,0-3.7,0.1c0.6,0.3,1.2,0.5,1.9,0.5c0.2,0,0.2,0,0.1,0s-0.1,0.1,0.1,0.2s0.2,0.1,0.1,0.1
	s0,0.1,0.2,0.2c0.6,0.2,0,0.3-2.4,0.3c-1.2,0-2.8,0.1-3.5,0.1s-3.3,0.2-5.7,0.2s-5.1,0.2-6,0.3c-1,0.1-2.6,0.2-3.6,0.1
	c-1,0-2.9,0.1-4.1,0.2c-2.1,0.2-2.8,0.2-13,0c-5.9-0.1-11.9-0.2-13.3-0.2c-3.7-0.1-8.3-0.2-8.9-0.3c-0.3,0-3.9-0.1-8-0.2
	c-5.8-0.1-8.3-0.1-11.6,0c-2.3,0.1-6.5,0.1-9.3,0.1s-5.7,0-6.3,0c-2.1,0.1-9.4,0.1-13.7,0.2c-2.4,0-6.6,0-9.5,0.1s-8.7,0-12.9,0
	s-8.1,0-8.6,0s-4,0-7.7,0s-7.2,0-7.7,0c-0.9,0-3.3,0.1-11.5,0.1c-6.5,0.1-11.3,0.2-15.3,0.3c-1.7,0.1-3.7,0.1-4.3,0.1
	s-1.6,0-2.1,0.1s-1.8,0.1-2.8,0.1s-3.3,0.1-4.9,0.2s-3.8,0.2-4.8,0.2s-2.9,0.1-4.2,0.1s-3.1,0.1-4.2,0.1s-3.3,0.1-5.2,0.1
	s-4.5,0.1-5.8,0.1s-3.3,0.1-4.3,0.1s-3.5,0-5.5,0c-2.1,0-4.8,0-6.1,0.1c-2.5,0.1-7.8,0.1-12,0.1c-1.4,0-3.2,0-4,0.1s-6,0.1-11.7,0
	s-10.6,0-10.9,0s-3.3,0-6.6,0.1s-6.6,0-7.5,0s-4,0-6.9,0s-6.5,0-8,0.1s-2.7,0-2.9,0s-2.3,0-4.8,0s-5.8,0.1-7.5,0.1s-3.6,0-4.1,0.1
	s-2.9,0-5.2,0.1s-4.2,0-4.3,0.1s-1.9,0-4,0.1s-4.1,0-4.5,0.1c-0.6,0-22.4,0-31.8-0.1C108.6,43.1,104,43,101.1,43L101.1,43z
	 M38.9,31.4c0.2,0,0-0.1-0.3-0.2c-0.9-0.2-1.8-0.3-2.7-0.2c-0.8,0-1.5,0-2.3,0.1c1.2,0.3,2.4,0.4,3.6,0.3L38.9,31.4z M46.5,26.5
	c0,0-0.1,0-0.3,0s-0.3,0-0.3,0.1s0.1,0.1,0.3,0C46.3,26.6,46.4,26.6,46.5,26.5L46.5,26.5z M31.1,23.8c-0.2-0.1-0.3-0.1-0.5-0.1
	c-0.3,0-0.4,0-0.3,0C30.5,23.8,31.1,23.8,31.1,23.8L31.1,23.8z M34.8,20.9c-0.3-0.1-0.3-0.1-0.2,0c0.1,0.1,0.2,0.1,0.4,0.1
	C35.1,21.1,35,21,34.8,20.9L34.8,20.9z M37.3,19.9c-0.3-0.1-0.3-0.1-0.2,0c0.1,0.1,0.2,0.1,0.4,0.1C37.6,20,37.5,19.9,37.3,19.9
	L37.3,19.9z M35,19.3c-0.1-0.1-0.2-0.1-0.3-0.1c-0.1,0-0.1,0-0.1,0.1s0.1,0.1,0.3,0.1S35.1,19.4,35,19.3L35,19.3z M47.6,15.1
	c-0.2,0-0.4,0-0.6,0c-0.1,0,0.1,0.1,0.4,0C47.8,15.2,47.8,15.2,47.6,15.1L47.6,15.1z M47.6,14.9c-0.4-0.1-0.8-0.3-1.2-0.6
	c0,0,0.2,0,0.5,0.1c0.6,0.2,1,0,0.5-0.1c-0.4-0.2-1.2,0-1.2,0.2c0,0.1-0.1,0.1-0.3,0.1c-0.1,0-0.2,0-0.3,0.1c0,0.1,0.1,0.2,0.5,0.2
	c0.3,0,0.6,0,0.6,0.1s0.3,0.1,0.7,0.1C47.9,15,47.9,15,47.6,14.9L47.6,14.9z M45.7,14.7c0.1-0.1,0.2-0.1,0.3-0.1c0.2,0,0.3,0,0.3,0
	s-0.1,0.1-0.3,0.1S45.7,14.7,45.7,14.7L45.7,14.7z M51.3,12.9c0-0.1,0-0.2-0.1-0.1c-0.1,0.1-0.3,0.1-0.4,0.1c-0.2,0-0.2,0-0.1,0.1
	C50.9,13.1,51.3,13.1,51.3,12.9L51.3,12.9z M49.7,12.8c0.3-0.2,0-0.2-0.5,0c-0.2,0.1-0.3,0.1-0.1,0.1C49.4,12.9,49.6,12.9,49.7,12.8
	L49.7,12.8z M60,9.8c-0.1-0.1-0.3-0.1-0.5-0.1c-0.3,0-0.5,0-0.5,0s0.2,0.1,0.5,0.1C59.7,9.8,59.8,9.8,60,9.8z M8.2,33.3
	c0,0,0.1-0.1,0.3-0.1s0.3,0,0.3,0.1s-0.2,0.1-0.3,0.1S8.2,33.4,8.2,33.3z M21.3,26c0.2-0.1,0.5-0.1,0.7,0c0.2,0,0.1,0.1-0.3,0.1
	C21.2,26.1,21.1,26.1,21.3,26z M25.7,26.1C25.4,26,25.4,26,25.6,26c0.4,0,0.8,0,1.2-0.1c0.2,0,0.4,0,0.6,0c0.1,0.1,0.1,0.1-0.1,0
	s-0.4,0-0.4,0.1C26.9,26.2,26.4,26.2,25.7,26.1L25.7,26.1z M24.1,25.9c0.2-0.1,0.4-0.1,0.7,0c0.2,0.1,0.1,0.1-0.4,0.1
	C23.9,26,23.9,26,24.1,25.9L24.1,25.9z M32,24.6c0-0.1,0.1-0.1,0.3-0.1s0.3,0.1,0.3,0.1s-0.1,0.1-0.3,0.1S32,24.6,32,24.6L32,24.6z
	 M32.4,23.1c0.5-0.3,0.6-0.3,0.5-0.1c0,0.1-0.2,0.2-0.5,0.2C32.2,23.2,32.1,23.2,32.4,23.1L32.4,23.1z M34.6,19.8
	c-0.3,0-0.1-0.1,0.5-0.1c1-0.1,1.2,0,0.5,0.1C35.2,19.8,34.9,19.8,34.6,19.8L34.6,19.8z M41.3,13.8c0.2,0,0.4,0,0.6,0
	c0.2,0,0.2,0.1-0.2,0.1C41.4,13.8,41.2,13.8,41.3,13.8L41.3,13.8z M42.2,13.4c0.2,0,0.4,0,0.6,0c0.2,0,0.2,0.1-0.2,0.1
	C42.3,13.5,42.1,13.4,42.2,13.4L42.2,13.4z M47.8,12.3c0-0.1,0.1-0.1,0.2-0.1s0.1,0.1,0,0.2S47.8,12.4,47.8,12.3L47.8,12.3z
	 M58.9,7.4C58.7,7.3,58.6,7.3,58.9,7.4c0.1-0.1,0.3-0.1,0.5,0C59.6,7.5,59.5,7.5,58.9,7.4L58.9,7.4z"/>
</svg>
