<svg xmlns="http://www.w3.org/2000/svg" width="177.188" height="139.287" viewBox="0 0 177.188 139.287">
  <g id="Group_159" data-name="Group 159" transform="translate(-394.674 -3132.737)">
    <ellipse id="Ellipse_286" data-name="Ellipse 286" cx="34.596" cy="4.693" rx="34.596" ry="4.693" transform="translate(480.202 3262.397)" fill="#fff" opacity="0.1"/>
    <ellipse id="Ellipse_287" data-name="Ellipse 287" cx="14.583" cy="1.979" rx="14.583" ry="1.979" transform="translate(542.696 3254.937)" fill="#fff" opacity="0.1"/>
    <ellipse id="Ellipse_289" data-name="Ellipse 289" cx="14.583" cy="1.979" rx="14.583" ry="1.979" transform="translate(436.506 3262.848)" fill="#fff" opacity="0.1"/>
    <ellipse id="Ellipse_290" data-name="Ellipse 290" cx="14.583" cy="1.979" rx="14.583" ry="1.979" transform="translate(411.192 3254.067)" fill="#fff" opacity="0.1"/>
    <path id="Path_459" data-name="Path 459" d="M109.49,8.65v94.019H218.663V8.65Z" transform="translate(285.184 3124.087)" fill="#444"/>
    <rect id="Rectangle_656" data-name="Rectangle 656" width="107.599" height="3.584" transform="translate(395.461 3133.561)" fill="#444"/>
    <rect id="Rectangle_657" data-name="Rectangle 657" width="107.599" height="3.584" transform="translate(395.461 3133.561)" fill="#444"/>
    <rect id="Rectangle_658" data-name="Rectangle 658" width="107.599" height="88.785" transform="translate(395.461 3137.145)" fill="#242424"/>
    <ellipse id="Ellipse_291" data-name="Ellipse 291" cx="0.806" cy="0.608" rx="0.806" ry="0.608" transform="translate(396.975 3134.746)" fill="#00a9b1"/>
    <ellipse id="Ellipse_292" data-name="Ellipse 292" cx="0.806" cy="0.608" rx="0.806" ry="0.608" transform="translate(399.16 3134.746)" fill="#00a9b1"/>
    <ellipse id="Ellipse_293" data-name="Ellipse 293" cx="0.806" cy="0.608" rx="0.806" ry="0.608" transform="translate(401.344 3134.746)" fill="#00a9b1"/>
    <g id="Group_93" data-name="Group 93" transform="translate(420.921 3142.62)" opacity="0.2">
      <rect id="Rectangle_659" data-name="Rectangle 659" width="56.682" height="1.673" transform="translate(0 0)" fill="#00a9b1"/>
    </g>
    <rect id="Rectangle_660" data-name="Rectangle 660" width="7.531" height="1.673" transform="translate(470.072 3142.62)" fill="#00a9b1"/>
    <path id="Path_460" data-name="Path 460" d="M561.473,451.818Z" transform="translate(-90.612 2752.743)" fill="#444"/>
    <path id="Path_461" data-name="Path 461" d="M540.372,461.281l-.828.559c0-.391,1.455-1.945,1.455-1.945-.377-.212-1.71.828-1.71.828.157-.681,1.335-1.5,1.335-1.5a4.533,4.533,0,0,0-1.011.407,6.457,6.457,0,0,1,1.522-1.537c-.152-.1-1.049.29-1.091.308a10.207,10.207,0,0,0,1.415-1.112,10.559,10.559,0,0,0-1.263.2c-.088-.4,1.768-2.283,1.768-2.283s.232-.327.149-.24a7.065,7.065,0,0,1-.944.385c.012-.589,1.807-1.5,1.807-1.5l-.817-.032.531-.578c-.025.019-.866.665-.884.476s.792-.95.965-1.061a1.538,1.538,0,0,1,.707-.021s-.233-.674-.278-.771c.129.106,1.961.884,1.961.884l.159.032a10.946,10.946,0,0,1,1.768.442,8.2,8.2,0,0,0,1.57.391l.354.067-1.287,8.154h-.354c-.21,0-.419-.018-.628-.035q-.493-.044-.981-.134c-.654-.122-1.514-.285-2.177-.414-.41-.08-.745-.148-.909-.186-.656-.154-1.475.354-1.662.354a7.978,7.978,0,0,0-1.316.939A5.815,5.815,0,0,1,540.372,461.281Z" transform="translate(-72.354 2752.704)" fill="#444"/>
    <g id="Group_94" data-name="Group 94" transform="translate(468.012 3213.24)" opacity="0.1">
      <path id="Path_462" data-name="Path 462" d="M545.37,501.657c.014,0,1.287-.522,1.712-.688s5.515.2,5.731.216v.032c-.053,0-5.294-.382-5.717-.216s-1.7.681-1.71.686Z" transform="translate(-545.37 -500.926)" fill="#444"/>
    </g>
    <path id="Path_463" data-name="Path 463" d="M561.473,451.818Z" transform="translate(-90.612 2752.743)" fill="#444"/>
    <g id="Group_95" data-name="Group 95" transform="translate(469.449 3205.56)" opacity="0.1">
      <path id="Path_464" data-name="Path 464" d="M553.5,458.337a9.894,9.894,0,0,1,1.082-.764,2.277,2.277,0,0,1,1.271.037,2.857,2.857,0,0,0,.368.06,16.032,16.032,0,0,1,1.7.41c.014,0,1.514.354,1.7.343a5.726,5.726,0,0,1,.884.161v.034a5.8,5.8,0,0,0-.884-.163c-.194.012-1.652-.329-1.713-.343-.014,0-1.438-.408-1.687-.41a2.441,2.441,0,0,1-.373-.06,2.32,2.32,0,0,0-1.25-.041,10.456,10.456,0,0,0-1.079.76Z" transform="translate(-553.5 -457.492)" fill="#444"/>
    </g>
    <g id="Group_96" data-name="Group 96" transform="translate(469.748 3206.335)" opacity="0.1">
      <path id="Path_465" data-name="Path 465" d="M555.19,462.036a5.382,5.382,0,0,1,1.768-.141c.136.053,1.859.221,1.945.217.028,0,2.263.431,2.948.566v.032c-.994-.195-2.889-.561-2.941-.564-.009,0-1.8-.159-1.961-.221a5.8,5.8,0,0,0-1.729.133Z" transform="translate(-555.19 -461.874)" fill="#444"/>
    </g>
    <g id="Group_97" data-name="Group 97" transform="translate(468.795 3207.023)" opacity="0.1">
      <path id="Path_466" data-name="Path 466" d="M549.8,466.788c.461-.785,3.066-1.019,3.091-1.02.278-.023,4.244.729,4.407.76v.032c-.041,0-4.124-.783-4.4-.759-.725.062-2.69.362-3.064,1Z" transform="translate(-549.8 -465.767)" fill="#444"/>
    </g>
    <g id="Group_98" data-name="Group 98" transform="translate(468.618 3208.186)" opacity="0.1">
      <path id="Path_467" data-name="Path 467" d="M548.8,473.111c.736-.826,3.07-.769,3.093-.767.177,0,4.145.594,4.313.619v.032c-.041,0-4.136-.61-4.309-.617-.023,0-2.339-.058-3.064.755Z" transform="translate(-548.8 -472.342)" fill="#444"/>
    </g>
    <g id="Group_99" data-name="Group 99" transform="translate(467.911 3208.61)" opacity="0.1">
      <path id="Path_468" data-name="Path 468" d="M544.812,476c.276-.515,1.05-.884,2.3-1.095a12.857,12.857,0,0,1,1.834-.164l4.042.462v.034l-4.039-.461c-.034,0-3.5.026-4.118,1.266l-.03-.014Z" transform="translate(-544.8 -474.74)" fill="#444"/>
    </g>
    <g id="Group_100" data-name="Group 100" transform="translate(467.824 3209.327)" opacity="0.1">
      <path id="Path_469" data-name="Path 469" d="M544.31,479.647a6.036,6.036,0,0,1,2.628-.847c.681-.081,5.192.631,5.384.661v.032c-.048,0-4.7-.741-5.376-.661a6.177,6.177,0,0,0-2.606.836Z" transform="translate(-544.31 -478.793)" fill="#444"/>
    </g>
    <g id="Group_101" data-name="Group 101" transform="translate(468.71 3209.993)" opacity="0.1">
      <path id="Path_470" data-name="Path 470" d="M549.32,482.906l1.71-.283a4.566,4.566,0,0,1,1.326-.025l1.9.244,2.085.394v.032l-2.087-.394-1.9-.235a4.567,4.567,0,0,0-1.317.023l-1.71.285Z" transform="translate(-549.32 -482.562)" fill="#444"/>
    </g>
    <g id="Group_102" data-name="Group 102" transform="translate(467.248 3210.961)" opacity="0.1">
      <path id="Path_471" data-name="Path 471" d="M541.082,489.32c.354-.658,1.927-.985,2.79-1.165.177-.037.327-.067.412-.092.488-.136,5.043.322,5.236.341v.034c-.048,0-4.742-.477-5.223-.343-.087.025-.232.055-.414.092-.826.177-2.546.53-2.8,1.224l-.032-.011a.53.53,0,0,1,.032-.08Z" transform="translate(-541.05 -488.037)" fill="#444"/>
    </g>
    <g id="Group_103" data-name="Group 103" transform="translate(468.231 3211.418)" opacity="0.1">
      <path id="Path_472" data-name="Path 472" d="M546.61,491.135s.87-.274,1.061-.364,2.449-.147,2.545-.15l3.867.244v.034l-3.867-.244c-.021,0-2.336.057-2.53.145s-1.036.354-1.072.368Z" transform="translate(-546.61 -490.62)" fill="#444"/>
    </g>
    <g id="Group_104" data-name="Group 104" transform="translate(466.922 3211.78)" opacity="0.1">
      <path id="Path_473" data-name="Path 473" d="M539.21,494.3c.851-1.2,4.09-1.659,4.38-1.637l4.355.279v.032c-.041,0-4.067-.258-4.354-.279s-3.508.44-4.35,1.623Z" transform="translate(-539.21 -492.666)" fill="#444"/>
    </g>
    <g id="Group_105" data-name="Group 105" transform="translate(467.177 3212.551)" opacity="0.1">
      <path id="Path_474" data-name="Path 474" d="M540.749,498.77c.767-1.432,4.067-1.754,4.369-1.742l3.851.177v.032l-3.851-.177c-.32-.014-3.943.341-4.437,1.963l-.032-.009a1.422,1.422,0,0,1,.1-.244Z" transform="translate(-540.65 -497.028)" fill="#444"/>
    </g>
    <g id="Group_106" data-name="Group 106" transform="translate(475.019 3206.304)" opacity="0.1">
      <path id="Path_475" data-name="Path 475" d="M585,469.926l1.3-8.226.354.067-1.3,8.162C585.232,469.93,585.111,469.93,585,469.926Z" transform="translate(-585 -461.7)" fill="#444"/>
    </g>
    <path id="Path_476" data-name="Path 476" d="M585.39,469.323l1.36-8.573,1.667.53,1.22.389s.852-.177,1.125.444-.6,2.433-.177,2.829,3.961.707,3.961.707,5.146,1.37,5.683,1.452a29.1,29.1,0,0,1,3.482,1.8c.161.4-1.816.423-2.258.543a21.767,21.767,0,0,1-4.935-.916,42.774,42.774,0,0,0-4.2-1.3,2.859,2.859,0,0,0-2.076-.38,9.743,9.743,0,0,1-.61,2.476.672.672,0,0,1-.707.384l-1.906-.15Z" transform="translate(-110.302 2745.386)" fill="#444"/>
    <g id="Group_107" data-name="Group 107" transform="translate(475.088 3206.136)" opacity="0.1">
      <path id="Path_477" data-name="Path 477" d="M585.39,469.323l1.36-8.573,1.667.53c-.267.829-1.858,6.056-1.4,8.268Z" transform="translate(-585.39 -460.75)" fill="#444"/>
    </g>
    <path id="Path_478" data-name="Path 478" d="M540.372,461.281l-.828.559c0-.391,1.455-1.945,1.455-1.945-.377-.212-1.71.828-1.71.828.157-.681,1.335-1.5,1.335-1.5a4.533,4.533,0,0,0-1.011.407,6.457,6.457,0,0,1,1.522-1.537c-.152-.1-1.049.29-1.091.308a10.207,10.207,0,0,0,1.415-1.112,10.559,10.559,0,0,0-1.263.2c-.088-.4,1.768-2.283,1.768-2.283s.232-.327.149-.24a7.065,7.065,0,0,1-.944.385c.012-.589,1.807-1.5,1.807-1.5l-.817-.032.531-.578c-.025.019-.866.665-.884.476s.792-.95.965-1.061a1.538,1.538,0,0,1,.707-.021s-.233-.674-.278-.771c.129.106,1.961.884,1.961.884l.159.03c-.177.134-.339.256-.447.354a1.3,1.3,0,0,0-.391.477.969.969,0,0,0,.122.8c.136.242.324.453.458.7a.471.471,0,0,1,.074.343.591.591,0,0,1-.232.267,4.486,4.486,0,0,0-1.471,2.034.548.548,0,0,0-.044.247.826.826,0,0,0,.145.309,1.116,1.116,0,0,1-.143,1.286c-.145.159-.354.3-.364.513a.69.69,0,0,0,.106.34q.218.4.432.815c-.41-.08-.744-.149-.909-.186-.656-.154-1.475.354-1.662.354a7.978,7.978,0,0,0-1.316.937A7,7,0,0,1,540.372,461.281Z" transform="translate(-72.354 2752.704)" fill="#00a9b1"/>
    <path id="Path_479" data-name="Path 479" d="M702.23,696.6l.783,3.139s17.591,5.687,23.293.354-.628-15.7-.628-15.7l-3.862-3.968L711.63,679.24h-3.605Z" transform="translate(-206.481 2565.531)" fill="#444"/>
    <g id="Group_108" data-name="Group 108" transform="translate(495.749 3244.771)" opacity="0.03">
      <path id="Path_480" data-name="Path 480" d="M702.23,696.6l.783,3.139s17.591,5.687,23.293.354-.628-15.7-.628-15.7l-3.862-3.968L711.63,679.24h-3.605Z" transform="translate(-702.23 -679.24)" fill="#444"/>
    </g>
    <path id="Path_481" data-name="Path 481" d="M797.718,597.346l-1.69,1.931-5.846,10.458-1.989,3.673s-1.5,1.871-1.354,2.652.571,6.59-4.491,7.063-16.036-11.375-16.036-11.375l.447-.3,9.8-6.629,3.519-3.788.941-1.011s4.583-6.161,4.461-7.108,4.582-6.635,7.294-6.458,4.762.177,5.726,3.614S797.718,597.346,797.718,597.346Z" transform="translate(-259.23 2641.916)" fill="#444"/>
    <rect id="Rectangle_661" data-name="Rectangle 661" width="18.581" height="13.817" transform="translate(503.42 3199.259)" fill="#444"/>
    <g id="Group_109" data-name="Group 109" transform="translate(503.42 3199.259)" opacity="0.1">
      <rect id="Rectangle_662" data-name="Rectangle 662" width="18.581" height="13.817" transform="translate(0 0)" fill="#444"/>
    </g>
    <path id="Path_482" data-name="Path 482" d="M678.077,569.828c0,.253-.023.6-.06.99-.14,1.521-.483,3.713-.483,3.713a26.887,26.887,0,0,0-.543,4.175,10.311,10.311,0,0,1-.423,3.453c-.246.566-1.687,0-1.687,0l-4.774-12.594-.263-.695-.1-.274.11-.421.387-1.526S678.077,568.6,678.077,569.828Z" transform="translate(-179.736 2658.212)" fill="#444"/>
    <path id="Path_483" data-name="Path 483" d="M747.643,457.584v1.991l-1.448,6.955-3.133,4.131-6.932.884-6.631-2.559s-4.4-6.978.723-10.9a9.67,9.67,0,0,0,2.935-3.669,11.748,11.748,0,0,0,1.015-4.716,10.783,10.783,0,0,0-.152-2.087s10.85-4.916,9.1,0a5.482,5.482,0,0,0-.246,2.644,8.143,8.143,0,0,0,.868,2.592A16.954,16.954,0,0,0,747.643,457.584Z" transform="translate(-227.481 2758.002)" fill="#444"/>
    <g id="Group_110" data-name="Group 110" transform="translate(506.539 3203.425)" opacity="0.1">
      <path id="Path_484" data-name="Path 484" d="M772.351,447.6a5.482,5.482,0,0,0-.246,2.644,7.4,7.4,0,0,1-8.7-.557,10.789,10.789,0,0,0-.152-2.087S774.1,442.691,772.351,447.6Z" transform="translate(-763.25 -445.417)" fill="#444"/>
    </g>
    <ellipse id="Ellipse_294" data-name="Ellipse 294" cx="7.294" cy="7.169" rx="7.294" ry="7.169" transform="translate(504.127 3194.713)" fill="#444"/>
    <g id="Group_111" data-name="Group 111" transform="translate(500.26 3210.841)" opacity="0.1">
      <path id="Path_485" data-name="Path 485" d="M747.643,492.1V494.1l-1.448,6.955-3.133,4.131-6.932.884-6.631-2.559s-4.4-6.978.723-10.9a9.67,9.67,0,0,0,2.935-3.669c-4.007,15.073,4.532,14.291,4.532,14.291,7.812,0,6.24-14.323,6.051-15.863A16.976,16.976,0,0,0,747.643,492.1Z" transform="translate(-727.741 -487.36)" fill="#444"/>
    </g>
    <g id="Group_112" data-name="Group 112" transform="translate(492.141 3211.42)" opacity="0.1">
      <path id="Path_486" data-name="Path 486" d="M716.481,501.53c-.3,1.008-1.026,4.679-1.026,4.679s-.2.08-.53.226c-1.238.564-4.3,2.122-4.525,4.067a.7.7,0,0,0-.011.087c-.177,2.488-2.41,7.761-3.554,10.13s.543,4.918.543,4.918l-2.3.53a18.711,18.711,0,0,1-5.89-.23c-2.7-.654-2.352,1.061-4.039.474s-7.234-1.008-8.134-1.54-1.687-5.271-1.206-5.865S687.8,505.92,687.8,505.92s-6.088-5.57-5.968-9.184,4.521-3.789,4.521-3.789,1.692-.584,3.126-1.19c.278-.117.548-.237.792-.354,1.19-.561,3.869-.317,4.951-.187.283.035.456.06.456.06-.156.531-.3,1.05-.423,1.547-2.46,9.706.428,12.608,2.629,13.464a4.951,4.951,0,0,0,2.011.34c2.769,0,4.359-1.8,5.25-4.194,1.768-4.741.782-11.8.782-11.8a72.529,72.529,0,0,1,9.223,4.5C718.767,497.385,716.783,500.522,716.481,501.53Z" transform="translate(-681.83 -490.63)" fill="#444"/>
    </g>
    <path id="Path_487" data-name="Path 487" d="M716.481,499.52c-.3,1.008-1.026,4.679-1.026,4.679s-.2.08-.53.226c-1.238.564-4.3,2.122-4.525,4.067a.7.7,0,0,0-.011.087c-.177,2.488-2.41,7.761-3.554,10.13s.543,4.918.543,4.918l-2.3.53a18.649,18.649,0,0,1-5.89-.23c-2.7-.656-2.352,1.061-4.039.474s-7.234-1.008-8.134-1.54-1.687-5.271-1.206-5.865S687.8,503.91,687.8,503.91s-6.088-5.57-5.968-9.184,4.521-3.789,4.521-3.789,1.692-.584,3.126-1.19c.278-.117.548-.237.792-.354,1.19-.561,3.869-.317,4.951-.187.283.035.456.06.456.06-.156.531-.3,1.05-.423,1.547-2.46,9.706.428,12.608,2.629,13.464a4.951,4.951,0,0,0,2.011.34c2.769,0,4.359-1.8,5.25-4.194,1.768-4.741.782-11.8.782-11.8a72.526,72.526,0,0,1,9.223,4.5C718.767,495.375,716.783,498.512,716.481,499.52Z" transform="translate(-189.689 2722.444)" fill="#444"/>
    <g id="Group_113" data-name="Group 113" transform="translate(490.005 3224.862)" opacity="0.1">
      <path id="Path_488" data-name="Path 488" d="M678.086,569.828v1.061l-.06-.074c-2.544-3.169-6.666-1.768-7.908-1.248-.235.1-.368.166-.368.166s.071-.407.1-.861a4.819,4.819,0,0,0,0-.695l.387-1.526S678.086,568.6,678.086,569.828Z" transform="translate(-669.75 -566.65)" fill="#444"/>
    </g>
    <path id="Path_489" data-name="Path 489" d="M673.745,521.11l-1.57,2.016s-2.652,6.338-2.408,6.811a5.025,5.025,0,0,1-.016,1.956s5.321-2.72,8.334,1.158v-1.988s.3-.829.423-1.061a11.866,11.866,0,0,0,0-2.074Z" transform="translate(-179.745 2695.699)" fill="#444"/>
    <path id="Path_490" data-name="Path 490" d="M652.546,519.634a.942.942,0,0,1-.062.2c-.769,1.717-6.527-.79-6.527-.79s-.048-.237-.124-.621c-.3-1.544-1.027-5.492-.64-6.251a14.39,14.39,0,0,0,.53-3.91c1.613-2.843.8-8.59.8-8.59a2.053,2.053,0,0,0-.421-2.369s-10.008-5.807-3.135-6.576,8.2,7.4,7.657,8.295.421,8.1.421,8.1l.964,5.582S652.962,517.538,652.546,519.634Z" transform="translate(-155.714 2720.755)" fill="#444"/>
    <path id="Path_491" data-name="Path 491" d="M809.695,743.628l-1.789-.088-6.958-.336-.009-.217-.149-3.535,5.284-2.658.007,0,.067.048.136.094.147.1,3.018,2.117Z" transform="translate(-283.875 2524.702)" fill="#444"/>
    <g id="Group_114" data-name="Group 114" transform="translate(516.915 3261.496)" opacity="0.1">
      <path id="Path_492" data-name="Path 492" d="M806.448,737.031l-.018.019L800.938,743l-.149-3.535,5.284-2.658.074.044Z" transform="translate(-800.79 -736.81)" fill="#444"/>
    </g>
    <g id="Group_115" data-name="Group 115" transform="translate(490.119 3238.908)" opacity="0.1">
      <path id="Path_493" data-name="Path 493" d="M677.041,647.758c-.769,1.717-6.527-.79-6.527-.79s-.048-.237-.124-.621a4.618,4.618,0,0,1,3.036-.03A14.728,14.728,0,0,1,677.041,647.758Z" transform="translate(-670.39 -646.08)" fill="#444"/>
    </g>
    <path id="Path_494" data-name="Path 494" d="M658.7,674.1s-3.376-1.659-3.556-2.546a20.963,20.963,0,0,0-1.568-4.267,44.506,44.506,0,0,1-3.616-6.338c-.61-1.717-2.412-6.576-1.086-8.413s2.109-5.39,6.451-4.2,5.183,2.783,5.183,2.783l.476,1.008s10.5,9.586,10.677,9.888,5.788,4.447,5.788,4.447l6.932,4.088-5.848,6.339s-7.414-2.843-7.655-4.028S668.6,670.6,668.6,670.6l-2.787-1.061Z" transform="translate(-162.168 2591.172)" fill="#444"/>
    <g id="Group_116" data-name="Group 116" transform="translate(488.863 3241.481)" opacity="0.1">
      <path id="Path_495" data-name="Path 495" d="M663.9,670.264s1.266,1.238,1.266,1.719,1.747,1.3,1.747,1.3,13.865,8.465,15.494,8.438l2.9,2.877,4.083-8.311-5.112-3.957L673.6,662.918a11.818,11.818,0,0,0-3.068-1.482c-1.086-.179-6.631-2.665-7.112,2.132S663.9,670.264,663.9,670.264Z" transform="translate(-663.288 -660.634)" fill="#444"/>
    </g>
    <g id="Group_117" data-name="Group 117" transform="translate(488.508 3241.836)" opacity="0.1">
      <path id="Path_496" data-name="Path 496" d="M661.89,672.274s1.266,1.238,1.266,1.719,1.745,1.3,1.745,1.3,13.867,8.465,15.494,8.438l2.9,2.877,4.085-8.311-5.1-3.957L671.6,664.928a11.83,11.83,0,0,0-3.066-1.482c-1.084-.179-6.631-2.665-7.114,2.133S661.89,672.274,661.89,672.274Z" transform="translate(-661.28 -662.644)" fill="#444"/>
    </g>
    <path id="Path_497" data-name="Path 497" d="M661.854,670.264s1.266,1.238,1.266,1.719,1.745,1.3,1.745,1.3,13.867,8.465,15.494,8.438l2.9,2.877,4.085-8.311-5.105-3.957-10.677-9.414a11.83,11.83,0,0,0-3.066-1.482c-1.084-.179-6.64-2.665-7.123,2.132S661.854,670.264,661.854,670.264Z" transform="translate(-172.736 2580.847)" fill="#444"/>
    <path id="Path_498" data-name="Path 498" d="M661.854,670.264s1.266,1.238,1.266,1.719,1.745,1.3,1.745,1.3,13.867,8.465,15.494,8.438l2.9,2.877,4.085-8.311-5.105-3.957-10.677-9.414a11.83,11.83,0,0,0-3.066-1.482c-1.084-.179-6.64-2.665-7.123,2.132S661.854,670.264,661.854,670.264Z" transform="translate(-172.736 2580.847)" fill="#444"/>
    <g id="Group_118" data-name="Group 118" transform="translate(490.444 3254.725)" opacity="0.1">
      <path id="Path_499" data-name="Path 499" d="M672.23,735.53s3.643,5.934,5.618,6.461S672.23,735.53,672.23,735.53Z" transform="translate(-672.23 -735.53)" fill="#444"/>
    </g>
    <path id="Path_500" data-name="Path 500" d="M783.322,707.65l-.548,3.041-.5,2.792-.216,1.2-4.746-1.48.484-2.6.027-.145.317-1.7Z" transform="translate(-264.547 2548.689)" fill="#444"/>
    <g id="Group_119" data-name="Group 119" transform="translate(512.763 3258.844)" opacity="0.1">
      <path id="Path_501" data-name="Path 501" d="M803.412,762.154l-.216,1.2-4.746-1.48.484-2.6c.695-.884,2.522-.177,2.522-.177,2.537-.3,1.68,2.606,1.68,2.606A.971.971,0,0,1,803.412,762.154Z" transform="translate(-798.45 -758.825)" fill="#444"/>
    </g>
    <path id="Path_502" data-name="Path 502" d="M784.385,772.865c-1.264-1.125-5.848-1.655-7.354-1.655s-.9-.472-.9-.472l-1-.707c-.681-.486-.368-1.634-.1-2.313.125-.317.239-.531.239-.531a22.17,22.17,0,0,1,.755-3.616c.377-.831,3.128-2.087,3.128-2.087-.233-2.5,2.773-1.353,2.773-1.353,2.537-.3,1.68,2.608,1.68,2.608.483.354.6,2.249.483,2.9a11.3,11.3,0,0,0,.421,2.725s.508,1.874.815,2.969c.06.21.111.394.15.531C785.711,772.687,784.385,772.865,784.385,772.865Z" transform="translate(-266.153 2499.158)" fill="#444"/>
    <g id="Group_120" data-name="Group 120" transform="translate(508.567 3266.876)" opacity="0.1">
      <path id="Path_503" data-name="Path 503" d="M784.385,809.4c-1.264-1.125-5.848-1.655-7.354-1.655s-.9-.472-.9-.472l-1-.707c-.681-.486-.368-1.634-.1-2.313l1.349,1.185s-.385.3,0,.3h1.576a46.791,46.791,0,0,1,7.363,2.14c.06.21.111.394.15.531C785.711,809.219,784.385,809.4,784.385,809.4Z" transform="translate(-774.72 -804.25)" fill="#444"/>
    </g>
    <g id="Group_121" data-name="Group 121" transform="translate(512.521 3261.492)" opacity="0.1">
      <ellipse id="Ellipse_295" data-name="Ellipse 295" cx="0.242" cy="0.239" rx="0.242" ry="0.239" transform="translate(0 0)" fill="#444"/>
    </g>
    <g id="Group_122" data-name="Group 122" transform="translate(513.005 3263.374)" opacity="0.1">
      <ellipse id="Ellipse_296" data-name="Ellipse 296" cx="0.242" cy="0.239" rx="0.242" ry="0.239" transform="translate(0)" fill="#444"/>
    </g>
    <g id="Group_123" data-name="Group 123" transform="translate(512.875 3262.675)" opacity="0.1">
      <ellipse id="Ellipse_297" data-name="Ellipse 297" cx="0.242" cy="0.239" rx="0.242" ry="0.239" transform="translate(0 0)" fill="#444"/>
    </g>
    <g id="Group_124" data-name="Group 124" transform="translate(513.005 3264.313)" opacity="0.1">
      <ellipse id="Ellipse_298" data-name="Ellipse 298" cx="0.242" cy="0.239" rx="0.242" ry="0.239" transform="translate(0 0)" fill="#444"/>
    </g>
    <g id="Group_125" data-name="Group 125" transform="translate(511.84 3265.285)" opacity="0.1">
      <ellipse id="Ellipse_299" data-name="Ellipse 299" cx="0.242" cy="0.239" rx="0.242" ry="0.239" transform="translate(0 0)" fill="#444"/>
    </g>
    <g id="Group_126" data-name="Group 126" transform="translate(522.405 3261.639)" opacity="0.1">
      <path id="Path_504" data-name="Path 504" d="M856.391,781.319l-1.79-.081a.621.621,0,0,1,0-.336s1.312-1.238-.859-3.593c0,0,.125-.554.628-.412,0,0-1.192-1.97-1.372-2.171a.157.157,0,0,1-.021-.1l.147.1,3.019,2.122Z" transform="translate(-852.976 -774.63)" fill="#444"/>
    </g>
    <path id="Path_505" data-name="Path 505" d="M873.493,765.155a3.763,3.763,0,0,1-.465,1.945,3.877,3.877,0,0,1-.847,1.075h-.016a13.316,13.316,0,0,1-5.572.988c-2.465-.094-5.588-.085-6.64.465,0,0-3.641,1-3.278-.423,0,0,1.31-1.238-.859-3.593,0,0,.126-.553.628-.412,0,0-1.192-1.97-1.372-2.171a4.2,4.2,0,0,1,.431-1.56c.076-.2.152-.387.219-.55.118-.288.205-.49.205-.49.041.023.253.148.564.313a10.167,10.167,0,0,0,6.9.865c2.079-.622,2.983-1.48,5.809-.451S873.431,763.254,873.493,765.155Z" transform="translate(-332.278 2498.698)" fill="#444"/>
    <g id="Group_127" data-name="Group 127" transform="translate(522.77 3259.383)" opacity="0.1">
      <path id="Path_506" data-name="Path 506" d="M873.485,766.342a3.764,3.764,0,0,1-.465,1.945,7.539,7.539,0,0,0-3.333-5c-2.4-1.768-6.1.156-6.1.156s-3.006.133-5.2.133a4.833,4.833,0,0,1-2.889-.916,3.154,3.154,0,0,1-.454-.394l.674-.156.769-.177a10.166,10.166,0,0,0,6.9.865c2.08-.622,2.983-1.48,5.809-.451S873.423,764.441,873.485,766.342Z" transform="translate(-855.04 -761.872)" fill="#444"/>
    </g>
    <g id="Group_128" data-name="Group 128" transform="translate(512.401 3232.864)" opacity="0.1">
      <path id="Path_507" data-name="Path 507" d="M812.3,611.9s-1.627,2.43-1.567,3.14-1.326,2.133-1.326,2.133-1.507,1.591-1.507,2.251-2.774,6.315-2.774,6.315-3.667,3.4-4.459,3.934-2.713,4.147-3.5,4.62-.769,3.89-.769,3.89l5.531-5.68s6.148,6.118,6.509,6.237,1.446-4.976,1.446-4.976,3.377-3.183,4.341-4.051,4.689-6.771,4.689-6.771,3.388-6.251,3.087-8.079S818.839,614.123,812.3,611.9Z" transform="translate(-796.4 -611.9)" fill="#444"/>
    </g>
    <g id="Group_129" data-name="Group 129" transform="translate(512.943 3232.864)" opacity="0.1">
      <path id="Path_508" data-name="Path 508" d="M815.368,611.9s-1.629,2.43-1.567,3.14-1.326,2.133-1.326,2.133-1.508,1.591-1.508,2.251-2.773,6.315-2.773,6.315-3.68,3.4-4.46,3.934-2.713,4.147-3.5,4.62-.767,3.89-.767,3.89,6.353-4.067,8.725,5.177h0l2.17-3.105s.785-1.634,1.146-1.515,1.446-4.976,1.446-4.976,3.376-3.183,4.341-4.051,4.69-6.771,4.69-6.771,3.393-6.251,3.086-8.079S821.246,613.509,815.368,611.9Z" transform="translate(-799.47 -611.9)" fill="#444"/>
    </g>
    <g id="Group_130" data-name="Group 130" transform="translate(513.276 3256.339)" opacity="0.1">
      <path id="Path_509" data-name="Path 509" d="M806.849,744.66,806.3,747.7a5.1,5.1,0,0,0-4.951-.235l.317-1.7Z" transform="translate(-801.35 -744.66)" fill="#444"/>
    </g>
    <path id="Path_510" data-name="Path 510" d="M814.348,604.327s-1.629,2.43-1.568,3.14-1.326,2.133-1.326,2.133-1.507,1.591-1.507,2.251-2.773,6.314-2.773,6.314-3.676,3.4-4.461,3.934-2.713,4.147-3.5,4.62-.767,3.89-.767,3.89,6.353-4.067,8.725,5.178h0l2.17-3.105s.783-1.634,1.146-1.515,1.446-4.976,1.446-4.976,3.376-3.183,4.339-4.051,4.691-6.771,4.691-6.771,3.4-6.251,3.086-8.079S820.978,600,814.348,604.327Z" transform="translate(-285.687 2628.536)" fill="#444"/>
    <g id="Group_131" data-name="Group 131" transform="translate(500.631 3237.583)" opacity="0.1">
      <path id="Path_511" data-name="Path 511" d="M729.84,639.8s8.94-3.321,13.969,1.061Z" transform="translate(-729.84 -638.593)" fill="#444"/>
    </g>
    <g id="Group_132" data-name="Group 132" transform="translate(501.552 3240.964)" opacity="0.1">
      <path id="Path_512" data-name="Path 512" d="M735.05,657.71s7.156,1.2,9.869.964S735.05,657.71,735.05,657.71Z" transform="translate(-735.05 -657.71)" fill="#444"/>
    </g>
    <g id="Group_133" data-name="Group 133" transform="translate(499.368 3213.805)" opacity="0.1">
      <path id="Path_513" data-name="Path 513" d="M722.814,504.12s-.562,3.657.774,4.544S722.814,504.12,722.814,504.12Z" transform="translate(-722.696 -504.12)" fill="#444"/>
    </g>
    <path id="Path_514" data-name="Path 514" d="M702.23,512.74s1.871,2.962,2.051,4.5" transform="translate(-206.481 2702.589)" fill="#444" opacity="0.1"/>
    <g id="Group_134" data-name="Group 134" transform="translate(500.871 3253.179)" opacity="0.1">
      <path id="Path_515" data-name="Path 515" d="M731.2,726.79s6.751,4.988,6.208,7.287-.4,0-.4,0Z" transform="translate(-731.2 -726.79)" fill="#444"/>
    </g>
    <g id="Group_135" data-name="Group 135" transform="translate(533.563 3262.197)" opacity="0.1">
      <ellipse id="Ellipse_300" data-name="Ellipse 300" cx="0.242" cy="0.239" rx="0.242" ry="0.239" transform="translate(0 0)" fill="#444"/>
    </g>
    <g id="Group_136" data-name="Group 136" transform="translate(534.529 3267.181)" opacity="0.1">
      <ellipse id="Ellipse_301" data-name="Ellipse 301" cx="0.242" cy="0.239" rx="0.242" ry="0.239" transform="translate(0 0)" fill="#444"/>
    </g>
    <g id="Group_137" data-name="Group 137" transform="translate(526.77 3241.482)" opacity="0.1">
      <path id="Path_516" data-name="Path 516" d="M882.266,660.64s-4.384,4.178-4.364,6.189-.242,4.62-.242,4.62l1.466-5.323Z" transform="translate(-877.66 -660.64)" fill="#444"/>
    </g>
    <g id="Group_138" data-name="Group 138" transform="translate(524.668 3237.367)" opacity="0.1">
      <path id="Path_517" data-name="Path 517" d="M872.859,637.37s-7.7,6.1-7.043,6.753S872.859,637.37,872.859,637.37Z" transform="translate(-865.777 -637.37)" fill="#444"/>
    </g>
    <g id="Group_139" data-name="Group 139" transform="translate(519.826 3255.612)" opacity="0.1">
      <path id="Path_518" data-name="Path 518" d="M838.39,740.55s3.7,1.692,3.5,2.357S838.39,740.55,838.39,740.55Z" transform="translate(-838.39 -740.55)" fill="#444"/>
    </g>
    <g id="Group_140" data-name="Group 140" transform="translate(527.993 3263.374)" opacity="0.1">
      <ellipse id="Ellipse_302" data-name="Ellipse 302" cx="0.242" cy="0.239" rx="0.242" ry="0.239" transform="translate(0)" fill="#444"/>
    </g>
    <g id="Group_141" data-name="Group 141" transform="translate(524.701 3262.914)" opacity="0.1">
      <ellipse id="Ellipse_303" data-name="Ellipse 303" cx="0.242" cy="0.239" rx="0.242" ry="0.239" transform="translate(0 0)" fill="#444"/>
    </g>
    <g id="Group_142" data-name="Group 142" transform="translate(530.89 3263.28)" opacity="0.1">
      <ellipse id="Ellipse_304" data-name="Ellipse 304" cx="0.242" cy="0.239" rx="0.242" ry="0.239" transform="translate(0 0)" fill="#444"/>
    </g>
    <g id="Group_143" data-name="Group 143" transform="translate(531.751 3266.942)" opacity="0.1">
      <ellipse id="Ellipse_305" data-name="Ellipse 305" cx="0.242" cy="0.239" rx="0.242" ry="0.239" transform="translate(0 0)" fill="#444"/>
    </g>
    <g id="Group_144" data-name="Group 144" transform="translate(532.338 3262.802)" opacity="0.1">
      <ellipse id="Ellipse_306" data-name="Ellipse 306" cx="0.242" cy="0.239" rx="0.242" ry="0.239" transform="translate(0 0)" fill="#444"/>
    </g>
    <g id="Group_145" data-name="Group 145" transform="translate(533.105 3266.942)" opacity="0.1">
      <ellipse id="Ellipse_307" data-name="Ellipse 307" cx="0.242" cy="0.239" rx="0.242" ry="0.239" transform="translate(0 0)" fill="#444"/>
    </g>
    <g id="Group_146" data-name="Group 146" transform="translate(529.378 3263.519)" opacity="0.1">
      <ellipse id="Ellipse_308" data-name="Ellipse 308" cx="0.242" cy="0.239" rx="0.242" ry="0.239" transform="translate(0 0)" fill="#444"/>
    </g>
    <g id="Group_147" data-name="Group 147" transform="translate(530.009 3267.181)" opacity="0.1">
      <ellipse id="Ellipse_309" data-name="Ellipse 309" cx="0.242" cy="0.239" rx="0.242" ry="0.239" transform="translate(0 0)" fill="#444"/>
    </g>
    <g id="Group_148" data-name="Group 148" transform="translate(526.527 3263.28)" opacity="0.1">
      <ellipse id="Ellipse_310" data-name="Ellipse 310" cx="0.242" cy="0.239" rx="0.242" ry="0.239" transform="translate(0 0)" fill="#444"/>
    </g>
    <g id="Group_149" data-name="Group 149" transform="translate(507.527 3242.939)" opacity="0.1">
      <path id="Path_519" data-name="Path 519" d="M782.16,668.88c-.06.325-.083.53-.083.53s-3.376,5.273-5.727,5.984c0,0-5.33,3.86-7.51,3.9l9.8-6.629Z" transform="translate(-768.84 -668.88)" fill="#444"/>
    </g>
    <path id="Path_520" data-name="Path 520" d="M781.012,588.63l-.375,1.807s-.021.12-.064.332c-.281,1.464-1.448,7.3-2.4,8.488a9.349,9.349,0,0,0-1.385,3.91s-3.376,5.273-5.727,5.984c0,0-9.163,6.635-8.378,2.6s6.086-5.627,6.086-5.627a9.151,9.151,0,0,0,.723-1.659,13.326,13.326,0,0,1,1.568-2.133,21.067,21.067,0,0,0,1.446-3.022c.06-.532,2.476-10.309,2.476-10.309l1.427-.09Z" transform="translate(-256.209 2640.119)" fill="#444"/>
    <g id="Group_150" data-name="Group 150" transform="translate(519.019 3228.749)" opacity="0.1">
      <path id="Path_521" data-name="Path 521" d="M839.615,588.63l-.375,1.807s-.021.12-.064.332c-1.839.329-4.882.741-5.3-.039-.194-.354.333-1.036,1.146-1.809Z" transform="translate(-833.831 -588.63)" fill="#444"/>
    </g>
    <path id="Path_522" data-name="Path 522" d="M840.564,572.071a29.878,29.878,0,0,1-5.055.677h-.292c-.686-.027-1.206-.152-1.365-.442-.2-.354.354-1.061,1.187-1.846a39.284,39.284,0,0,1,3.8-3.006c.661-.47,1.112-.774,1.112-.774l.617,1.775s-.067.317-.14.766C840.267,570.194,840.094,571.787,840.564,572.071Z" transform="translate(-314.796 2658.188)" fill="#444"/>
    <g id="Group_151" data-name="Group 151" transform="translate(499.277 3211.479)" opacity="0.1">
      <path id="Path_523" data-name="Path 523" d="M729.894,501.745q.895,2.122,1.834,4.23a2.613,2.613,0,0,1-.647.228,6.105,6.105,0,0,1-3.437-.681c-1.627-.686-3.393-1.5-4.129-3.086-.543-1.169-.4-2.522-.61-3.789-.177-1.095-.631-2.143-.707-3.248a15.159,15.159,0,0,1,.5-3.728c.278-.117.548-.237.792-.354,1.19-.561,3.869-.316,4.951-.187a4.316,4.316,0,0,0-.062.771,4.42,4.42,0,0,0,.1.836c.269,1.347,1.026,2.626,1.029,4.009,0,.858-.29,1.7-.267,2.559A6.823,6.823,0,0,0,729.894,501.745Z" transform="translate(-722.181 -490.965)" fill="#444"/>
    </g>
    <g id="Group_152" data-name="Group 152" transform="translate(515.47 3211.064)" opacity="0.1">
      <path id="Path_524" data-name="Path 524" d="M825.082,499.52c-.3,1.008-1.026,4.679-1.026,4.679s-.067.316-.14.766c-.133-.177-.26-.354-.389-.53-.083-.118-.177-.239-.256-.354a3.391,3.391,0,0,0-.943-.884,1.66,1.66,0,0,0-.884-.248,3.623,3.623,0,0,0-1.415.511c-1.827.893-4.364.808-5.563-.815a3.963,3.963,0,0,1-.707-2.223c1.768-4.741.782-11.8.782-11.8a72.526,72.526,0,0,1,9.223,4.5C827.381,495.375,825.385,498.512,825.082,499.52Z" transform="translate(-813.76 -488.62)" fill="#444"/>
    </g>
    <path id="Path_525" data-name="Path 525" d="M726.409,376.582a9.51,9.51,0,0,0-.065,2.134c-.159,1.678-1.871,2.849-2.258,4.49-.3,1.257.228,2.56.177,3.85-.067,1.453-.884,2.815-.861,4.272.021,1.664,1.119,3.183,1.125,4.843,0,.859-.292,1.7-.267,2.56a6.913,6.913,0,0,0,.681,2.438q.895,2.122,1.835,4.23c-1.259.644-2.781.1-4.086-.453-1.629-.688-3.393-1.5-4.129-3.086-.541-1.171-.4-2.522-.61-3.789-.177-1.095-.631-2.143-.707-3.25a16.048,16.048,0,0,1,.511-3.823,13.261,13.261,0,0,0-.414-6.058,32.066,32.066,0,0,1-1.082-3.4,4.162,4.162,0,0,1,.626-3.4c.817-1.011,2.2-1.374,3.231-2.179a6.784,6.784,0,0,0,2.111-3.478c.336-1.119.637-2.417,1.678-2.976a2.755,2.755,0,0,1,1.374-.283c1.591.037,3.071.93,4.668,1.027a15.674,15.674,0,0,0,2.72-.253,10.2,10.2,0,0,1,6.509,1.323,7.363,7.363,0,0,1,3.519,5.418c.12,1.326-.177,2.665-.049,3.989a6.335,6.335,0,0,0,1.768,3.8,13.452,13.452,0,0,1,1.89,1.919,5.051,5.051,0,0,1,.668,2.035c.78,5.42-2.279,10.786-1.768,16.243a2.507,2.507,0,0,0,1.172,2.217,1.486,1.486,0,0,1-2,.177,6.792,6.792,0,0,1-1.436-1.68,2.406,2.406,0,0,0-1.832-1.123,3.573,3.573,0,0,0-1.415.513c-1.827.884-4.364.8-5.565-.817-.905-1.224-.785-2.893-.545-4.387s.554-3.089-.067-4.476c-.463-1.038-1.441-1.968-1.275-3.089.126-.858.884-1.462,1.441-2.134a7.017,7.017,0,0,0,1.415-4.654,21.494,21.494,0,0,0-.884-4.87,9.333,9.333,0,0,0-1.579-3.68,3.48,3.48,0,0,0-3.413-1.225c-.531.094-1.033-.134-1.591.019a1.747,1.747,0,0,0-1.217,1.072Z" transform="translate(-217.941 2820.733)" fill="#444"/>
    <g id="Group_153" data-name="Group 153" transform="translate(498.195 3195.257)" opacity="0.1">
      <path id="Path_526" data-name="Path 526" d="M865.716,415.933c.034-.82.124-1.645.087-2.463C865.769,414.29,865.677,415.115,865.716,415.933Z" transform="translate(-839.246 -410.951)" fill="#444"/>
      <path id="Path_527" data-name="Path 527" d="M760.513,424.015a3.3,3.3,0,0,1,.071-.43c.389-1.641,2.1-2.812,2.258-4.49a4.942,4.942,0,0,0-.011-.826c-.194,1.644-1.864,2.806-2.247,4.421A4.225,4.225,0,0,0,760.513,424.015Z" transform="translate(-752.635 -414.903)" fill="#444"/>
      <path id="Path_528" data-name="Path 528" d="M717.832,438.721a13.262,13.262,0,0,0-.582-4.346,32,32,0,0,1-1.082-3.4,6.069,6.069,0,0,1-.085-.624,5.484,5.484,0,0,0,.085,1.512,32.9,32.9,0,0,0,1.082,3.4A13.276,13.276,0,0,1,717.832,438.721Z" transform="translate(-716.065 -424.846)" fill="#444"/>
      <path id="Path_529" data-name="Path 529" d="M761.968,521.7a19.639,19.639,0,0,0,.242-2,3.808,3.808,0,0,0-.026-.424,16.959,16.959,0,0,0-.24,2.1C761.952,521.473,761.952,521.585,761.968,521.7Z" transform="translate(-753.83 -498.043)" fill="#444"/>
      <path id="Path_530" data-name="Path 530" d="M757.125,470.684c.134-1.27.775-2.484.835-3.77a5.205,5.205,0,0,0-.016-.684c-.127,1.379-.863,2.679-.845,4.067A3.875,3.875,0,0,0,757.125,470.684Z" transform="translate(-749.842 -454.382)" fill="#444"/>
      <path id="Path_531" data-name="Path 531" d="M825.97,554.378a1.768,1.768,0,0,1-1.415-.251,6.889,6.889,0,0,1-1.436-1.68,2.4,2.4,0,0,0-1.832-1.121,3.6,3.6,0,0,0-1.415.511c-1.828.884-4.366.806-5.567-.815a3.923,3.923,0,0,1-.707-2.122,4.486,4.486,0,0,0,.707,3.006c1.2,1.622,3.738,1.708,5.567.817a3.553,3.553,0,0,1,1.415-.513,2.392,2.392,0,0,1,1.832,1.123,6.826,6.826,0,0,0,1.436,1.68,1.472,1.472,0,0,0,2-.177A1.506,1.506,0,0,1,825.97,554.378Z" transform="translate(-796.341 -522.434)" fill="#444"/>
      <path id="Path_532" data-name="Path 532" d="M880.06,499.218c.131-4.391,2.074-8.739,1.945-13.108C881.871,490.476,879.927,494.824,880.06,499.218Z" transform="translate(-851.056 -470.747)" fill="#444"/>
      <path id="Path_533" data-name="Path 533" d="M808.554,502.028a4.97,4.97,0,0,0-.354-2.362,15.652,15.652,0,0,1-1.238-2.385,1.565,1.565,0,0,0-.039.186c-.164,1.121.812,2.051,1.277,3.089A4.311,4.311,0,0,1,808.554,502.028Z" transform="translate(-790.842 -479.941)" fill="#444"/>
      <path id="Path_534" data-name="Path 534" d="M727.642,519.214c-1.627-.686-3.393-1.5-4.129-3.086-.541-1.169-.4-2.52-.61-3.789-.177-1.088-.624-2.122-.707-3.229a5.923,5.923,0,0,0,0,.868c.085,1.107.53,2.156.707,3.25.21,1.268.069,2.619.61,3.789.736,1.591,2.5,2.4,4.129,3.086,1.305.55,2.829,1.1,4.086.453q-.168-.377-.331-.752A5.5,5.5,0,0,1,727.642,519.214Z" transform="translate(-721.099 -489.68)" fill="#444"/>
      <path id="Path_535" data-name="Path 535" d="M779.895,401.413a9.235,9.235,0,0,1,1.579,3.68,22.166,22.166,0,0,1,.884,4.658c.011-.226.016-.451.011-.676a21.094,21.094,0,0,0-.884-4.872,9.336,9.336,0,0,0-1.579-3.678,3.482,3.482,0,0,0-3.413-1.227c-.531.1-1.033-.133-1.591.021a1.747,1.747,0,0,0-1.21,1.079,3.249,3.249,0,0,0-.08,1.248,2,2,0,0,1,.08-.354,1.751,1.751,0,0,1,1.21-1.079c.553-.154,1.061.074,1.591-.019A3.48,3.48,0,0,1,779.895,401.413Z" transform="translate(-763.414 -399.227)" fill="#444"/>
    </g>
    <g id="Group_154" data-name="Group 154" transform="translate(497.983 3227.414)" opacity="0.1">
      <path id="Path_536" data-name="Path 536" d="M736.889,581.08s2.808,7.347-3.7,10.309c0,0-11.671-1.3-15.25-.354s-3.692-6.992-2.057-7.466S736.889,581.08,736.889,581.08Z" transform="translate(-714.866 -581.08)" fill="#444"/>
    </g>
    <path id="Path_537" data-name="Path 537" d="M735.862,579.07s2.808,7.347-3.7,10.309c0,0-11.671-1.3-15.251-.354s-3.69-6.992-2.056-7.466S735.862,579.07,735.862,579.07Z" transform="translate(-216.036 2647.988)" fill="#444"/>
    <g id="Group_155" data-name="Group 155" transform="translate(495.581 3229.345)" opacity="0.1">
      <path id="Path_538" data-name="Path 538" d="M701.28,592l1.022,5.954S702.558,593.461,701.28,592Z" transform="translate(-701.28 -592)" fill="#444"/>
    </g>
    <g id="Group_156" data-name="Group 156" transform="translate(509.857 3222.379)" opacity="0.1">
      <path id="Path_539" data-name="Path 539" d="M782.366,552.61s-.232,2.665-.341,3.494S782.785,552.856,782.366,552.61Z" transform="translate(-782.015 -552.61)" fill="#444"/>
    </g>
    <path id="Path_540" data-name="Path 540" d="M799.77,769s2.476,4.307,4.453,1.255" transform="translate(-286.773 2491.643)" fill="#444" opacity="0.1"/>
    <path id="Path_541" data-name="Path 541" d="M862.93,787.42s6.024,3.079,3.828,4.3" transform="translate(-338.765 2476.48)" fill="#444" opacity="0.1"/>
    <path id="Path_542" data-name="Path 542" d="M566.563,453.748Z" transform="translate(-94.802 2751.154)" fill="#444"/>
    <path id="Path_543" data-name="Path 543" d="M545.929,463.131l-.81.555c0-.389,1.423-1.935,1.423-1.935-.37-.212-1.673.822-1.673.822.154-.677,1.307-1.5,1.307-1.5a4.345,4.345,0,0,0-.99.4,6.444,6.444,0,0,1,1.489-1.53c-.149-.1-1.026.29-1.061.308.046-.034,1.5-1.075,1.376-1.107a10,10,0,0,0-1.238.2c-.087-.4,1.731-2.27,1.731-2.27s.226-.325.145-.24a7.069,7.069,0,0,1-.925.385c.012-.587,1.768-1.5,1.768-1.5l-.8-.03.531-.575c-.025.018-.849.66-.859.472s.775-.944.944-1.061.7-.023.7-.023-.226-.67-.271-.766c.126.1,1.917.874,1.917.874l.156.03a10.948,10.948,0,0,1,1.726.44,7.96,7.96,0,0,0,1.535.391l.354.067-1.273,8.12h-.354c-.205,0-.41-.018-.615-.035-.32-.028-.64-.074-.958-.134-.64-.122-1.48-.283-2.122-.41-.4-.08-.729-.149-.884-.186-.642-.152-1.443.354-1.627.354a7.768,7.768,0,0,0-1.286.934A5.334,5.334,0,0,1,545.929,463.131Z" transform="translate(-76.947 2751.148)" fill="#444"/>
    <path id="Path_544" data-name="Path 544" d="M550.82,503.334c.012,0,1.257-.518,1.675-.683s5.391.2,5.6.212v.034c-.051,0-5.176-.38-5.588-.216s-1.662.679-1.675.683Z" transform="translate(-81.845 2710.929)" fill="#444" opacity="0.1"/>
    <path id="Path_545" data-name="Path 545" d="M566.563,453.748Z" transform="translate(-94.802 2751.154)" fill="none"/>
    <path id="Path_546" data-name="Path 546" d="M558.76,460.227a10.341,10.341,0,0,1,1.061-.76,2.175,2.175,0,0,1,1.238.037,2.724,2.724,0,0,0,.354.06,15.284,15.284,0,0,1,1.659.408c.014,0,1.48.354,1.666.341a5.526,5.526,0,0,1,.873.161v.032a5.633,5.633,0,0,0-.865-.161c-.191.011-1.614-.327-1.675-.341-.016,0-1.415-.407-1.652-.408a2.377,2.377,0,0,1-.364-.06,2.252,2.252,0,0,0-1.222-.041,10.351,10.351,0,0,0-1.061.757Z" transform="translate(-88.381 2746.508)" fill="#444" opacity="0.1"/>
    <path id="Path_547" data-name="Path 547" d="M560.42,463.911a5.226,5.226,0,0,1,1.728-.141c.136.051,1.816.219,1.9.217.028,0,2.214.43,2.882.562v.032c-.974-.193-2.829-.559-2.877-.561-.009,0-1.768-.159-1.917-.221a5.568,5.568,0,0,0-1.69.133Z" transform="translate(-89.747 2742.917)" fill="#444" opacity="0.1"/>
    <path id="Path_548" data-name="Path 548" d="M555.15,468.642c.453-.783,3.006-1.013,3.024-1.015.271-.025,4.141.723,4.307.755v.032c-.041,0-4.032-.778-4.3-.755-.707.062-2.629.362-3.006,1Z" transform="translate(-85.409 2739.726)" fill="#444" opacity="0.1"/>
    <path id="Path_549" data-name="Path 549" d="M554.18,474.93c.718-.822,3.006-.764,3.022-.764.177,0,4.053.591,4.219.615v.032c-.041,0-4.046-.607-4.214-.614-.023,0-2.288-.058-3,.752Z" transform="translate(-84.611 2734.343)" fill="#444" opacity="0.1"/>
    <path id="Path_550" data-name="Path 550" d="M550.289,477.8c.271-.513,1.027-.884,2.253-1.089a12.312,12.312,0,0,1,1.793-.164l3.952.46v.032l-3.95-.458c-.032,0-3.422.027-4.026,1.259l-.03-.014A.231.231,0,0,1,550.289,477.8Z" transform="translate(-81.4 2732.38)" fill="#444" opacity="0.1"/>
    <path id="Path_551" data-name="Path 551" d="M549.78,481.431a5.831,5.831,0,0,1,2.569-.842c.667-.081,5.077.628,5.264.658v.032c-.044,0-4.6-.737-5.255-.658a6.008,6.008,0,0,0-2.548.831Z" transform="translate(-80.989 2729.06)" fill="#444" opacity="0.1"/>
    <path id="Path_552" data-name="Path 552" d="M554.68,484.674l1.671-.281a4.374,4.374,0,0,1,1.3-.025l1.862.242,2.041.393v.032l-2.039-.393-1.853-.241a4.316,4.316,0,0,0-1.289.023l-1.671.281Z" transform="translate(-85.022 2725.974)" fill="#444" opacity="0.1"/>
    <path id="Path_553" data-name="Path 553" d="M546.622,491.062c.354-.654,1.885-.98,2.728-1.158.177-.037.32-.067.4-.092a50.31,50.31,0,0,1,5.119.34v.034c-.046,0-4.636-.476-5.107-.341-.085.025-.226.055-.4.092-.808.177-2.49.53-2.739,1.218l-.032-.012A.778.778,0,0,1,546.622,491.062Z" transform="translate(-78.363 2721.484)" fill="#444" opacity="0.1"/>
    <path id="Path_554" data-name="Path 554" d="M552,492.861c.009,0,.851-.272,1.043-.362s2.4-.145,2.49-.148l3.773.235v.034l-3.77-.235c-.021,0-2.285.057-2.476.145s-1.013.354-1.049.364Z" transform="translate(-82.816 2719.374)" fill="#444" opacity="0.1"/>
    <path id="Path_555" data-name="Path 555" d="M544.8,496.008c.829-1.188,4-1.65,4.283-1.63l4.256.279v.032l-4.26-.278c-.281-.021-3.429.437-4.244,1.614Z" transform="translate(-76.889 2717.706)" fill="#444" opacity="0.1"/>
    <path id="Path_556" data-name="Path 556" d="M546.3,500.461c.75-1.425,3.973-1.747,4.272-1.733l3.766.177v.032l-3.766-.177c-.313-.016-3.855.338-4.338,1.945H546.2A1.326,1.326,0,0,1,546.3,500.461Z" transform="translate(-78.042 2714.124)" fill="#444" opacity="0.1"/>
    <path id="Path_557" data-name="Path 557" d="M589.52,471.764l1.275-8.184.354.067-1.273,8.12C589.755,471.767,589.637,471.767,589.52,471.764Z" transform="translate(-113.702 2743.057)" fill="#444" opacity="0.1"/>
    <path id="Path_558" data-name="Path 558" d="M590,471.16l1.33-8.53,1.63.53,1.192.387s.835-.177,1.1.442-.582,2.421-.177,2.81,3.872.707,3.872.707,5.022,1.362,5.552,1.441a27.625,27.625,0,0,1,3.4,1.789c.157.4-1.768.423-2.209.541a20.972,20.972,0,0,1-4.826-.911,41.539,41.539,0,0,0-4.106-1.3,2.748,2.748,0,0,0-2.03-.377,9.769,9.769,0,0,1-.6,2.456.656.656,0,0,1-.691.384l-1.851-.152Z" transform="translate(-114.097 2743.838)" fill="#444"/>
    <path id="Path_559" data-name="Path 559" d="M590,471.16l1.33-8.53,1.63.53c-.255.822-1.825,6.012-1.367,8.222Z" transform="translate(-114.097 2743.838)" fill="#444" opacity="0.1"/>
    <path id="Path_560" data-name="Path 560" d="M545.929,463.131l-.81.555c0-.389,1.423-1.935,1.423-1.935-.368-.212-1.673.822-1.673.822.154-.677,1.307-1.5,1.307-1.5a4.266,4.266,0,0,0-.99.4,6.408,6.408,0,0,1,1.489-1.53c-.149-.1-1.026.29-1.061.308.046-.034,1.5-1.075,1.376-1.107a10,10,0,0,0-1.238.2c-.087-.4,1.731-2.272,1.731-2.272s.226-.324.145-.239a7.034,7.034,0,0,1-.925.384c.012-.585,1.768-1.494,1.768-1.494l-.8-.03.53-.575c-.025.018-.849.66-.859.472s.774-.944.944-1.061.7-.023.7-.023-.226-.67-.271-.766c.126.1,1.917.874,1.917.874l.156.03c-.164.134-.331.255-.437.354a1.3,1.3,0,0,0-.382.476.98.98,0,0,0,.118.792c.134.24.317.451.449.693a.474.474,0,0,1,.072.341.584.584,0,0,1-.228.267,4.454,4.454,0,0,0-1.438,2.023.566.566,0,0,0-.044.246.841.841,0,0,0,.143.308,1.13,1.13,0,0,1-.14,1.28c-.143.157-.343.3-.354.507a.656.656,0,0,0,.1.34c.141.269.281.539.423.812-.4-.081-.729-.148-.884-.186-.642-.152-1.443.354-1.625.354a7.865,7.865,0,0,0-1.287.934A5.5,5.5,0,0,1,545.929,463.131Z" transform="translate(-76.947 2751.148)" fill="#00a9b1"/>
    <path id="Path_561" data-name="Path 561" d="M704.19,697.274l.767,3.123s17.2,5.658,22.775.354-.614-15.623-.614-15.623l-3.772-3.949L713.385,680h-3.536Z" transform="translate(-208.095 2564.906)" fill="#444"/>
    <path id="Path_562" data-name="Path 562" d="M704.19,697.274l.767,3.123s17.2,5.658,22.775.354-.614-15.623-.614-15.623l-3.772-3.949L713.385,680h-3.536Z" transform="translate(-208.095 2564.906)" fill="#444" opacity="0.03"/>
    <path id="Path_563" data-name="Path 563" d="M797.57,598.512l-1.652,1.915-5.717,10.4-1.945,3.655s-1.469,1.86-1.324,2.638.559,6.557-4.392,7.027-15.679-11.317-15.679-11.317l.437-.3,9.584-6.6,3.443-3.765.92-1.006s4.481-6.129,4.362-7.073,4.479-6.6,7.131-6.424,4.658.177,5.6,3.595S797.57,598.512,797.57,598.512Z" transform="translate(-259.683 2640.912)" fill="#444"/>
    <rect id="Rectangle_663" data-name="Rectangle 663" width="18.169" height="13.748" transform="translate(503.596 3199.627)" fill="#444"/>
    <rect id="Rectangle_664" data-name="Rectangle 664" width="18.169" height="13.748" transform="translate(503.596 3199.627)" fill="#444" opacity="0.1"/>
    <path id="Path_564" data-name="Path 564" d="M680.582,571.178c0,.251-.023.6-.058.985-.136,1.512-.472,3.7-.472,3.7a27.148,27.148,0,0,0-.531,4.154,10.5,10.5,0,0,1-.414,3.436c-.237.562-1.65,0-1.65,0l-4.666-12.53-.26-.691-.1-.272.106-.419.38-1.517S680.582,569.962,680.582,571.178Z" transform="translate(-181.951 2657.084)" fill="#444"/>
    <path id="Path_565" data-name="Path 565" d="M748.6,459.484v1.98l-1.415,6.921-3.064,4.109-6.778.884-6.484-2.543s-4.3-6.944.707-10.857a9.585,9.585,0,0,0,2.87-3.651,11.848,11.848,0,0,0,.992-4.691,10.888,10.888,0,0,0-.148-2.076s10.61-4.891,8.9,0a5.558,5.558,0,0,0-.24,2.629,8.277,8.277,0,0,0,.849,2.58A16.806,16.806,0,0,0,748.6,459.484Z" transform="translate(-228.634 2756.387)" fill="#444"/>
    <path id="Path_566" data-name="Path 566" d="M772.76,449.534a5.559,5.559,0,0,0-.24,2.629,7.137,7.137,0,0,1-8.511-.554,10.884,10.884,0,0,0-.149-2.076S774.47,444.645,772.76,449.534Z" transform="translate(-257.213 2756.408)" fill="#444" opacity="0.1"/>
    <circle id="Ellipse_311" data-name="Ellipse 311" cx="7.131" cy="7.131" r="7.131" transform="translate(504.289 3195.104)" fill="#444"/>
    <path id="Path_567" data-name="Path 567" d="M748.6,493.854v1.98l-1.415,6.921-3.064,4.109-6.778.884-6.484-2.543s-4.3-6.944.707-10.857a9.585,9.585,0,0,0,2.87-3.651c-3.918,15,4.435,14.224,4.435,14.224,7.639,0,6.1-14.258,5.917-15.782A16.807,16.807,0,0,0,748.6,493.854Z" transform="translate(-228.634 2722.016)" fill="#444" opacity="0.1"/>
    <path id="Path_568" data-name="Path 568" d="M718.141,503.188c-.3,1-1,4.656-1,4.656s-.2.078-.516.225c-1.22.561-4.2,2.122-4.421,4.051v.087c-.177,2.476-2.357,7.722-3.476,10.079s.53,4.893.53,4.893l-2.24.531a18.286,18.286,0,0,1-5.777-.237c-2.652-.649-2.3,1.061-3.949.472s-7.073-1-7.957-1.533-1.65-5.245-1.179-5.835,1.945-13.025,1.945-13.025-5.952-5.542-5.835-9.137,4.421-3.772,4.421-3.772,1.655-.58,3.057-1.183q.409-.175.775-.354c1.164-.559,3.784-.315,4.833-.187.278.035.446.06.446.06-.152.531-.288,1.045-.412,1.54-2.4,9.656.417,12.544,2.571,13.395a4.762,4.762,0,0,0,1.989.341c2.707,0,4.263-1.791,5.128-4.173,1.724-4.716.766-11.741.766-11.741a70.573,70.573,0,0,1,9.018,4.479C720.39,499.06,718.436,502.182,718.141,503.188Z" transform="translate(-191.689 2719.382)" fill="#444" opacity="0.1"/>
    <path id="Path_569" data-name="Path 569" d="M718.141,501.188c-.3,1-1,4.656-1,4.656s-.2.078-.516.225c-1.22.561-4.2,2.122-4.421,4.051v.087c-.177,2.476-2.357,7.722-3.476,10.079s.53,4.893.53,4.893l-2.24.531a18.286,18.286,0,0,1-5.777-.237c-2.652-.649-2.3,1.061-3.949.472s-7.073-1-7.957-1.533-1.65-5.245-1.179-5.835,1.945-13.025,1.945-13.025-5.952-5.542-5.835-9.137,4.421-3.772,4.421-3.772,1.655-.58,3.057-1.183q.409-.175.775-.354c1.164-.559,3.784-.315,4.833-.187.278.035.446.06.446.06-.152.531-.288,1.045-.412,1.54-2.4,9.656.417,12.544,2.571,13.395a4.762,4.762,0,0,0,1.989.341c2.707,0,4.263-1.791,5.128-4.173,1.724-4.716.766-11.741.766-11.741a70.573,70.573,0,0,1,9.018,4.479C720.39,497.06,718.436,500.182,718.141,501.188Z" transform="translate(-191.689 2721.028)" fill="#444"/>
    <path id="Path_570" data-name="Path 570" d="M680.615,571.211v1.061l-.058-.074c-2.488-3.153-6.518-1.768-7.733-1.238-.23.1-.354.166-.354.166s.069-.4.1-.858a4.77,4.77,0,0,0,0-.691l.38-1.517S680.615,569.995,680.615,571.211Z" transform="translate(-181.984 2657.051)" fill="#444" opacity="0.1"/>
    <path id="Path_571" data-name="Path 571" d="M676.346,522.69l-1.537,2s-2.591,6.306-2.354,6.776a5.115,5.115,0,0,1-.016,1.945s5.2-2.7,8.15,1.153v-1.972s.294-.826.412-1.061a11.911,11.911,0,0,0,0-2.064Z" transform="translate(-181.959 2694.399)" fill="#444"/>
    <path id="Path_572" data-name="Path 572" d="M655.591,521.218a.95.95,0,0,1-.06.2c-.751,1.708-6.382-.787-6.382-.787s-.048-.235-.122-.617c-.3-1.537-1-5.464-.626-6.219a14.512,14.512,0,0,0,.515-3.89c1.577-2.829.782-8.548.782-8.548a2.062,2.062,0,0,0-.412-2.357s-9.786-5.777-3.066-6.543,8.017,7.365,7.487,8.253.412,8.07.412,8.07l.943,5.554S656,519.133,655.591,521.218Z" transform="translate(-158.435 2719.331)" fill="#444"/>
    <path id="Path_573" data-name="Path 573" d="M808.807,743.893l-1.749-.087-6.8-.334-.009-.217-.145-3.517,5.167-2.644.007,0,.065.048.133.094.143.1,2.951,2.106Z" transform="translate(-283.307 2524.455)" fill="#444"/>
    <path id="Path_574" data-name="Path 574" d="M805.633,737.329l-.018.019-5.37,5.922-.145-3.517,5.167-2.644.073.044Z" transform="translate(-283.307 2524.438)" fill="#444" opacity="0.1"/>
    <path id="Path_575" data-name="Path 575" d="M679.574,648.7c-.752,1.708-6.382-.787-6.382-.787s-.048-.235-.122-.617a4.444,4.444,0,0,1,2.969-.03A14.2,14.2,0,0,1,679.574,648.7Z" transform="translate(-182.478 2592.047)" fill="#444" opacity="0.1"/>
    <path id="Path_576" data-name="Path 576" d="M661.637,674.879s-3.3-1.653-3.478-2.537a21.036,21.036,0,0,0-1.533-4.244,43.778,43.778,0,0,1-3.536-6.307c-.591-1.71-2.357-6.543-1.061-8.369s2.064-5.363,6.307-4.185,5.07,2.771,5.07,2.771l.465,1s10.256,9.538,10.433,9.837,5.658,4.421,5.658,4.421l6.78,4.067-5.713,6.313s-7.25-2.829-7.485-4.009-2.228-2.239-2.228-2.239l-2.723-1.061Z" transform="translate(-164.774 2590.423)" fill="#444"/>
    <path id="Path_577" data-name="Path 577" d="M666.695,671.063s1.238,1.238,1.238,1.708,1.706,1.3,1.706,1.3,13.559,8.422,15.151,8.4l2.829,2.861,3.993-8.277-5-3.929-10.433-9.372a11.543,11.543,0,0,0-3.006-1.473c-1.061-.177-6.482-2.652-6.955,2.122S666.695,671.063,666.695,671.063Z" transform="translate(-176.728 2580.153)" fill="#444" opacity="0.1"/>
    <path id="Path_578" data-name="Path 578" d="M664.695,673.063s1.238,1.238,1.238,1.708,1.706,1.3,1.706,1.3,13.559,8.422,15.151,8.4l2.829,2.861,3.993-8.277-5-3.929-10.433-9.372a11.545,11.545,0,0,0-3.006-1.473c-1.061-.177-6.482-2.652-6.955,2.122S664.695,673.063,664.695,673.063Z" transform="translate(-175.082 2578.507)" fill="#444" opacity="0.1"/>
    <path id="Path_579" data-name="Path 579" d="M664.695,671.063s1.238,1.238,1.238,1.708,1.706,1.3,1.706,1.3,13.559,8.422,15.151,8.4l2.829,2.861,3.993-8.277-5-3.929-10.433-9.372a11.543,11.543,0,0,0-3.006-1.473c-1.061-.177-6.482-2.652-6.955,2.122S664.695,671.063,664.695,671.063Z" transform="translate(-175.082 2580.153)" fill="#444"/>
    <path id="Path_580" data-name="Path 580" d="M664.695,671.063s1.238,1.238,1.238,1.708,1.706,1.3,1.706,1.3,13.559,8.422,15.151,8.4l2.829,2.861,3.993-8.277-5-3.929-10.433-9.372a11.543,11.543,0,0,0-3.006-1.473c-1.061-.177-6.482-2.652-6.955,2.122S664.695,671.063,664.695,671.063Z" transform="translate(-175.082 2580.153)" fill="#444"/>
    <path id="Path_581" data-name="Path 581" d="M674.86,736s3.561,5.9,5.494,6.429S674.86,736,674.86,736Z" transform="translate(-183.951 2518.808)" fill="#444" opacity="0.1"/>
    <path id="Path_582" data-name="Path 582" d="M783.02,708.1l-.536,3.026-.492,2.778-.21,1.2-4.642-1.473.474-2.591.026-.143.309-1.687Z" transform="translate(-264.407 2548.319)" fill="#444"/>
    <path id="Path_583" data-name="Path 583" d="M803.132,762.533l-.21,1.2-4.642-1.473.481-2.591c.679-.872,2.465-.177,2.465-.177,2.476-.3,1.643,2.594,1.643,2.594A.954.954,0,0,1,803.132,762.533Z" transform="translate(-285.547 2499.689)" fill="#444" opacity="0.1"/>
    <path id="Path_584" data-name="Path 584" d="M784.54,773.165c-1.238-1.121-5.719-1.651-7.192-1.651s-.884-.47-.884-.47l-.974-.707c-.667-.483-.354-1.625-.1-2.3.122-.315.233-.531.233-.531a22.255,22.255,0,0,1,.739-3.6c.37-.826,3.057-2.072,3.057-2.072-.228-2.476,2.711-1.346,2.711-1.346,2.476-.3,1.643,2.594,1.643,2.594.472.354.591,2.239.472,2.888a11.345,11.345,0,0,0,.412,2.707s.5,1.866.8,2.955c.058.209.108.391.147.531C785.836,772.988,784.54,773.165,784.54,773.165Z" transform="translate(-266.458 2498.858)" fill="#444"/>
    <path id="Path_585" data-name="Path 585" d="M784.54,809.488c-1.238-1.121-5.719-1.652-7.192-1.652s-.884-.47-.884-.47l-.974-.707c-.667-.483-.354-1.625-.1-2.3l1.319,1.179s-.377.3,0,.3h1.549a44.9,44.9,0,0,1,7.2,2.122c.058.209.108.391.147.53C785.836,809.311,784.54,809.488,784.54,809.488Z" transform="translate(-266.458 2462.536)" fill="#444" opacity="0.1"/>
    <circle id="Ellipse_312" data-name="Ellipse 312" cx="0.237" cy="0.237" r="0.237" transform="translate(512.496 3261.545)" fill="#444" opacity="0.1"/>
    <circle id="Ellipse_313" data-name="Ellipse 313" cx="0.237" cy="0.237" r="0.237" transform="translate(512.97 3263.417)" fill="#444" opacity="0.1"/>
    <circle id="Ellipse_314" data-name="Ellipse 314" cx="0.237" cy="0.237" r="0.237" transform="translate(512.843 3262.723)" fill="#444" opacity="0.1"/>
    <circle id="Ellipse_315" data-name="Ellipse 315" cx="0.237" cy="0.237" r="0.237" transform="translate(512.97 3264.353)" fill="#444" opacity="0.1"/>
    <circle id="Ellipse_316" data-name="Ellipse 316" cx="0.237" cy="0.237" r="0.237" transform="translate(511.831 3265.32)" fill="#444" opacity="0.1"/>
    <path id="Path_586" data-name="Path 586" d="M854.935,781.561l-1.749-.087a.612.612,0,0,1,0-.334s1.282-1.227-.84-3.575c0,0,.122-.55.614-.41,0,0-1.165-1.959-1.342-2.159a.158.158,0,0,1-.021-.1l.143.1,2.951,2.106Z" transform="translate(-329.435 2486.787)" fill="#444" opacity="0.1"/>
    <path id="Path_587" data-name="Path 587" d="M871.624,765.475a3.789,3.789,0,0,1-.462,1.931,3.844,3.844,0,0,1-.828,1.07h-.016a12.838,12.838,0,0,1-5.448.981c-2.41-.09-5.464-.083-6.493.465,0,0-3.559.994-3.206-.421,0,0,1.282-1.227-.84-3.575,0,0,.122-.55.614-.41,0,0-1.165-1.959-1.342-2.159a4.1,4.1,0,0,1,.423-1.553c.074-.2.149-.385.214-.546.117-.288.2-.488.2-.488.039.023.246.149.552.311a8.08,8.08,0,0,0,2.323.861,7.985,7.985,0,0,0,4.421,0c2.033-.619,2.918-1.473,5.68-.449S871.559,763.585,871.624,765.475Z" transform="translate(-331.071 2498.418)" fill="#444"/>
    <path id="Path_588" data-name="Path 588" d="M871.605,766.658a3.79,3.79,0,0,1-.461,1.931,7.518,7.518,0,0,0-3.259-4.971c-2.343-1.768-5.968.156-5.968.156s-2.939.131-5.084.131a4.669,4.669,0,0,1-2.829-.911,3.055,3.055,0,0,1-.444-.393l.658-.154.753-.177a8.077,8.077,0,0,0,2.323.861,7.985,7.985,0,0,0,4.421,0c2.033-.619,2.918-1.473,5.68-.449S871.54,764.768,871.605,766.658Z" transform="translate(-331.052 2497.235)" fill="#444" opacity="0.1"/>
    <path id="Path_589" data-name="Path 589" d="M811.825,613s-1.591,2.417-1.531,3.125-1.3,2.122-1.3,2.122-1.473,1.591-1.473,2.239-2.711,6.283-2.711,6.283-3.6,3.385-4.362,3.915-2.652,4.125-3.418,4.6-.751,3.867-.751,3.867l5.407-5.658s6.012,6.086,6.366,6.2,1.415-4.951,1.415-4.951,3.3-3.169,4.244-4.03,4.585-6.737,4.585-6.737,3.314-6.208,3.018-8.035S818.221,615.214,811.825,613Z" transform="translate(-283.901 2620.058)" fill="#444" opacity="0.1"/>
    <path id="Path_590" data-name="Path 590" d="M814.825,613s-1.591,2.417-1.531,3.125-1.3,2.122-1.3,2.122-1.473,1.591-1.473,2.239-2.711,6.283-2.711,6.283-3.6,3.385-4.362,3.915-2.652,4.125-3.418,4.6-.752,3.867-.752,3.867,6.212-4.044,8.532,5.151h0l2.122-3.091s.766-1.625,1.119-1.507,1.415-4.951,1.415-4.951,3.3-3.169,4.244-4.03,4.585-6.737,4.585-6.737,3.314-6.208,3.018-8.035S820.572,614.591,814.825,613Z" transform="translate(-286.37 2620.058)" fill="#444" opacity="0.1"/>
    <path id="Path_591" data-name="Path 591" d="M806.514,745.11l-.531,3.026a4.917,4.917,0,0,0-4.843-.233l.309-1.687Z" transform="translate(-287.901 2511.309)" fill="#444" opacity="0.1"/>
    <path id="Path_592" data-name="Path 592" d="M813.825,605.465s-1.591,2.417-1.531,3.125-1.3,2.122-1.3,2.122-1.473,1.591-1.473,2.239-2.711,6.283-2.711,6.283-3.6,3.385-4.362,3.915-2.652,4.125-3.418,4.6-.751,3.867-.751,3.867,6.212-4.044,8.532,5.151h0l2.122-3.091s.766-1.625,1.119-1.507,1.415-4.951,1.415-4.951,3.3-3.169,4.244-4.03,4.585-6.737,4.585-6.737,3.314-6.208,3.018-8.035S820.309,601.167,813.825,605.465Z" transform="translate(-285.547 2627.593)" fill="#444"/>
    <path id="Path_593" data-name="Path 593" d="M731.19,640.774s8.742-3.3,13.665,1.061Z" transform="translate(-230.32 2598.182)" fill="#444" opacity="0.1"/>
    <path id="Path_594" data-name="Path 594" d="M736.29,658.6s7,1.194,9.649.958S736.29,658.6,736.29,658.6Z" transform="translate(-234.518 2582.521)" fill="#444" opacity="0.1"/>
    <path id="Path_595" data-name="Path 595" d="M724.325,505.78s-.55,3.637.757,4.521S724.325,505.78,724.325,505.78Z" transform="translate(-224.575 2708.319)" fill="#444" opacity="0.1"/>
    <path id="Path_596" data-name="Path 596" d="M704.19,514.35s1.832,2.948,2.007,4.481" transform="translate(-208.095 2701.264)" fill="#444" opacity="0.1"/>
    <path id="Path_597" data-name="Path 597" d="M732.53,727.32s6.6,4.951,6.071,7.25-.393,0-.393,0Z" transform="translate(-231.423 2525.953)" fill="#444" opacity="0.1"/>
    <circle id="Ellipse_317" data-name="Ellipse 317" cx="0.237" cy="0.237" r="0.237" transform="translate(533.072 3262.247)" fill="#444" opacity="0.1"/>
    <circle id="Ellipse_318" data-name="Ellipse 318" cx="0.237" cy="0.237" r="0.237" transform="translate(534.018 3267.205)" fill="#444" opacity="0.1"/>
    <path id="Path_598" data-name="Path 598" d="M880.242,661.51s-4.279,4.154-4.265,6.161-.237,4.6-.237,4.6l1.432-5.3Z" transform="translate(-349.31 2580.126)" fill="#444" opacity="0.1"/>
    <path id="Path_599" data-name="Path 599" d="M871,638.35s-7.526,6.072-6.9,6.719S871,638.35,871,638.35Z" transform="translate(-339.702 2599.191)" fill="#444" opacity="0.1"/>
    <path id="Path_600" data-name="Path 600" d="M837.33,741s3.62,1.683,3.418,2.345S837.33,741,837.33,741Z" transform="translate(-317.692 2514.692)" fill="#444" opacity="0.1"/>
    <circle id="Ellipse_319" data-name="Ellipse 319" cx="0.237" cy="0.237" r="0.237" transform="translate(527.627 3263.417)" fill="#444" opacity="0.1"/>
    <circle id="Ellipse_320" data-name="Ellipse 320" cx="0.237" cy="0.237" r="0.237" transform="translate(524.406 3262.959)" fill="#444" opacity="0.1"/>
    <circle id="Ellipse_321" data-name="Ellipse 321" cx="0.237" cy="0.237" r="0.237" transform="translate(530.458 3263.324)" fill="#444" opacity="0.1"/>
    <circle id="Ellipse_322" data-name="Ellipse 322" cx="0.237" cy="0.237" r="0.237" transform="translate(531.3 3266.968)" fill="#444" opacity="0.1"/>
    <circle id="Ellipse_323" data-name="Ellipse 323" cx="0.237" cy="0.237" r="0.237" transform="translate(531.873 3262.85)" fill="#444" opacity="0.1"/>
    <circle id="Ellipse_324" data-name="Ellipse 324" cx="0.237" cy="0.237" r="0.237" transform="translate(532.624 3266.968)" fill="#444" opacity="0.1"/>
    <circle id="Ellipse_325" data-name="Ellipse 325" cx="0.237" cy="0.237" r="0.237" transform="translate(528.978 3263.561)" fill="#444" opacity="0.1"/>
    <circle id="Ellipse_326" data-name="Ellipse 326" cx="0.237" cy="0.237" r="0.237" transform="translate(529.597 3267.205)" fill="#444" opacity="0.1"/>
    <circle id="Ellipse_327" data-name="Ellipse 327" cx="0.237" cy="0.237" r="0.237" transform="translate(526.193 3263.324)" fill="#444" opacity="0.1"/>
    <path id="Path_601" data-name="Path 601" d="M782.365,669.71c-.058.324-.081.53-.081.53s-3.3,5.246-5.6,5.954c0,0-5.211,3.841-7.344,3.89l9.584-6.6Z" transform="translate(-261.724 2573.376)" fill="#444" opacity="0.1"/>
    <path id="Path_602" data-name="Path 602" d="M781.231,589.87l-.366,1.791s-.021.12-.062.332c-.276,1.455-1.415,7.264-2.343,8.449a9.4,9.4,0,0,0-1.355,3.89s-3.3,5.246-5.6,5.954c0,0-8.96,6.6-8.192,2.592s5.952-5.6,5.952-5.6a9.159,9.159,0,0,0,.707-1.652,13.18,13.18,0,0,1,1.533-2.122,21.014,21.014,0,0,0,1.415-3.006c.058-.53,2.417-10.256,2.417-10.256l1.4-.09Z" transform="translate(-256.725 2639.098)" fill="#444"/>
    <path id="Path_603" data-name="Path 603" d="M838.517,589.87l-.366,1.791s-.021.12-.062.332c-1.8.327-4.774.736-5.192-.039-.189-.354.325-1.031,1.121-1.8Z" transform="translate(-314.011 2639.098)" fill="#444" opacity="0.1"/>
    <path id="Path_604" data-name="Path 604" d="M839.417,573.41a28.528,28.528,0,0,1-4.951.679h-.285c-.67-.027-1.18-.15-1.335-.439-.193-.354.341-1.061,1.16-1.837a38.79,38.79,0,0,1,3.713-2.994c.646-.467,1.088-.769,1.088-.769l.6,1.768s-.065.315-.136.76C839.129,571.542,838.959,573.127,839.417,573.41Z" transform="translate(-313.969 2657.06)" fill="#444"/>
    <path id="Path_605" data-name="Path 605" d="M731.182,503.385q.872,2.122,1.793,4.208a2.478,2.478,0,0,1-.633.226,5.86,5.86,0,0,1-3.36-.677c-1.591-.683-3.319-1.494-4.037-3.07-.53-1.164-.393-2.509-.6-3.77-.177-1.089-.617-2.133-.707-3.232a15.483,15.483,0,0,1,.484-3.713q.409-.175.774-.354c1.164-.559,3.784-.315,4.833-.187a4.457,4.457,0,0,0-.06.767,4.387,4.387,0,0,0,.094.833c.262,1.34,1,2.612,1.006,3.987,0,.854-.285,1.692-.262,2.546A6.966,6.966,0,0,0,731.182,503.385Z" transform="translate(-224.093 2719.125)" fill="#444" opacity="0.1"/>
    <path id="Path_606" data-name="Path 606" d="M824.28,501.221c-.3,1-1,4.656-1,4.656s-.065.315-.136.76c-.131-.177-.255-.354-.38-.53-.081-.119-.164-.237-.251-.354a3.372,3.372,0,0,0-.921-.872,1.612,1.612,0,0,0-.87-.246,3.483,3.483,0,0,0-1.383.509c-1.786.884-4.269.8-5.441-.812a4,4,0,0,1-.695-2.212c1.724-4.716.766-11.741.766-11.741a70.569,70.569,0,0,1,9.018,4.479C826.52,497.1,824.575,500.215,824.28,501.221Z" transform="translate(-297.829 2720.996)" fill="#444" opacity="0.1"/>
    <path id="Path_607" data-name="Path 607" d="M727.737,378.861a9.633,9.633,0,0,0-.064,2.122c-.156,1.669-1.828,2.829-2.209,4.467-.292,1.25.223,2.548.164,3.83-.065,1.448-.859,2.8-.842,4.244.021,1.655,1.095,3.163,1.1,4.819,0,.856-.285,1.694-.262,2.548a6.911,6.911,0,0,0,.667,2.426q.872,2.122,1.793,4.209c-1.238.64-2.72.1-3.995-.451-1.591-.683-3.319-1.494-4.037-3.07-.53-1.164-.391-2.509-.6-3.77-.177-1.089-.617-2.133-.707-3.232a16.339,16.339,0,0,1,.5-3.805,13.424,13.424,0,0,0-.4-6.024,33.774,33.774,0,0,1-1.061-3.384,4.186,4.186,0,0,1,.612-3.384c.8-1.006,2.154-1.369,3.16-2.17a6.793,6.793,0,0,0,2.064-3.459c.329-1.114.622-2.4,1.641-2.962a2.653,2.653,0,0,1,1.342-.281c1.565.037,3.006.925,4.566,1.022a14.8,14.8,0,0,0,2.652-.253,9.835,9.835,0,0,1,6.366,1.317,7.336,7.336,0,0,1,3.441,5.391c.119,1.319-.177,2.652-.049,3.968a6.366,6.366,0,0,0,1.742,3.784,13.156,13.156,0,0,1,1.848,1.908,5.062,5.062,0,0,1,.654,2.026c.764,5.39-2.228,10.737-1.729,16.158a2.529,2.529,0,0,0,1.146,2.209,1.437,1.437,0,0,1-1.958.177,6.687,6.687,0,0,1-1.4-1.673,2.343,2.343,0,0,0-1.791-1.116,3.482,3.482,0,0,0-1.383.509c-1.786.884-4.269.8-5.441-.812-.884-1.218-.769-2.879-.531-4.366s.541-3.073-.064-4.453c-.454-1.033-1.415-1.959-1.248-3.073.124-.854.865-1.455,1.415-2.122a7.08,7.08,0,0,0,1.388-4.629,21.052,21.052,0,0,0-.87-4.847,9.332,9.332,0,0,0-1.544-3.66,3.372,3.372,0,0,0-3.337-1.22c-.52.094-1.01-.133-1.551.019a1.724,1.724,0,0,0-1.19,1.063Z" transform="translate(-219.204 2818.832)" fill="#444"/>
    <g id="Group_157" data-name="Group 157" transform="translate(498.487 3195.645)" opacity="0.1">
      <path id="Path_608" data-name="Path 608" d="M864.055,418.041c.032-.817.12-1.636.083-2.451C864.107,416.407,864.016,417.226,864.055,418.041Z" transform="translate(-838.171 -413.085)" fill="#444"/>
      <path id="Path_609" data-name="Path 609" d="M761.2,426.077a3.251,3.251,0,0,1,.069-.428c.38-1.634,2.053-2.8,2.209-4.467a5.321,5.321,0,0,0,0-.822c-.193,1.637-1.825,2.792-2.2,4.4A4.245,4.245,0,0,0,761.2,426.077Z" transform="translate(-753.494 -417.011)" fill="#444"/>
      <path id="Path_610" data-name="Path 610" d="M719.446,440.709a13.4,13.4,0,0,0-.566-4.323A32.867,32.867,0,0,1,717.819,433a5.95,5.95,0,0,1-.083-.621,5.567,5.567,0,0,0,.083,1.5,30.466,30.466,0,0,0,1.061,3.384,13.437,13.437,0,0,1,.566,3.439Z" transform="translate(-717.718 -426.906)" fill="#444"/>
      <path id="Path_611" data-name="Path 611" d="M762.608,523.254a19.865,19.865,0,0,0,.237-1.993,3.7,3.7,0,0,0-.026-.421,16.946,16.946,0,0,0-.235,2.085C762.587,523.034,762.6,523.146,762.608,523.254Z" transform="translate(-754.649 -499.724)" fill="#444"/>
      <path id="Path_612" data-name="Path 612" d="M757.884,472.513c.133-1.264.759-2.476.817-3.752a5.485,5.485,0,0,0-.014-.681c-.126,1.372-.844,2.667-.828,4.048A3.51,3.51,0,0,0,757.884,472.513Z" transform="translate(-750.761 -456.293)" fill="#444"/>
      <path id="Path_613" data-name="Path 613" d="M825.26,555.782a1.71,1.71,0,0,1-1.376-.249,6.807,6.807,0,0,1-1.4-1.673,2.343,2.343,0,0,0-1.791-1.116,3.482,3.482,0,0,0-1.383.509c-1.786.884-4.269.8-5.441-.812a3.928,3.928,0,0,1-.688-2.111,4.548,4.548,0,0,0,.688,3c1.172,1.614,3.655,1.7,5.441.812a3.461,3.461,0,0,1,1.383-.509,2.343,2.343,0,0,1,1.791,1.116,6.843,6.843,0,0,0,1.4,1.673,1.422,1.422,0,0,0,1.959-.177A1.473,1.473,0,0,1,825.26,555.782Z" transform="translate(-796.287 -523.999)" fill="#444"/>
      <path id="Path_614" data-name="Path 614" d="M878.081,500.9c.127-4.366,2.028-8.693,1.894-13.041C879.851,492.2,877.952,496.53,878.081,500.9Z" transform="translate(-849.719 -472.575)" fill="#444"/>
      <path id="Path_615" data-name="Path 615" d="M808.194,503.7a5.022,5.022,0,0,0-.34-2.35,15.9,15.9,0,0,1-1.21-2.373c-.016.06-.028.12-.039.177-.161,1.114.794,2.041,1.248,3.073a4.386,4.386,0,0,1,.34,1.473Z" transform="translate(-790.873 -481.729)" fill="#444"/>
      <path id="Path_616" data-name="Path 616" d="M729.017,520.8c-1.591-.682-3.319-1.494-4.037-3.07-.53-1.164-.391-2.509-.6-3.77-.177-1.084-.61-2.122-.7-3.213a5.875,5.875,0,0,0,0,.865c.083,1.1.53,2.143.707,3.232.207,1.261.069,2.606.6,3.77.718,1.576,2.445,2.387,4.037,3.07,1.277.546,2.764,1.091,3.995.451-.108-.249-.214-.5-.324-.748A5.329,5.329,0,0,1,729.017,520.8Z" transform="translate(-722.617 -491.418)" fill="#444"/>
      <path id="Path_617" data-name="Path 617" d="M780.118,403.6a9.331,9.331,0,0,1,1.544,3.66,21.889,21.889,0,0,1,.859,4.635c.012-.225.016-.449.011-.672a20.938,20.938,0,0,0-.87-4.847,9.332,9.332,0,0,0-1.544-3.66,3.37,3.37,0,0,0-3.337-1.22c-.52.094-1.01-.133-1.551.021a1.719,1.719,0,0,0-1.183,1.072,3.329,3.329,0,0,0-.078,1.238,2.136,2.136,0,0,1,.078-.354,1.719,1.719,0,0,1,1.183-1.072c.541-.154,1.031.072,1.551-.021A3.37,3.37,0,0,1,780.118,403.6Z" transform="translate(-764.002 -401.422)" fill="#444"/>
    </g>
    <path id="Path_618" data-name="Path 618" d="M738.074,582.35s2.746,7.31-3.62,10.256c0,0-11.4-1.289-14.912-.354s-3.609-6.955-2.011-7.427S738.074,582.35,738.074,582.35Z" transform="translate(-218.259 2645.289)" fill="#444" opacity="0.1"/>
    <path id="Path_619" data-name="Path 619" d="M737.074,580.35s2.746,7.31-3.62,10.256c0,0-11.4-1.289-14.912-.354s-3.609-6.955-2.011-7.427S737.074,580.35,737.074,580.35Z" transform="translate(-217.436 2646.935)" fill="#444"/>
    <path id="Path_620" data-name="Path 620" d="M703.27,593.23l1,5.924S704.52,594.682,703.27,593.23Z" transform="translate(-207.337 2636.332)" fill="#444" opacity="0.1"/>
    <path id="Path_621" data-name="Path 621" d="M782.571,554s-.228,2.652-.334,3.478S782.978,554.239,782.571,554Z" transform="translate(-272.333 2668.625)" fill="#444" opacity="0.1"/>
    <path id="Path_622" data-name="Path 622" d="M799.57,769.3s2.423,4.284,4.354,1.248" transform="translate(-286.609 2491.396)" fill="none" stroke="#000" stroke-miterlimit="10" stroke-width="1" opacity="0.1"/>
    <path id="Path_623" data-name="Path 623" d="M861.33,787.65s5.89,3.068,3.744,4.276" transform="translate(-337.448 2476.291)" fill="none" stroke="#000" stroke-miterlimit="10" stroke-width="1" opacity="0.1"/>
    <path id="Path_624" data-name="Path 624" d="M412.565,655.477c-.073.255-.4.461-.872.628a25.664,25.664,0,0,1-5.772.718l-7.467-.177-3.7-.531A15.468,15.468,0,0,1,393,655.5c-.44-.195-.81-.409-.884-.607a26.174,26.174,0,0,1,10.963-1.839C408.793,653.488,412.915,654.251,412.565,655.477Z" transform="translate(48.793 2587.13)" fill="#444"/>
    <path id="Path_625" data-name="Path 625" d="M412.565,655.477c-.073.255-.4.461-.872.628a25.664,25.664,0,0,1-5.772.718l-7.467-.177-3.7-.531A15.468,15.468,0,0,1,393,655.5c-.44-.195-.81-.409-.884-.607a26.174,26.174,0,0,1,10.963-1.839C408.793,653.488,412.915,654.251,412.565,655.477Z" transform="translate(48.793 2587.13)" fill="#1c1c1c" opacity="0.1"/>
    <path id="Path_626" data-name="Path 626" d="M414.691,668.9l-.221,4.665-.1,2.09-.327,6.9-.088,1.892-.24,5.052c-5.742,2.849-18.088,0-18.088,0l-.191-5.052-.094-2.476h0l-.239-6.318-.1-2.578-.166-4.44C401.782,670.925,414.691,668.9,414.691,668.9Z" transform="translate(46.554 2574.265)" fill="#444"/>
    <path id="Path_627" data-name="Path 627" d="M415.21,694.258l-.1,2.09H395.837l-.1-2.578C398.228,694.548,408.643,697.485,415.21,694.258Z" transform="translate(45.813 2553.57)" fill="#1c1c1c" opacity="0.1"/>
    <path id="Path_628" data-name="Path 628" d="M416.381,744.654l-.088,1.892H397.774l-.094-2.476C400.589,744.951,410.068,747.439,416.381,744.654Z" transform="translate(44.216 2512.165)" fill="#1c1c1c" opacity="0.1"/>
    <ellipse id="Ellipse_328" data-name="Ellipse 328" cx="4.647" cy="1.966" rx="4.647" ry="1.966" transform="translate(446.672 3247.326)" fill="#444" opacity="0.1"/>
    <ellipse id="Ellipse_329" data-name="Ellipse 329" cx="4.647" cy="1.966" rx="4.647" ry="1.966" transform="translate(446.672 3247.213)" fill="#00a9b1"/>
    <ellipse id="Ellipse_330" data-name="Ellipse 330" cx="6.979" cy="0.882" rx="6.979" ry="0.882" transform="translate(444.845 3242.301)" fill="#444" opacity="0.1"/>
    <ellipse id="Ellipse_331" data-name="Ellipse 331" cx="6.979" cy="0.882" rx="6.979" ry="0.882" transform="translate(444.884 3242.375)" fill="#00a9b1"/>
    <path id="Path_629" data-name="Path 629" d="M412.589,655.964c-.073.253-.4.46-.872.628-1.225-3.232-9.161-2.361-9.161-2.361-5.72-.354-8.7,1.238-9.522,1.768-.44-.193-.81-.408-.884-.6a26.174,26.174,0,0,1,10.963-1.839C408.823,653.988,412.94,654.737,412.589,655.964Z" transform="translate(48.768 2586.718)" fill="#444" opacity="0.1"/>
    <path id="Path_630" data-name="Path 630" d="M412.589,655.526c-.073.255-.4.462-.872.628-1.225-3.232-9.161-2.361-9.161-2.361-5.72-.354-8.7,1.238-9.522,1.768-.44-.195-.81-.408-.884-.607a26.175,26.175,0,0,1,10.963-1.839C408.823,653.548,412.94,654.3,412.589,655.526Z" transform="translate(48.768 2587.081)" fill="#444"/>
    <path id="Path_631" data-name="Path 631" d="M396.454,780.82s-1.222.564-.076,1.5,8.742,1.537,10.657,1.183c0,0,6.962-.375,7.871-1.37,0,0,.021-.672-.313-.693,0,0-2.69,1.19-8.627,1.088S396.155,782.019,396.454,780.82Z" transform="translate(45.692 2481.913)" fill="#444" opacity="0.1"/>
    <path id="Path_632" data-name="Path 632" d="M396.454,781.24s-1.222.564-.076,1.5,8.742,1.538,10.657,1.181c0,0,6.962-.375,7.871-1.369,0,0,.021-.674-.313-.693,0,0-2.69,1.188-8.627,1.086S396.155,782.435,396.454,781.24Z" transform="translate(45.692 2481.567)" fill="#444"/>
    <path id="Path_633" data-name="Path 633" d="M384.324,687.955c-.736-.207-3.588-1.34-2.159-6.189,0,0,1.538-5.2,2.476-6.437,0,0-.163-.29-.393,0a18.165,18.165,0,0,0-.919,2.009s-2.985,5.646-1.484,8.893a4.077,4.077,0,0,0,2.453,2.122" transform="translate(57.599 2568.856)" fill="#444"/>
    <path id="Path_634" data-name="Path 634" d="M392.055,664.21s-.094.828.5,1.126,17.253,2.438,19.842.53c0,0,.375-1.163,0-1.126S397.458,667.287,392.055,664.21Z" transform="translate(48.851 2577.903)" fill="#444" opacity="0.1"/>
    <path id="Path_635" data-name="Path 635" d="M392.055,663.78s-.094.828.5,1.128,17.253,2.437,19.842.53c0,0,.375-1.164,0-1.126S397.458,666.859,392.055,663.78Z" transform="translate(48.851 2578.257)" fill="#444"/>
    <circle id="Ellipse_332" data-name="Ellipse 332" cx="0.854" cy="0.854" r="0.854" transform="translate(441.374 3243.462)" fill="#444" opacity="0.1"/>
    <circle id="Ellipse_333" data-name="Ellipse 333" cx="0.854" cy="0.854" r="0.854" transform="translate(441.254 3243.332)" fill="#444"/>
    <path id="Path_636" data-name="Path 636" d="M273.945,659.483c.044.152.242.278.53.378a15.517,15.517,0,0,0,3.491.433l4.518-.1,2.235-.318a9.465,9.465,0,0,0,1.061-.371,1.132,1.132,0,0,0,.539-.366,15.835,15.835,0,0,0-6.627-1.112C276.247,658.287,273.738,658.74,273.945,659.483Z" transform="translate(146.081 2583.021)" fill="#444"/>
    <path id="Path_637" data-name="Path 637" d="M273.945,659.483c.044.152.242.278.53.378a15.517,15.517,0,0,0,3.491.433l4.518-.1,2.235-.318a9.465,9.465,0,0,0,1.061-.371,1.132,1.132,0,0,0,.539-.366,15.835,15.835,0,0,0-6.627-1.112C276.247,658.287,273.738,658.74,273.945,659.483Z" transform="translate(146.081 2583.021)" fill="#1c1c1c" opacity="0.1"/>
    <path id="Path_638" data-name="Path 638" d="M274.42,667.587l.133,2.82.06,1.264.2,4.173.055,1.146.143,3.056c3.473,1.722,10.942,0,10.942,0l.115-3.056.057-1.5h0l.145-3.821.058-1.558.1-2.686C282.227,668.813,274.42,667.587,274.42,667.587Z" transform="translate(145.68 2575.253)" fill="#444"/>
    <path id="Path_639" data-name="Path 639" d="M275.17,682.9l.06,1.264h11.655l.058-1.558C285.442,683.08,279.143,684.858,275.17,682.9Z" transform="translate(145.063 2562.757)" fill="#1c1c1c" opacity="0.1"/>
    <path id="Path_640" data-name="Path 640" d="M276.63,713.37l.055,1.146h11.2l.057-1.5C286.182,713.547,280.449,715.061,276.63,713.37Z" transform="translate(143.861 2537.725)" fill="#1c1c1c" opacity="0.1"/>
    <ellipse id="Ellipse_334" data-name="Ellipse 334" cx="2.812" cy="1.188" rx="2.812" ry="1.188" transform="translate(423.292 3245.358)" fill="#444" opacity="0.1"/>
    <ellipse id="Ellipse_335" data-name="Ellipse 335" cx="2.812" cy="1.188" rx="2.812" ry="1.188" transform="translate(423.292 3245.291)" fill="#444"/>
    <ellipse id="Ellipse_336" data-name="Ellipse 336" cx="2.812" cy="1.188" rx="2.812" ry="1.188" transform="translate(423.292 3245.291)" fill="#00a9b1" opacity="0.5"/>
    <ellipse id="Ellipse_337" data-name="Ellipse 337" cx="4.223" cy="0.534" rx="4.223" ry="0.534" transform="translate(421.575 3242.317)" fill="#444" opacity="0.1"/>
    <ellipse id="Ellipse_338" data-name="Ellipse 338" cx="4.223" cy="0.534" rx="4.223" ry="0.534" transform="translate(421.552 3242.363)" fill="#444"/>
    <ellipse id="Ellipse_339" data-name="Ellipse 339" cx="4.223" cy="0.534" rx="4.223" ry="0.534" transform="translate(421.575 3242.368)" fill="#00a9b1" opacity="0.5"/>
    <path id="Path_641" data-name="Path 641" d="M273.945,659.693c.044.154.242.279.53.38.743-1.956,5.545-1.427,5.545-1.427a9.733,9.733,0,0,1,5.759,1.061,1.132,1.132,0,0,0,.539-.368,15.867,15.867,0,0,0-6.627-1.112C276.247,658.487,273.738,658.953,273.945,659.693Z" transform="translate(146.081 2582.855)" fill="#444" opacity="0.1"/>
    <path id="Path_642" data-name="Path 642" d="M273.945,659.442c.044.152.242.278.53.378.743-1.956,5.545-1.427,5.545-1.427a9.747,9.747,0,0,1,5.759,1.061,1.132,1.132,0,0,0,.539-.366,15.835,15.835,0,0,0-6.627-1.112C276.247,658.237,273.738,658.7,273.945,659.442Z" transform="translate(146.081 2583.063)" fill="#444"/>
    <path id="Path_643" data-name="Path 643" d="M287.791,735.26s.739.341.046.909-5.289.93-6.445.707c0,0-4.212-.226-4.762-.829,0,0-.012-.407.189-.419a13.58,13.58,0,0,0,5.218.658C285.628,736.224,287.971,735.985,287.791,735.26Z" transform="translate(143.862 2519.417)" fill="#444" opacity="0.1"/>
    <path id="Path_644" data-name="Path 644" d="M287.791,735.51s.739.341.046.909-5.289.932-6.445.716c0,0-4.212-.228-4.762-.829,0,0-.012-.407.189-.419a13.579,13.579,0,0,0,5.218.658C285.628,736.483,287.971,736.237,287.791,735.51Z" transform="translate(143.862 2519.211)" fill="#444"/>
    <path id="Path_645" data-name="Path 645" d="M339.621,679.1c.446-.126,2.17-.81,1.307-3.743a21.749,21.749,0,0,0-1.5-3.89s.1-.177.237,0a11.359,11.359,0,0,1,.557,1.213s1.8,3.414.9,5.379a2.486,2.486,0,0,1-1.484,1.284" transform="translate(92.166 2571.997)" fill="#444"/>
    <path id="Path_646" data-name="Path 646" d="M286.26,664.72s.057.5-.3.682-10.433,1.475-12,.317c0,0-.228-.707,0-.681S282.99,666.582,286.26,664.72Z" transform="translate(146.144 2577.483)" fill="#444" opacity="0.1"/>
    <path id="Path_647" data-name="Path 647" d="M286.26,664.47s.057.5-.3.681-10.433,1.475-12,.318c0,0-.228-.707,0-.681S282.99,666.332,286.26,664.47Z" transform="translate(146.144 2577.689)" fill="#444"/>
    <circle id="Ellipse_340" data-name="Ellipse 340" cx="0.516" cy="0.516" r="0.516" transform="translate(431.085 3243.021)" fill="#444" opacity="0.1"/>
    <circle id="Ellipse_341" data-name="Ellipse 341" cx="0.516" cy="0.516" r="0.516" transform="translate(431.159 3242.943)" fill="#444"/>
    <path id="Path_648" data-name="Path 648" d="M1004.412,663.225c.044.154.242.278.531.38a15.626,15.626,0,0,0,3.491.433l4.516-.1,2.235-.318a9.366,9.366,0,0,0,1.061-.371c.267-.117.49-.246.53-.366a15.866,15.866,0,0,0-6.627-1.112C1006.7,662.027,1004.2,662.489,1004.412,663.225Z" transform="translate(-455.219 2579.941)" fill="#444"/>
    <path id="Path_649" data-name="Path 649" d="M1004.412,663.225c.044.154.242.278.531.38a15.626,15.626,0,0,0,3.491.433l4.516-.1,2.235-.318a9.366,9.366,0,0,0,1.061-.371c.267-.117.49-.246.53-.366a15.866,15.866,0,0,0-6.627-1.112C1006.7,662.027,1004.2,662.489,1004.412,663.225Z" transform="translate(-455.219 2579.941)" fill="#1c1c1c" opacity="0.1"/>
    <path id="Path_650" data-name="Path 650" d="M1004.86,671.352l.134,2.829.06,1.264.2,4.173.055,1.144.145,3.056c3.473,1.724,10.94,0,10.94,0l.115-3.056.057-1.5h0l.145-3.821.058-1.56.1-2.686C1012.665,672.579,1004.86,671.352,1004.86,671.352Z" transform="translate(-455.598 2572.149)" fill="#444"/>
    <path id="Path_651" data-name="Path 651" d="M1005.62,686.625l.06,1.264h11.653l.058-1.56C1015.892,686.8,1009.592,688.581,1005.62,686.625Z" transform="translate(-456.224 2559.695)" fill="#1c1c1c" opacity="0.1"/>
    <path id="Path_652" data-name="Path 652" d="M1007.07,717.132l.055,1.144h11.2l.057-1.5C1016.624,717.312,1010.89,718.817,1007.07,717.132Z" transform="translate(-457.417 2534.629)" fill="#1c1c1c" opacity="0.1"/>
    <ellipse id="Ellipse_342" data-name="Ellipse 342" cx="2.812" cy="1.188" rx="2.812" ry="1.188" transform="translate(552.454 3246.021)" fill="#444" opacity="0.1"/>
    <ellipse id="Ellipse_343" data-name="Ellipse 343" cx="2.812" cy="1.188" rx="2.812" ry="1.188" transform="translate(552.454 3245.952)" fill="#444"/>
    <ellipse id="Ellipse_344" data-name="Ellipse 344" cx="2.812" cy="1.188" rx="2.812" ry="1.188" transform="translate(552.454 3245.952)" fill="#00a9b1" opacity="0.2"/>
    <ellipse id="Ellipse_345" data-name="Ellipse 345" cx="4.223" cy="0.534" rx="4.223" ry="0.534" transform="translate(550.737 3242.98)" fill="#444" opacity="0.1"/>
    <ellipse id="Ellipse_346" data-name="Ellipse 346" cx="4.223" cy="0.534" rx="4.223" ry="0.534" transform="translate(550.714 3243.024)" fill="#444"/>
    <ellipse id="Ellipse_347" data-name="Ellipse 347" cx="4.223" cy="0.534" rx="4.223" ry="0.534" transform="translate(550.896 3242.98)" fill="#00a9b1" opacity="0.2"/>
    <path id="Path_653" data-name="Path 653" d="M1004.412,663.442c.044.152.242.278.531.378.741-1.956,5.543-1.427,5.543-1.427a9.749,9.749,0,0,1,5.759,1.061c.267-.117.49-.248.53-.366a15.835,15.835,0,0,0-6.627-1.112C1006.7,662.237,1004.2,662.7,1004.412,663.442Z" transform="translate(-455.219 2579.77)" fill="#444" opacity="0.1"/>
    <path id="Path_654" data-name="Path 654" d="M1004.412,663.183c.044.154.242.278.531.38.741-1.956,5.543-1.429,5.543-1.429a9.749,9.749,0,0,1,5.759,1.061c.267-.117.49-.246.53-.366a15.866,15.866,0,0,0-6.627-1.112C1006.7,661.977,1004.2,662.448,1004.412,663.183Z" transform="translate(-455.219 2579.982)" fill="#444"/>
    <path id="Path_655" data-name="Path 655" d="M1028.415,667Z" transform="translate(-474.986 2575.607)" fill="#444"/>
    <path id="Path_656" data-name="Path 656" d="M1031.991,659.836l.1.449c-.177-.069-.589-.958-.589-.958-.157.124.064.872.064.872-.269-.186-.421-.831-.421-.831a2.082,2.082,0,0,0,0,.5,2.984,2.984,0,0,1-.4-.916c-.067.048-.055.5-.055.518a3.933,3.933,0,0,0-.239-.792,4.546,4.546,0,0,0-.129.571c-.187-.032-.683-1.151-.683-1.151s-.1-.156-.078-.1a3.228,3.228,0,0,1,0,.469c-.253-.108-.339-1.029-.339-1.029l-.152.341-.159-.329c0,.014.138.484.055.456a1.721,1.721,0,0,1-.294-.6c-.02-.094.113-.308.113-.308s-.331-.018-.38-.016c.067-.037.707-.679.707-.679s.014-.025.041-.064a4.969,4.969,0,0,1,.493-.67,4.113,4.113,0,0,0,.439-.6c.055-.083.09-.141.09-.141l3.319,1.975-.064.152c-.039.088-.08.177-.124.262-.069.134-.145.265-.226.392-.165.256-.382.592-.552.852-.1.159-.193.29-.237.354-.177.251-.1.688-.134.767a3.561,3.561,0,0,0,.177.721A3.119,3.119,0,0,1,1031.991,659.836Z" transform="translate(-474.975 2585.625)" fill="#444"/>
    <path id="Path_657" data-name="Path 657" d="M1048.66,668.043V667.2a25.458,25.458,0,0,1,1.077-2.4h.014c-.012.023-1.073,2.182-1.075,2.391s0,.84,0,.847Z" transform="translate(-491.653 2577.417)" fill="#444" opacity="0.1"/>
    <path id="Path_658" data-name="Path 658" d="M1028.415,667Z" transform="translate(-474.986 2575.607)" fill="none"/>
    <path id="Path_659" data-name="Path 659" d="M1030.878,658.555a4.8,4.8,0,0,1-.145-.592,1.026,1.026,0,0,1,.235-.53,1.108,1.108,0,0,0,.088-.147,7.824,7.824,0,0,1,.469-.649s.412-.58.44-.663a2.764,2.764,0,0,1,.223-.354h.012a2.574,2.574,0,0,0-.221.354c-.028.085-.424.644-.442.668s-.423.539-.467.645a.918.918,0,0,1-.09.147,1.053,1.053,0,0,0-.232.531,5.267,5.267,0,0,0,.143.589Z" transform="translate(-476.895 2584.975)" fill="#444" opacity="0.1"/>
    <path id="Path_660" data-name="Path 660" d="M1032.06,658.938a2.446,2.446,0,0,1,.242-.774c.046-.048.414-.752.428-.789s.575-.884.75-1.155h.012c-.255.389-.737,1.13-.748,1.151s-.378.736-.431.794a2.611,2.611,0,0,0-.239.757Z" transform="translate(-477.985 2584.48)" fill="#444" opacity="0.1"/>
    <path id="Path_661" data-name="Path 661" d="M1034.485,660.371c-.262-.334.085-1.48.088-1.492.037-.12,1.042-1.671,1.084-1.738l.012.009c-.009.016-1.045,1.614-1.082,1.735-.1.318-.3,1.206-.09,1.477Z" transform="translate(-479.904 2583.723)" fill="#444" opacity="0.1"/>
    <path id="Path_662" data-name="Path 662" d="M1036.679,661.97c-.232-.456.194-1.438.2-1.446.034-.074.969-1.657,1.008-1.724h.014c-.011.016-.974,1.65-1.008,1.722,0,.011-.426.983-.2,1.434Z" transform="translate(-481.734 2582.357)" fill="#444" opacity="0.1"/>
    <path id="Path_663" data-name="Path 663" d="M1037.829,662.483a1.411,1.411,0,0,1-.078-1.169,5.741,5.741,0,0,1,.244-.808l.884-1.636h.012l-.884,1.636c0,.014-.589,1.491-.159,1.97l-.012.011Z" transform="translate(-482.609 2582.299)" fill="#444" opacity="0.1"/>
    <path id="Path_664" data-name="Path 664" d="M1038.981,663.856a2.767,2.767,0,0,1,.085-1.264,23.755,23.755,0,0,1,1.209-2.171l.014.009c-.012.018-1.126,1.866-1.208,2.166a2.809,2.809,0,0,0-.087,1.254Z" transform="translate(-483.645 2581.023)" fill="#444" opacity="0.1"/>
    <path id="Path_665" data-name="Path 665" d="M1040.46,664.265l.177-.776a2.023,2.023,0,0,1,.216-.568l.431-.764.531-.817h.012l-.531.817-.43.762a2.078,2.078,0,0,0-.216.564l-.177.776Z" transform="translate(-484.903 2580.266)" fill="#444" opacity="0.1"/>
    <path id="Path_666" data-name="Path 666" d="M1043.142,665.763c-.225-.263-.1-.99-.025-1.388.014-.083.026-.15.03-.191a23.66,23.66,0,0,1,1.047-2.164h.012c0,.019-1.019,1.931-1.043,2.159a1.441,1.441,0,0,1-.032.193c-.067.38-.207,1.172.049,1.4l-.01.012A.219.219,0,0,1,1043.142,665.763Z" transform="translate(-487.007 2579.706)" fill="#444" opacity="0.1"/>
    <path id="Path_667" data-name="Path 667" d="M1043.89,665.635s.03-.417.026-.516a11.381,11.381,0,0,1,.371-1.107l.764-1.591h.014l-.764,1.591s-.377,1-.371,1.1-.023.5-.025.52Z" transform="translate(-487.726 2579.377)" fill="#444" opacity="0.1"/>
    <path id="Path_668" data-name="Path 668" d="M1045.478,666.837c-.37-.569-.014-2.026.044-2.147s.859-1.784.868-1.8h.012c0,.016-.808,1.682-.866,1.8s-.412,1.567-.046,2.122Z" transform="translate(-488.897 2578.99)" fill="#444" opacity="0.1"/>
    <path id="Path_669" data-name="Path 669" d="M1047.663,667.7c-.488-.576-.062-2.034,0-2.161l.737-1.6h.014l-.737,1.606c-.062.133-.531,1.735.087,2.226v.012A.572.572,0,0,1,1047.663,667.7Z" transform="translate(-490.642 2578.125)" fill="#444" opacity="0.1"/>
    <path id="Path_670" data-name="Path 670" d="M1041.328,656.961,1038,654.971c.055-.083.09-.141.09-.141l3.3,1.975Z" transform="translate(-482.878 2585.625)" fill="#444" opacity="0.1"/>
    <path id="Path_671" data-name="Path 671" d="M1041.171,630.3l-3.471-2.074.516-.615.377-.449s.069-.394.385-.4.95.679,1.19.568a7.86,7.86,0,0,0,.987-1.558s1.475-1.945,1.6-2.161a13.013,13.013,0,0,1,1.374-1.164c.2,0-.129.845-.154,1.061a10.112,10.112,0,0,1-1.238,1.945c-.148.083-1.284,1.556-1.284,1.556a1.292,1.292,0,0,0-.52.815,4.646,4.646,0,0,1,.964.691.308.308,0,0,1,.044.366l-.393.783Z" transform="translate(-482.631 2612.279)" fill="#444"/>
    <path id="Path_672" data-name="Path 672" d="M1041.171,654.35l-3.471-2.074.516-.615a11.657,11.657,0,0,0,3.331,2.037Z" transform="translate(-482.631 2588.234)" fill="#444" opacity="0.1"/>
    <path id="Path_673" data-name="Path 673" d="M1031.991,666.4l.1.449c-.177-.069-.589-.958-.589-.958-.157.124.064.872.064.872-.269-.186-.421-.831-.421-.831a1.987,1.987,0,0,0,0,.5,2.984,2.984,0,0,1-.4-.916c-.069.048-.055.5-.055.518a3.934,3.934,0,0,0-.239-.792,4.553,4.553,0,0,0-.129.571c-.187-.032-.683-1.151-.683-1.151s-.1-.156-.078-.1a3.228,3.228,0,0,1,0,.469c-.253-.108-.339-1.029-.339-1.029l-.152.341-.159-.329c0,.012.138.484.055.456a1.721,1.721,0,0,1-.294-.6c-.02-.094.113-.308.113-.308s-.331-.018-.38-.016c.067-.037.707-.679.707-.679l.041-.064c.03.1.053.189.076.253a.6.6,0,0,0,.14.248.451.451,0,0,0,.364.088c.129-.016.253-.058.38-.073a.211.211,0,0,1,.161.028.27.27,0,0,1,.076.145,2.086,2.086,0,0,0,.626.98.259.259,0,0,0,.1.062.4.4,0,0,0,.157,0,.531.531,0,0,1,.531.285c.042.088.069.2.157.244a.329.329,0,0,0,.166.014l.426-.041c-.1.159-.193.29-.237.354-.177.251-.1.688-.135.767a3.56,3.56,0,0,0,.177.721A3.125,3.125,0,0,1,1031.991,666.4Z" transform="translate(-474.975 2579.056)" fill="#444"/>
    <path id="Path_674" data-name="Path 674" d="M1032.092,666.4l.1.449c-.168-.069-.589-.958-.589-.958-.157.124.064.872.064.872-.269-.186-.421-.831-.421-.831a1.981,1.981,0,0,0,0,.5,2.982,2.982,0,0,1-.4-.916c-.069.048-.055.5-.055.518a3.934,3.934,0,0,0-.239-.792,4.553,4.553,0,0,0-.129.571c-.187-.032-.683-1.151-.683-1.151s-.1-.156-.079-.1a3.228,3.228,0,0,1,0,.469c-.253-.108-.339-1.029-.339-1.029l-.154.341-.157-.329c0,.012.138.484.055.456a1.724,1.724,0,0,1-.294-.6c-.019-.094.113-.308.113-.308s-.332-.018-.38-.016c.065-.037.707-.679.707-.679l.041-.064c.03.1.053.189.076.253a.6.6,0,0,0,.14.248.451.451,0,0,0,.364.088c.129-.016.251-.058.38-.073a.213.213,0,0,1,.161.028.27.27,0,0,1,.076.145,2.086,2.086,0,0,0,.626.98.267.267,0,0,0,.1.062.406.406,0,0,0,.159,0,.53.53,0,0,1,.53.285c.042.088.069.2.157.244a.329.329,0,0,0,.166.014l.426-.041c-.106.159-.193.29-.237.354-.177.251-.1.688-.134.767a3.552,3.552,0,0,0,.177.721A3.028,3.028,0,0,1,1032.092,666.4Z" transform="translate(-475.058 2579.056)" fill="#00a9b1" opacity="0.2"/>
    <path id="Path_675" data-name="Path 675" d="M1018.231,739s.739.341.046.909-5.287.93-6.445.707c0,0-4.212-.226-4.762-.828,0,0-.012-.407.189-.419a13.624,13.624,0,0,0,5.22.656C1016.07,739.964,1018.413,739.725,1018.231,739Z" transform="translate(-457.417 2516.338)" fill="#444" opacity="0.1"/>
    <rect id="Rectangle_665" data-name="Rectangle 665" width="5.747" height="2.014" transform="translate(552.666 3243.901)" fill="#444"/>
    <path id="Path_676" data-name="Path 676" d="M1018.231,739.26s.739.341.046.909-5.287.93-6.445.707c0,0-4.212-.226-4.762-.829,0,0-.012-.407.189-.419a13.594,13.594,0,0,0,5.22.658C1016.07,740.224,1018.413,739.985,1018.231,739.26Z" transform="translate(-457.417 2516.125)" fill="#444"/>
    <path id="Path_677" data-name="Path 677" d="M1070.111,682.838c.446-.126,2.171-.81,1.307-3.743a21.611,21.611,0,0,0-1.5-3.89s.1-.177.239,0a10.964,10.964,0,0,1,.555,1.215s1.805,3.416.9,5.379a2.476,2.476,0,0,1-1.484,1.284" transform="translate(-509.154 2568.918)" fill="#444"/>
    <path id="Path_678" data-name="Path 678" d="M1016.694,668.47s.057.5-.3.681-10.433,1.475-12,.318c0,0-.226-.707,0-.682S1013.435,670.332,1016.694,668.47Z" transform="translate(-455.13 2574.396)" fill="#444" opacity="0.1"/>
    <path id="Path_679" data-name="Path 679" d="M1016.694,668.21s.057.5-.3.683-10.433,1.475-12,.317c0,0-.226-.707,0-.681S1013.435,670.072,1016.694,668.21Z" transform="translate(-455.13 2574.611)" fill="#444"/>
    <circle id="Ellipse_348" data-name="Ellipse 348" cx="0.516" cy="0.516" r="0.516" transform="translate(560.248 3243.684)" fill="#444" opacity="0.1"/>
    <circle id="Ellipse_349" data-name="Ellipse 349" cx="0.516" cy="0.516" r="0.516" transform="translate(560.321 3243.604)" fill="#444"/>
    <path id="Path_683" data-name="Path 683" d="M268.6,422.55a8.488,8.488,0,0,1,.435,3.625c-.272,1.68.094.5.315,1.229a19.887,19.887,0,0,1,.223,3.225v-1.712s-.081-2.608,0-3.383A10.118,10.118,0,0,0,268.6,422.55Z" transform="translate(150.471 2776.832)" fill="#00a9b1" opacity="0.5"/>
    <path id="Path_684" data-name="Path 684" d="M305.11,406.16a8.488,8.488,0,0,1,.435,3.625c-.272,1.68.094.5.315,1.227a19.9,19.9,0,0,1,.223,3.227v-1.713s-.081-2.608,0-3.381A10.136,10.136,0,0,0,305.11,406.16Z" transform="translate(120.417 2790.323)" fill="#00a9b1" opacity="0.5"/>
    <path id="Path_685" data-name="Path 685" d="M288.55,296.34s1.4,1.945.87,3.625-.884,2.612-.442,3.34a3.344,3.344,0,0,0,1.517,1.114v-1.712a22.786,22.786,0,0,1,0-3.383C290.658,298.55,288.55,296.34,288.55,296.34Z" transform="translate(134.049 2880.724)" fill="#00a9b1" opacity="0.5"/>
    <path id="Path_686" data-name="Path 686" d="M454.516,286.09s-.249,2.38-1.768,3.284-2.392,1.367-2.548,2.2a3.327,3.327,0,0,0,.387,1.835l1.137-1.278a22.781,22.781,0,0,1,2.249-2.527C454.61,289.137,454.516,286.09,454.516,286.09Z" transform="translate(1.006 2889.162)" fill="#00a9b1" opacity="0.5"/>
    <path id="Path_687" data-name="Path 687" d="M550.418,524.88a5.207,5.207,0,0,0-.2.744.743.743,0,0,0,.248.693.251.251,0,0,0,.195.053c.141-.03.177-.212.177-.354,0-.285,0-.569-.018-.856a2.226,2.226,0,0,0-.073-.573.665.665,0,0,0-.29-.409C550.39,524.325,550.473,524.668,550.418,524.88Z" transform="translate(-81.339 2693.172)" fill="#00a9b1"/>
    <path id="Path_688" data-name="Path 688" d="M568.134,534.757a5.322,5.322,0,0,0-.2.744.736.736,0,0,0,.248.693.249.249,0,0,0,.193.055c.143-.03.177-.212.177-.354,0-.285,0-.569-.016-.854a2.329,2.329,0,0,0-.074-.575.66.66,0,0,0-.288-.407C568.113,534.207,568.19,534.546,568.134,534.757Z" transform="translate(-95.923 2685.04)" fill="#00a9b1"/>
    <path id="Path_689" data-name="Path 689" d="M559.849,522.188a2.129,2.129,0,0,0,.085-.311.311.311,0,0,0-.1-.29.1.1,0,0,0-.081-.023c-.06.012-.076.088-.078.15v.354a.918.918,0,0,0,.032.241.269.269,0,0,0,.12.177C559.859,522.419,559.826,522.278,559.849,522.188Z" transform="translate(-89.13 2695.327)" fill="#00a9b1"/>
    <path id="Path_690" data-name="Path 690" d="M655.366,331.183a2.161,2.161,0,0,0,.085-.313.31.31,0,0,0-.1-.29.113.113,0,0,0-.081-.023c-.06.012-.076.09-.076.15v.354a.855.855,0,0,0,.03.24.285.285,0,0,0,.12.177C655.379,331.413,655.343,331.271,655.366,331.183Z" transform="translate(-167.759 2852.558)" fill="#00a9b1"/>
    <ellipse id="Ellipse_351" data-name="Ellipse 351" cx="1.777" cy="0.288" rx="1.777" ry="0.288" transform="translate(467.993 3260.357)" fill="#00a9b1"/>
    <ellipse id="Ellipse_352" data-name="Ellipse 352" cx="1.777" cy="0.288" rx="1.777" ry="0.288" transform="translate(469.478 3260.527)" fill="#00a9b1"/>
    <ellipse id="Ellipse_353" data-name="Ellipse 353" cx="1.777" cy="0.288" rx="1.777" ry="0.288" transform="translate(470.096 3259.817)" fill="#00a9b1"/>
    <ellipse id="Ellipse_354" data-name="Ellipse 354" cx="1.777" cy="0.288" rx="1.777" ry="0.288" transform="translate(471.255 3260.647)" fill="#00a9b1"/>
    <path id="Path_691" data-name="Path 691" d="M300.02,249.419l.182.969.347-1.358Z" transform="translate(128.345 2926.212)" fill="#00a9b1" opacity="0.5"/>
    <path id="Path_692" data-name="Path 692" d="M313.58,218.571l2.009,10.58.865-3.384h-.1l1.469-8.166q-1.489.286-2.925.635l.309,2.819-.723-2.718Z" transform="translate(113.445 2945.541)" fill="#00a9b1" opacity="0.5"/>
    <path id="Path_693" data-name="Path 693" d="M636.589,295.54l-.249,1.431.249,1.431c.343-.47.66-.948.955-1.431C637.249,296.486,636.932,296.01,636.589,295.54Z" transform="translate(-152.242 2881.382)" fill="#00a9b1" opacity="0.8"/>
    <path id="Path_694" data-name="Path 694" d="M286.73,256.717l.028,1.017,1.514,1.11.543-2.127-.543-2.127-1.514,1.11Z" transform="translate(139.285 2921.636)" fill="#00a9b1" opacity="0.5"/>
    <path id="Path_695" data-name="Path 695" d="M300.2,276.53l-.182.969.529.389Z" transform="translate(128.345 2903.575)" fill="#00a9b1" opacity="0.5"/>
    <path id="Path_696" data-name="Path 696" d="M214.418,311.117l-.836-2.447-1.222,4.513c.354.309,2.286.614,2.665.912C215.3,313.082,214.065,312.039,214.418,311.117Z" transform="translate(196.766 2870.574)" fill="#00a9b1" opacity="0.5"/>
    <path id="Path_697" data-name="Path 697" d="M256.707,253.511l.96-4.384,1.319-8.965c-.884.308-2.513-1.183-3.36-.84l-.937,2.638-1.469-4.541c-.707.3-3.213,4.1-3.88,4.421l1.128,7.285,1.768,7.612c.667.32.292,3.8.992,4.1l1.469-4.541-.78,4.826C254.762,261.463,255.822,253.2,256.707,253.511Z" transform="translate(166.325 2929.225)" fill="#00a9b1" opacity="0.5"/>
    <path id="Path_698" data-name="Path 698" d="M317.819,335.842l-1.469-8.166h.1l-.865-3.386-2.009,10.58q.446.12.9.23l.723-2.718-.311,2.82Q316.332,335.555,317.819,335.842Z" transform="translate(113.445 2857.716)" fill="#00a9b1" opacity="0.5"/>
    <path id="Path_699" data-name="Path 699" d="M213.418,267.91q-.564.449-1.1.912l1.222,4.511.843-2.447C214.032,269.965,213.7,268.923,213.418,267.91Z" transform="translate(196.799 2904.126)" fill="#00a9b1" opacity="0.5"/>
    <path id="Path_700" data-name="Path 700" d="M204.561,276.84l-.621,9.1c.048.048.72.24.769.286l1.629-4.76-1.629-4.762C204.658,276.753,204.608,276.792,204.561,276.84Z" transform="translate(203.698 2896.891)" fill="#00a9b1" opacity="0.5"/>
    <path id="Path_701" data-name="Path 701" d="M227.053,249.957,223.8,229.18q-1.082.584-2.1,1.2c.44,3.045,2.829,11.361,1.5,11.5-.61.067-1.248-.973-1.835-2.419l-.778,2.875.778,2.875c.587-1.446,1.225-2.486,1.835-2.421,1.335.143-.573,1.858-1.013,4.9C222.864,248.118,226.33,249.57,227.053,249.957Z" transform="translate(189.992 2936.008)" fill="#00a9b1" opacity="0.8"/>
    <path id="Path_702" data-name="Path 702" d="M327.109,247.607q1.92.354,3.915.6l-.907-7.241-.133,2.518-.159-4.845-.09-.707-.38,3.492-.858-1.372,1.026-3.855-.242-1.908-.456-.34.209-1.671-.209-1.671.462-.34.239-1.91L328.5,224.5l.858-1.37.384,3.5.09-.707.159-4.847.133,2.518,1.606-1.165c-.988.792,3.508,6.838-4.613-5.482l-.354,8.164-1.365.1-1.335,7.073,1.335,7.073,1.365.1Z" transform="translate(104.818 2946.076)" fill="#00a9b1" opacity="0.5"/>
    <path id="Path_703" data-name="Path 703" d="M566.056,237.67c-.378-.177-.762-.338-1.149-.5l-1.137,2.513,2.633.463Z" transform="translate(-92.505 2929.431)" fill="#00a9b1" opacity="0.5"/>
    <path id="Path_704" data-name="Path 704" d="M541.149,262.338c-.384-.154.393-9.71,0-9.858l1.457-1.3-.541,8.382Z" transform="translate(-73.793 2917.898)" fill="#00a9b1" opacity="0.5"/>
    <path id="Path_705" data-name="Path 705" d="M188.721,287.131l.451-.631-.325-3.68A21.6,21.6,0,0,0,186,286.5C186.776,287.776,187.6,285.96,188.721,287.131Z" transform="translate(218.465 2891.853)" fill="#00a9b1" opacity="0.95"/>
    <path id="Path_706" data-name="Path 706" d="M555.951,275.035c.488-.262,3.13.79,3.6.516l1.5-9.046-.63-6.739c-.467-.276-2.359-.209-2.847-.47l-1.042,5.038-.813-5.8-1.34,7.975-.934,6.33,3.087-4.161Z" transform="translate(-84.001 2911.848)" fill="#00a9b1" opacity="0.5"/>
    <path id="Path_707" data-name="Path 707" d="M477.393,251.878l-3.747-13.062-.939,2.675.863-2.974-.854-2.974.939,2.675,3.747-13.062c-.683-.219-1.374-.428-2.079-.626v6.948l-2.072-4.269c-1.125-.294-1.554-.09-2.728-.327h0l-.759,2.721q-1.183-.216-2.382-.393l.43-2.44-1.061,2.346c-.4-.057-.806-.111-1.213-.161l2.375,9.117.41-1.768-.341,2.219.341,2.219-.41-4.951L465.53,251.28q.61,4.7,1.213-.161L467.8,247.1l-.423,3.911c.8,3.063,1.591-.253,2.377-.4l.759-.462.286.256c1.174-.239,2.325,2.679,3.45,2.385l1.061-7.238V252.5C476.019,252.306,476.711,252.1,477.393,251.878Z" transform="translate(-11.636 2939.836)" fill="#00a9b1" opacity="0.5"/>
    <path id="Path_708" data-name="Path 708" d="M490.68,280.1l-1.448-5.047-.354,1.034.329-1.149-.329-1.149.354,1.033,1.448-5.045c-.263-.085-.53-.166-.8-.242v2.684l-.412-2.8q-.652-.177-1.333-.308l-.1,1.328-.294-1.415c-.3-.057-.61-.106-.92-.154l.166,1.517-.412-1.553-.469-.062.919,5.984.159-.686-.133.858.133.858-.159-.686-.919,5.984.469-.062.412-1.553-.166,1.515c.309-.046.617-.1.92-.154l.294-1.415.11,1.33q.683-.138,1.333-.309l.412-2.783v2.684C490.149,280.27,490.422,280.189,490.68,280.1Z" transform="translate(-28.569 2903.411)" fill="#444" opacity="0.5"/>
    <path id="Path_709" data-name="Path 709" d="M596.749,266.513l-.272,5.575.051-.306-.037.469.037.469-.051-.308-.027,6.567c.981-.612,3.407-2.249,4.277-2.918l-3.376,2.8.622-6.61,1.427-3-.824-3.613C597.707,264.975,597.728,267.127,596.749,266.513Z" transform="translate(-119.406 2906.102)" fill="#00a9b1" opacity="0.5"/>
    <path id="Path_710" data-name="Path 710" d="M378.606,266.787c.2-.041,6.032,2.679,6.228,2.638l.539-16.4-1.866-9.434c-.829-.177-2.652-1.263-3.487-1.436l.573,2.527.278,2.537-.53-2-1.494,3.121.306,2.792-.587-2.205-1.591,3.337-.094.764.094.764,1.591,3.335.587-2.2-.306,2.79,1.487,3.123.53-2-.278,2.537Z" transform="translate(61.338 2925.323)" fill="#00a9b1" opacity="0.6"/>
    <path id="Path_711" data-name="Path 711" d="M279.459,265.579l.014-.285-.014-.285-.389.285Z" transform="translate(145.591 2913.058)" fill="#00a9b1" opacity="0.5"/>
    <path id="Path_712" data-name="Path 712" d="M516.29,242.863l-.734-9.837,1.446.256.242-3.245c-.219-.078-.439-.154-.66-.228L512,242.863l4.58,13.05.66-.23L517,252.439l-1.446.258Z" transform="translate(-49.889 2935.49)" fill="#00a9b1" opacity="0.5"/>
    <path id="Path_713" data-name="Path 713" d="M433.3,258.554l2.467-13.386-2.965-8.311c-.6-.078-1.213-.143-1.827-.2l.325-4.049-.8,4.012q-.684-.053-1.378-.088l-.364,8.638.29,13.05c.462-.023,1,3.314,1.452,3.278l.8-3.766,1.768,3.36C433.685,261.042,432.693,258.632,433.3,258.554Z" transform="translate(18.632 2933.185)" fill="#00a9b1" opacity="0.5"/>
    <path id="Path_714" data-name="Path 714" d="M236,231.81l2.026,6.454,2.546-3.4.981-1.659-1.678,6.191-1.1,2.792L236,235.838Z" transform="translate(181.045 2940.388)" fill="#00a9b1"/>
  </g>
</svg>
