<?xml version="1.0" encoding="utf-8"?>
<!-- Generator: Adobe Illustrator 26.0.1, SVG Export Plug-In . SVG Version: 6.00 Build 0)  -->
<svg version="1.1" id="Layer_1" xmlns="http://www.w3.org/2000/svg" xmlns:xlink="http://www.w3.org/1999/xlink" x="0px" y="0px"
	 viewBox="0 0 40.2 30.9" style="enable-background:new 0 0 40.2 30.9;" xml:space="preserve">
<style type="text/css">
	.st0{fill:#00A9B1;stroke:#00A9B1;stroke-miterlimit:10;}
</style>
<path id="Path_283" class="st0" d="M39,15L38.4,4.6v0c0-1-0.2-1.9-0.6-2.8c-0.1-0.2-0.3-0.4-0.5-0.5l0,0l-0.1,0
	c-0.8-0.3-1.7-0.4-2.5-0.3c-0.2,0-0.4,0-0.6,0h0c-4.4,0.3-8.7,0.5-12.8,0.5c-0.4,0-0.9,0-1.3,0h-0.1C18,1.5,15.1,1.7,11.2,2
	C9.9,2,8.7,2,7.7,2C6.2,2,5,2,4.2,2C3.7,2,3.4,2.5,3.4,2.9c0,0.5,0.4,0.8,0.9,0.8h0c0.8,0,1.9,0,3.4,0c1,0,2.2,0,3.5,0h0.1
	c3.9-0.3,6.8-0.5,8.6-0.6l0,0c0.4,0,0.9,0,1.3,0c4.2,0,8.5-0.2,12.9-0.5l0,0c0.3,0,0.5,0,0.7,0c0.5,0,1,0,1.5,0.1l0,0
	c0,0,0,0.1,0,0.1c-0.1,0-0.2,0.1-0.3,0.2L33.6,5l0,0l-7.5,6.7l-5.7,4.2l0,0c-0.5,0.4-1.1,0.7-1.8,0.8l0,0c-1-0.4-1.9-1-2.7-1.7
	L15.9,15c-2.6-2-5-4.1-7.3-6.5l0,0C7.5,7.6,6.4,6.8,5.3,6c-0.4-0.3-1-0.2-1.2,0.2c-0.3,0.4-0.2,1,0.2,1.2l0,0C5.4,8.2,6.4,9,7.4,9.8
	l0,0c2.3,2.4,4.8,4.6,7.5,6.6l0,0c1.7,1.4,2.9,2.1,3.7,2.1h0c0.1,0,0.2,0,0.4,0l0,0c0.9-0.2,1.7-0.6,2.4-1.1l0,0l2.5-1.8
	c0,0,0,0.1,0.1,0.1l1,1l0.1,0.1c1.3,1,2.5,2,3.7,3.2c3.4,3.9,5.6,6.3,6.7,7.2c-6.1-0.3-10.9-0.5-14.3-0.5c-0.6,0-1.1,0-1.6,0h0
	c-5,0.3-9.9,0.8-14.9,1.5c1.4-1.9,3-3.8,4.7-5.8c0.7-0.8,1.4-1.5,2.3-2.2c0.4-0.3,0.5-0.8,0.3-1.2s-0.8-0.5-1.2-0.3
	c-1,0.7-1.8,1.5-2.6,2.5l0,0c-1.6,1.8-3,3.6-4.4,5.3L3.2,18l0,0C3,10.8,3,6.8,3.2,5.9l0,0C3.5,5.5,3.4,4.9,3,4.6
	c-0.3-0.2-0.6-0.2-1-0.1C1.8,4.7,1.7,4.9,1.6,5.2c-0.3,1-0.4,5.3-0.1,12.9v0L2,28l0,0.1c0,0.4,0.1,0.8,0.3,1.1
	c0.1,0.3,0.4,0.5,0.7,0.6l0,0c0.1,0.1,0.2,0.1,0.3,0.1C3.5,30,3.8,30,4,30c0.2,0,0.5,0,0.7,0l0.1,0c4.9-0.8,9.8-1.3,14.8-1.5l0,0
	c0.5,0,1,0,1.6,0c3.4,0,8.3,0.2,14.6,0.5l0,0c0.1,0,0.1,0,0.2,0c0.6,0,1.2-0.3,1.6-0.8c0.1-0.1,0.1-0.2,0.2-0.3
	C38.4,26.8,38.8,22.5,39,15L39,15z M18.6,16.8C18.6,16.8,18.6,16.8,18.6,16.8L18.6,16.8L18.6,16.8z M2.9,6.1C3,6.1,3.1,6,3.1,6l0,0
	C3.1,6,3,6.1,2.9,6.1z M36.4,2.9L36.4,2.9C36.5,2.9,36.5,2.9,36.4,2.9L36.4,2.9z M37.2,15c0,3.6-0.2,7.2-0.6,10.7
	c-0.9-0.8-3-3.2-6.5-7.1l0,0c-1.2-1.2-2.5-2.3-3.8-3.3l0,0l-0.9-0.9l1.8-1.4l0.1-0.1l7.5-6.7l1.9-1.5L37.2,15L37.2,15z"/>
</svg>
