<svg xmlns="http://www.w3.org/2000/svg" width="23.545" height="35.879" viewBox="0 0 23.545 35.879">
  <g id="Group_83" data-name="Group 83" transform="translate(0 0)">
    <path id="Path_283" data-name="Path 283" d="M8.555,22.359a1.439,1.439,0,0,0-.826,1.853,67.127,67.127,0,0,0,6.638,12.78,1.435,1.435,0,0,0,1.191.634c.032,0,.06,0,.092,0a1.436,1.436,0,0,0,1.19-.792c1.179-2.364,2.481-4.716,3.784-7.068,1.325-2.39,2.651-4.779,3.844-7.18,2-4.013,3.841-8.288,2.539-12.539a11.274,11.274,0,0,0-2.117-3.827A11.955,11.955,0,0,0,14.576,1.762C10.164,1.937,6.9,3.994,5.147,7.7a11.711,11.711,0,0,0,.6,11.589,1.435,1.435,0,0,0,2.433-1.523A8.811,8.811,0,0,1,7.74,8.928c1.288-2.719,3.629-4.168,6.957-4.3a9.164,9.164,0,0,1,7.975,3.408,8.4,8.4,0,0,1,1.592,2.849c1,3.247-.545,6.784-2.358,10.422-1.179,2.364-2.481,4.716-3.784,7.068-.912,1.647-1.827,3.293-2.7,4.946a64.318,64.318,0,0,1-5.014-10.135A1.439,1.439,0,0,0,8.555,22.359Z" transform="translate(-3.897 -1.747)" fill="#00a9b1"/>
    <path id="Path_284" data-name="Path 284" d="M12.411,15.82a7.2,7.2,0,0,0,2.579-.476,5.088,5.088,0,0,0,3.282-6.558c-.734-2.258-2.493-4.822-5.232-5.241a6.629,6.629,0,0,0-5.468,1.8A5.228,5.228,0,0,0,6.378,6.973v0a5.893,5.893,0,0,0,.952,6.7A6.947,6.947,0,0,0,12.411,15.82ZM8.983,8.178a2.348,2.348,0,0,1,.536-.734A3.8,3.8,0,0,1,12.6,6.379c1.363.209,2.458,1.8,2.94,3.29a2.23,2.23,0,0,1-1.578,2.992,4.247,4.247,0,0,1-4.544-.952A3.037,3.037,0,0,1,8.983,8.178Z" transform="translate(-0.433 1.484)" fill="#00a9b1"/>
  </g>
</svg>
