<?xml version="1.0" encoding="utf-8"?>
<!-- Generator: Adobe Illustrator 26.0.1, SVG Export Plug-In . SVG Version: 6.00 Build 0)  -->
<svg version="1.1" id="Layer_2" xmlns="http://www.w3.org/2000/svg" xmlns:xlink="http://www.w3.org/1999/xlink" x="0px" y="0px"
	 viewBox="0 0 700 149" style="enable-background:new 0 0 700 149;" xml:space="preserve">
<style type="text/css">
	.st0{fill:#FFFFFF;}
</style>
<g>
	<path id="Icon_awesome-paint-brush_00000168806722278204059300000017608207965027684752_" class="st0" d="M181.3,132.6
		c-3.1,0.4-5.9,1.7-7.3,6.1c-0.1,0.5-0.6,0.8-1.1,0.8c-1.8,0.3-3.7-2-4.5-2.4c0.3,6.4,3.6,11.9,10.6,11.5c5.9-0.3,9.8-4,9.5-9.9
		c0-0.2-0.1-0.5-0.1-0.7L181.3,132.6z M202.6,107.3c-1.2,0.1-2.3,0.6-3.1,1.5c-15.2,15.1-16.8,15.5-16.6,19.7c0.1,1,0.4,2.1,0.8,3
		l5.2,3.9c0.6,0.1,1.2,0.2,1.8,0.1c4.8-0.3,7.5-4,15.4-20.9c0.6-1.1,0.9-2.4,0.9-3.6C206.9,108.7,204.9,107.1,202.6,107.3z"/>
	<path class="st0" d="M114.6,18.4c-2.7,7.4-5.2,14.9-7.5,22.5c-2.4,7.6-4.4,15.7-6.2,24.4c-1.8,8.6-3.2,18-4.3,28
		c-1.1,10-1.6,21.1-1.7,33.3c-0.5,0.4-1.3,0.8-2.4,1.4c-1,0.6-2.2,1.2-3.5,1.9c-1.3,0.7-2.6,1.4-4,2.1c-1.4,0.7-2.7,1.4-4,2.1
		c-1.3,0.7-2.4,1.3-3.4,1.8c-1,0.5-1.8,0.9-2.3,1.2c0-3.3,0.3-7,0.7-11c0.4-4,0.9-8.2,1.6-12.6c0.7-4.4,1.5-9,2.4-13.8
		c0.9-4.8,1.9-9.6,3-14.4c-3.2,4.3-6.3,7.9-9.2,10.8c-2.9,2.9-5.5,5.2-7.8,6.9c-2.6,2-5.1,3.7-7.3,4.9c-0.9,0.5-2.1,0.6-3.4,0.1
		c-1.3-0.4-2.7-1.1-4-2c-1.3-0.9-2.5-1.9-3.6-2.9c-1.1-1.1-1.9-2-2.3-2.7c-0.4-0.7-0.9-2.7-1.4-6.1C43.6,91,43.3,86.2,43,80
		c-1.9,2.5-4,5.1-6.2,7.9c-2.2,2.8-4.5,5.5-6.8,8.2c-2.3,2.7-4.5,5.4-6.8,7.9c-2.2,2.6-4.3,4.9-6.2,7s-3.7,3.9-5.2,5.5
		c-1.5,1.5-2.7,2.6-3.6,3.3c-0.4-0.5-1-1-1.6-1.7c-0.6-0.6-1.3-1.3-2-2c-0.7-0.7-1.4-1.4-2-2.1c-0.7-0.7-1.2-1.3-1.7-2
		C7.4,106.4,14,98.4,20.6,88c6.7-10.4,13-22.9,19.1-37.5c0.7,0.6,1.3,1.1,1.9,1.7c0.6,0.5,1.1,1.1,1.7,1.6c0.4-7,0.9-14.8,1.6-23.4
		c0.7-8.6,1.8-18.1,3.2-28.5c0.2,0.1,0.7,0.5,1.6,1.3c0.8,0.8,1.8,1.7,2.9,2.8c1.1,1.1,2.3,2.4,3.5,3.7c1.2,1.3,2.4,2.6,3.6,3.8
		c1.1,1.2,2.1,2.3,3,3.2c0.8,0.9,1.4,1.6,1.7,1.9c-0.1,0.4-0.3,1.3-0.6,2.9c-0.3,1.6-0.7,3.6-1.1,6c-0.4,2.4-0.9,5.2-1.4,8.4
		c-0.5,3.2-0.9,6.5-1.3,10c-0.4,3.5-0.7,7.2-1,10.9c-0.3,3.8-0.5,7.4-0.5,11c0,1.5-0.1,3.3-0.1,5.2c0,2,0,4,0,6.1
		c0,2.1,0,4.1,0.1,6.2c0.1,2,0.2,3.8,0.3,5.5c0.1,1.6,0.3,3,0.6,4c0.2,1,0.6,1.6,1,1.7c0.5,0.1,1.7-0.5,3.5-1.9
		c1.9-1.4,4.1-3.5,6.7-6.3c2.6-2.8,5.5-6.1,8.6-10c3.1-3.9,6.1-8.3,9-13.2c1.3-5.2,2.7-10.2,4-15.1c1.4-4.8,2.7-9.3,3.9-13.5
		c1.3-4.1,2.5-7.8,3.6-11.1c1.1-3.3,2.1-5.9,3-8c0.9,0,1.9,0.1,3,0.2c1.1,0.1,2.3,0.2,3.4,0.3c1.2,0.1,2.2,0.2,3.2,0.3
		C113.2,18.2,114,18.3,114.6,18.4z"/>
	<path class="st0" d="M151.8,106.6c0,0.3,0.1,0.4,0.4,0.4c0.4,0,1.1-0.3,2-0.9c0.9-0.6,2-1.3,3.2-2.2c1.2-0.9,2.5-1.9,3.8-3
		c1.4-1.1,2.7-2.2,3.9-3.3c1.2-1.1,2.4-2,3.4-2.9c1-0.9,8.9-8.7,9.5-9.2c0.4,0.4-6.3,8.1-5.7,8.8c0.6,0.7,1.1,1.3,1.6,1.8
		c-1.1,1-2.3,2.2-3.8,3.6c-1.5,1.4-3.1,2.9-4.8,4.4c-1.7,1.5-3.5,3-5.3,4.5s-3.6,2.8-5.3,4s-3.4,2.1-4.9,2.8s-2.9,1.1-4.1,1.1
		c-0.8,0-1.7-0.2-2.6-0.5c-1-0.3-1.8-0.7-2.6-1.3c-0.8-0.6-1.5-1.2-2-2c-0.5-0.8-0.8-1.6-0.8-2.5c0-0.4,0-0.8,0-1.3
		c0-0.5,0-1.2,0.1-2c0.1-0.8,0.3-1.8,0.5-3s0.7-2.6,1.2-4.4c-1.5,1.6-3.2,3.2-5.2,4.9c-2,1.7-4.1,3.3-6.2,4.8
		c-2.2,1.5-4.4,2.9-6.6,4.1s-4.2,2.1-6.1,2.8c-0.2,0.1-0.4,0.1-0.5,0.1c-0.1,0-0.3,0-0.4,0c-0.4,0-1-0.2-1.8-0.7s-1.5-1-2.2-1.8
		s-1.3-1.6-1.8-2.5c-0.5-0.9-0.8-1.9-0.8-2.8c0-0.3,0.1-1.2,0.4-2.7c0.3-1.5,0.9-3.4,1.9-5.8c1-2.3,2.5-5,4.4-7.9s4.6-5.9,8-9
		c1.7-1.6,3.6-3,5.6-4.4c1.7-1.2,3.6-2.3,5.8-3.5c2.2-1.2,4.5-2.2,6.9-2.9c0.1,0,0.2,0,0.2-0.1c0.1,0,0.2,0,0.3,0.1
		c0.5,0.2,1.2,0.5,1.9,0.8c0.7,0.4,1.5,0.8,2.2,1.2c0.7,0.4,1.4,0.8,1.9,1.3c0.6,0.4,0.9,0.8,1.1,1c0,0.1,0,0.2,0,0.2l-0.1,0.1
		c-2,1.1-3.9,2.3-5.7,3.6c-1.8,1.3-3.4,2.5-4.7,3.7c-1.6,1.4-3.1,2.7-4.5,4.1c-3.2,3.2-5.5,6-6.7,8.3c-1.2,2.3-1.9,4-1.9,5
		c0,0.8,0.3,1.1,0.9,1.1c0.6,0,1.4-0.3,2.4-0.8c1-0.5,2-1.2,3.2-2.1c1.2-0.9,2.5-1.9,4-3.1c1.4-1.2,2.9-2.4,4.5-3.7
		c1.4-1.1,2.7-2.3,4-3.6c1.1-1.1,2.3-2.3,3.5-3.7c1.2-1.4,2.2-2.8,3.1-4.2c0,0,0-0.1,0.1-0.1c0,0,0.1,0,0.2,0c0.5,0.4,1,0.9,1.7,1.8
		c0.6,0.8,1.2,1.7,1.7,2.7c0.5,1,1,1.9,1.4,2.8c0.4,0.9,0.6,1.6,0.6,2.1c-1,2.1-1.8,4-2.4,5.7c-0.6,1.7-1,3.2-1.3,4.5
		c-0.3,1.3-0.5,2.4-0.5,3.3C151.8,105.4,151.8,106.1,151.8,106.6z"/>
	<path class="st0" d="M217.5,100.5c-3.3,2.5-6.6,5-9.9,7.4c0.5-1.6,0.9-3.3,1.4-5.1c0.5-1.8,1-3.7,1.6-5.8c0.6-2.1,1.3-4.4,2-6.9
		c0.8-2.5,1.6-5.3,2.7-8.4c0.1-0.2,0.2-0.4,0.2-0.6c0-0.2,0.1-0.4,0.1-0.6c0-0.5-0.5-1.2-1.5-2.1c-1-0.9-2.1-1.8-3.3-2.7
		c-1.2-0.9-2.4-1.7-3.5-2.4c-1.1-0.7-1.8-1-2.1-1c-0.2,0-0.6,0.9-1.1,2.6c-0.6,1.8-1.3,4.1-2.2,7c-2.2,3.8-4.2,7-6.2,9.7
		c-2,2.7-3.7,4.9-5.3,6.6c-1.5,1.7-2.8,3-3.9,3.8c-1,0.8-1.7,1.2-2,1.2c-0.2,0-0.3-0.1-0.3-0.3c0-0.7,0.2-1.7,0.7-3.1
		c0.4-1.4,1-3,1.7-4.7c0.7-1.7,1.4-3.5,2.3-5.4c0.8-1.9,1.6-3.7,2.3-5.3s1.4-3,1.9-4.2c0.6-1.2,0.9-1.9,1-2.2c0-0.2-0.5-0.6-1.5-1.2
		c-1-0.6-2.2-1.2-3.6-1.9s-2.8-1.3-4.3-1.8c-1.5-0.6-2.6-0.9-3.5-1c-0.2,0-0.3,0-0.4,0c-0.1,0-0.1,0.1-0.2,0.3
		c-1.7,4.3-3.3,8.4-4.7,12.2c-1.5,3.8-2.7,7.3-3.8,10.3c-1.1,3.1-2,5.7-2.6,7.8c-0.6,2.2-1,3.7-1,4.7c0,0.8,0.3,1.7,0.9,2.7
		c0.6,0.9,1.3,1.8,2.2,2.6c0.9,0.8,1.8,1.4,2.8,1.9c1,0.5,2,0.8,2.8,0.8c0.4,0,0.9-0.1,1.3-0.2c0.5-0.1,0.9-0.3,1.3-0.5
		c0.6-0.4,1.4-1,2.5-1.8c1.1-0.8,2.4-1.8,3.9-3.1c1.5-1.3,3.2-2.8,4.9-4.6c1.8-1.8,3.6-4,5.5-6.4c-1.2,3.6-2.4,7.3-3.6,11
		c-1.1,3.3-2.2,6.5-3.4,9.6h14.1c0.5-1.4,1-2.7,1.4-4c4.2-3,8.4-6.1,12.7-9.3c4.2-3.2,8.3-6.6,12.3-10.2l6.6-11.5
		C233.5,87.2,220.7,98,217.5,100.5z"/>
	<path class="st0" d="M266.9,106.6c0,0.3,0.1,0.4,0.4,0.4c0.4,0,1.1-0.3,2-0.9c0.9-0.6,2-1.3,3.2-2.2c1.2-0.9,2.5-1.9,3.8-3
		c1.4-1.1,2.7-2.2,3.9-3.3c1.2-1.1,2.4-2,3.4-2.9c1-0.9,1.8-1.6,2.3-2.1c0.4,0.4,0.8,5.6-0.7,7c-1.5,1.4-3.1,2.9-4.8,4.4
		c-1.7,1.5-3.5,3-5.3,4.5s-3.6,2.8-5.3,4s-3.4,2.1-4.9,2.8s-2.9,1.1-4.1,1.1c-0.8,0-1.7-0.2-2.6-0.5c-1-0.3-1.8-0.7-2.6-1.3
		c-0.8-0.6-1.5-1.2-2-2c-0.5-0.8-0.8-1.6-0.8-2.5c0-0.4,0-0.8,0-1.3c0-0.5,0-1.2,0.1-2c0.1-0.8,0.3-1.8,0.5-3s0.7-2.6,1.2-4.4
		c-1.5,1.6-3.2,3.2-5.2,4.9c-2,1.7-4.1,3.3-6.2,4.8c-2.2,1.5-4.4,2.9-6.6,4.1s-4.2,2.1-6.1,2.8c-0.2,0.1-0.4,0.1-0.5,0.1
		c-0.1,0-0.3,0-0.4,0c-0.4,0-1-0.2-1.8-0.7s-1.5-1-2.2-1.8s-1.3-1.6-1.8-2.5c-0.5-0.9-0.8-1.9-0.8-2.8c0-0.3,0.1-1.2,0.4-2.7
		c0.3-1.5,0.9-3.4,1.9-5.8c1-2.3,2.5-5,4.4-7.9s4.6-5.9,8-9c1.7-1.6,3.6-3,5.6-4.4c1.7-1.2,3.6-2.3,5.8-3.5c2.2-1.2,4.5-2.2,6.9-2.9
		c0.1,0,0.2,0,0.2-0.1c0.1,0,0.2,0,0.3,0.1c0.5,0.2,1.2,0.5,1.9,0.8c0.7,0.4,1.5,0.8,2.2,1.2c0.7,0.4,1.4,0.8,1.9,1.3
		c0.6,0.4,0.9,0.8,1.1,1c0,0.1,0,0.2,0,0.2l-0.1,0.1c-2,1.1-3.9,2.3-5.7,3.6c-1.8,1.3-3.4,2.5-4.7,3.7c-1.6,1.4-3.1,2.7-4.5,4.1
		c-3.2,3.2-5.5,6-6.7,8.3c-1.2,2.3-1.9,4-1.9,5c0,0.8,0.3,1.1,0.9,1.1c0.6,0,1.4-0.3,2.4-0.8c1-0.5,2-1.2,3.2-2.1
		c1.2-0.9,2.5-1.9,4-3.1c1.4-1.2,2.9-2.4,4.5-3.7c1.4-1.1,2.7-2.3,4-3.6c1.1-1.1,2.3-2.3,3.5-3.7c1.2-1.4,2.2-2.8,3.1-4.2
		c0,0,0-0.1,0.1-0.1c0,0,0.1,0,0.2,0c0.5,0.4,1,0.9,1.7,1.8c0.6,0.8,1.2,1.7,1.7,2.7c0.5,1,1,1.9,1.4,2.8c0.4,0.9,0.6,1.6,0.6,2.1
		c-1,2.1-1.8,4-2.4,5.7c-0.6,1.7-1,3.2-1.3,4.5c-0.3,1.3-0.5,2.4-0.5,3.3C266.9,105.4,266.9,106.1,266.9,106.6z"/>
	<path class="st0" d="M414.9,23.4c0,0.1,0.1,0.3,0.3,0.6c0.1,0.3,0.3,0.7,0.4,1.1c0.1,0.4,0.3,0.8,0.4,1.3c0.1,0.4,0.2,0.7,0.2,0.9
		c0,1.5-0.3,3.3-0.9,5.4c-0.6,2.1-1.5,4.3-2.6,6.7c-1.1,2.4-2.4,4.8-3.8,7.2c-1.5,2.4-3,4.8-4.7,7s-3.3,4.2-5.1,6s-3.5,3.2-5.2,4.3
		c-0.6-0.6-1.4-1.3-2.2-2.1c-0.9-0.8-1.8-1.7-2.8-2.6c-1-0.9-2-1.8-2.9-2.8c-1-0.9-1.9-1.8-2.7-2.7c1.3-1,2.7-2.4,4.4-4
		c1.6-1.7,3.3-3.5,4.9-5.6c1.7-2,3.3-4.2,4.9-6.3c1.6-2.2,3-4.3,4.2-6.3c1.2-2,2.1-3.9,2.8-5.5c0.7-1.6,0.9-3,0.7-3.9
		c-0.1-0.5-0.3-0.8-0.6-1s-0.8-0.3-1.6-0.3c-2.7,0-5.8,0.5-9.4,1.6c-3.6,1.1-7.3,2.6-11.1,4.6c-3.9,2-7.8,4.5-11.7,7.4
		s-7.6,6.2-11.1,9.9c-3.4,3.7-6.5,7.7-9.2,12.1c-2.7,4.4-4.7,9.1-6.2,14.1c3.1,0,6.1-0.2,8.9-0.4c2.8-0.2,5.5-0.4,8-0.6
		c2.5-0.2,5-0.4,7.3-0.6c2.3-0.2,4.6-0.3,6.7-0.3c1.2,0,2.4,0.6,3.7,1.9c1.3,1.2,2.6,2.7,3.7,4.5c1.2,1.7,2.1,3.5,2.9,5.3
		c0.8,1.8,1.1,3.3,1.1,4.4c0,3.2-0.8,6.3-2.4,9.5c-1.6,3.2-3.8,6.2-6.5,9.2c-2.7,3-5.9,5.7-9.5,8.3c-3.6,2.6-7.4,4.8-11.4,6.7
		c-4,1.9-8,3.4-12.2,4.5s-8.1,1.6-11.8,1.6c-0.5-0.4-1.1-1-1.9-1.8c-0.8-0.8-1.7-1.7-2.6-2.7c-0.9-1-1.8-2.1-2.8-3.2
		s-1.8-2.2-2.7-3.2c-0.8-1-1.5-2-2.2-2.8c-0.6-0.8-1-1.5-1.3-1.9c2.4,0.4,5.4,0.4,8.8,0.3c3.4-0.2,7.1-0.7,10.9-1.5
		c3.8-0.8,7.7-1.9,11.6-3.4c3.9-1.5,7.5-3.4,10.9-5.6c3.4-2.3,6.4-5,8.9-8.1s4.4-6.8,5.6-10.9c-2.6,0-4.9,0.2-7,0.4
		c-2.1,0.2-4.1,0.4-6.1,0.7c-2,0.2-4,0.5-6,0.6c-2,0.2-4.3,0.3-6.8,0.3c-0.8,0-1.7,0-2.6,0c-0.9,0-1.9-0.1-2.8-0.2
		c-0.9-0.1-1.8-0.3-2.7-0.6c-0.8-0.3-1.5-0.6-2.1-1.1c-1.2-1-2.4-2.1-3.5-3.2c-1.1-1.1-2.1-2.3-3-3.5c-0.9-1.2-1.6-2.4-2.1-3.6
		c-0.5-1.2-0.8-2.4-0.8-3.5c0-3.4,0.8-7.1,2.5-11.3c1.7-4.2,4-8.3,7-12.6c3-4.2,6.5-8.3,10.6-12.3c4.1-4,8.5-7.5,13.4-10.6
		c4.8-3.1,9.9-5.6,15.2-7.5c5.3-1.9,10.7-2.8,16.2-2.8c1.9,0,3.7,0.3,5.2,0.9c1.6,0.6,3,1.3,4.3,2.3c1.3,0.9,2.4,2,3.5,3.1
		c1,1.1,1.9,2.2,2.7,3.3c0.8,1.1,1.5,2.1,2.1,3C414,22.2,414.5,22.9,414.9,23.4z"/>
	<path class="st0" d="M409.7,105.7c0,1.3,0.5,2,1.5,2c1,0,2.4-0.8,4.1-2.4c1.7-1.6,3.4-3.7,5.3-6.2c-0.1-0.5-0.1-0.9-0.2-1.3
		c0-0.4,0-0.7,0-1c0-0.9,0.1-1.9,0.3-3.2s0.7-2.6,1.5-4.2c0.5-1.2,1.2-2.4,1.9-3.5c0.6-1,1.4-2.1,2.3-3.3c0.9-1.2,1.9-2.3,2.9-3.3
		l0.4-0.4c0.4,0.5,1,1.3,1.8,2.2c0.7,0.9,1.5,1.8,2.2,2.8c0.7,1,1.4,1.8,1.9,2.6c0.6,0.8,0.9,1.4,1,1.7c0,1.9-0.3,3.8-1,5.7
		c-0.7,1.9-1.6,3.8-2.8,5.7c2.7-0.2,5.1-0.9,7.4-2c2.3-1.2,16.1-14.5,18.6-17.2c0.4,0.4,0.9,1,1.5,1.7c0.6,0.7,1.2,1.3,1.6,1.7
		c-1.9,2-15.1,15-16.9,16.3c-1.8,1.3-3.6,2.3-5.4,3.1c-1.8,0.8-3.6,1.3-5.5,1.6c-1.9,0.3-3.8,0.5-5.7,0.5c-1.5,1.6-3.1,3.1-4.9,4.4
		c-1.7,1.3-3.5,2.5-5.3,3.5c-1.8,1-3.6,1.7-5.4,2.3c-1.8,0.5-3.5,0.8-5.1,0.8c-1.3,0-2.7-0.4-4.1-1.2s-2.7-1.8-3.9-3
		s-2.1-2.4-2.9-3.8c-0.8-1.3-1.1-2.5-1.1-3.5c0-3.4,0.5-6.7,1.4-10.1c0.9-3.3,2.3-6.5,4.3-9.4c1.9-2.9,4.4-5.5,7.4-7.7
		c3-2.2,6.6-3.9,10.7-5.1c0.1-0.1,0.4-0.2,0.7-0.2c0.3,0,0.6-0.1,0.8-0.1c0.6,0,1.3,0.2,2,0.7c0.7,0.5,1.3,1,1.9,1.6
		c0.6,0.6,1.1,1.1,1.5,1.7c0.4,0.6,0.6,0.9,0.6,1.1c-0.1,0.2-0.4,0.5-1,0.8c-0.6,0.3-1.4,0.9-2.3,1.7c-1,0.8-2.1,1.9-3.5,3.4
		c-1.3,1.5-2.8,3.5-4.4,5.9c-2.4,3.6-4,6.9-4.9,9.8C410.1,101.8,409.7,104.1,409.7,105.7z"/>
	<path class="st0" d="M479.3,84.9c-0.6,1.7-1.3,3.7-2.2,5.9c-0.9,2.2-1.7,4.4-2.5,6.5c-0.8,2.1-1.5,4.1-2,5.8s-0.8,3-0.8,3.7
		c0,0.3,0.1,0.4,0.4,0.4c0.5,0,1.2-0.3,2.2-0.9c1-0.6,2.1-1.3,3.4-2.3c1.3-0.9,2.6-2,4-3.1c1.4-1.1,2.7-2.2,4-3.3
		c1.3-1.1,2.4-2.1,3.4-3c1-0.9,5.3-5.1,5.9-5.5c0.4,0.4-2.6,4.4-2.1,5.1c0.6,0.6,1.1,1.2,1.6,1.7c-1,1-2.2,2.2-3.7,3.6
		c-1.5,1.4-3.1,2.8-4.8,4.3s-3.5,2.9-5.3,4.4s-3.6,2.8-5.4,3.9s-3.4,2.1-4.9,2.8c-1.5,0.7-2.8,1.1-3.8,1.1c-0.7,0-1.5-0.2-2.5-0.7
		s-2-1-2.9-1.7c-0.9-0.7-1.7-1.5-2.4-2.3c-0.7-0.8-1-1.7-1-2.5c0.7-3,1.3-5.6,2-7.8c0.7-2.2,1.3-4.1,1.9-5.7
		c0.6-1.6,1.1-2.9,1.5-3.8c0.4-1,0.8-1.7,1-2.2c-0.5-0.2-1-0.5-1.5-0.7c-0.5-0.3-7.9-4.6-8.8-5.2c-0.9-0.6-1.6-1.1-2.3-1.6
		c-0.8-0.5-1.4-1-2-1.5c-0.3-0.1-0.4-0.4-0.4-0.9c0-0.5,0.2-1.2,0.6-2.1c0.4-0.9,0.9-1.9,1.4-2.9c0.6-1,1.2-2.1,1.9-3.2
		c0.7-1.1,1.3-2.1,1.9-3c0.6-0.9,1.2-1.6,1.6-2.2c0.5-0.6,0.8-0.8,0.9-0.8c0.1,0,0.4,0.1,0.9,0.3c0.5,0.2,1.1,0.5,1.6,0.8
		c0.6,0.3,1.1,0.6,1.6,1c0.5,0.4,0.8,0.7,0.9,0.9c0,0.2,0.1,0.7,0.1,1.4c0,0.7,0.1,1.6,0.1,2.6c1.7,0.9,3.5,1.9,5.3,3
		c1.8,1.1,3.5,2.2,5,3.2c1.8,1.2,3.5,2.3,5.1,3.5c0.6,0.4,0.9,0.8,1.1,1.3C479.4,84,479.5,84.5,479.3,84.9z"/>
	<path class="st0" d="M525.2,105.6c-1.9,0-3.5-0.3-4.9-0.9c-1.5,1.6-3,3-4.6,4.4c-1.6,1.4-3.2,2.6-4.7,3.6c-1.6,1-3.1,1.9-4.6,2.5
		c-1.5,0.6-2.9,1-4.3,1.1c-0.7,0-1.6-0.3-2.9-0.9c-1.3-0.6-2.5-1.3-3.7-2.2c-1.2-0.9-2.3-2-3.2-3.1c-0.9-1.2-1.4-2.4-1.4-3.6
		c0-2.9,0.3-5.9,0.9-8.8c0.6-3,1.3-5.9,2.2-8.8c0.9-2.9,1.8-5.7,2.9-8.5c1-2.8,2-5.5,3-8c2.3,1,4.5,2.2,6.6,3.4
		c2.2,1.2,4.2,2.7,6,4.4c-0.7,1.3-1.3,2.9-2,4.6c-0.7,1.7-1.3,3.5-1.9,5.4c-0.6,1.9-1.2,3.7-1.7,5.6c-0.5,1.9-1,3.6-1.4,5.2
		c-0.4,1.6-0.7,3-0.9,4.2c-0.2,1.2-0.3,2.1-0.3,2.6c0,0.4,0.1,0.7,0.2,1c0.2,0.3,0.4,0.4,0.8,0.4c0.7,0,1.5-0.2,2.4-0.7
		c0.9-0.4,1.8-1,2.8-1.8c1-0.7,2-1.6,3-2.6c1-1,2-2.1,2.9-3.2c-0.8-1.4-1.2-2.8-1.2-4.1c0-0.9,0.1-2.1,0.4-3.4
		c0.3-1.3,0.7-2.7,1.2-4.1c0.5-1.4,1-2.9,1.6-4.3c0.6-1.4,1.2-2.8,1.9-4c0.6-1.2,1.3-2.3,1.9-3.3c0.6-0.9,1.1-1.6,1.6-2.1
		c1,0.4,2.1,0.9,3.2,1.6c1.1,0.7,2.1,1.4,3.1,2.2c0.9,0.8,1.7,1.5,2.3,2.3c0.6,0.7,0.9,1.3,1,1.8c0,0.9-0.2,2-0.7,3.3
		c-0.4,1.2-1.1,2.6-1.8,4c-0.8,1.4-1.7,3-2.8,4.5c-1.1,1.6-2.3,3.2-3.6,4.8c0.3,0.1,0.5,0.2,0.8,0.2c0.3,0.1,0.6,0.1,1,0.1
		c1.8,0,3.4-0.2,4.7-0.5c1.4-0.4,2.7-0.9,3.9-1.6c1.2-0.7,2.5-1.5,3.7-2.6s11.1-9.2,12.5-10.6c0.4,0.4-7.7,8-7,8.6
		c0.6,0.6,1.2,1.2,1.6,1.7c-1.9,1.9-3.6,3.4-5.3,4.7s-3.3,2.3-4.9,3.1c-1.6,0.8-3.3,1.3-4.9,1.7C528.7,105.4,527,105.6,525.2,105.6z
		"/>
	<path class="st0" d="M581.9,106.6c0,0.3,0.1,0.4,0.4,0.4c0.4,0,1.1-0.3,2-0.9c0.9-0.6,2-1.3,3.2-2.2c1.2-0.9,2.5-1.9,3.8-3
		c1.4-1.1,2.7-2.2,3.9-3.3c1.2-1.1,2.4-2,3.4-2.9c1-0.9,7.5-7.3,8.1-7.8c0.4,0.4-4.9,6.7-4.3,7.4c0.6,0.7,1.1,1.3,1.6,1.8
		c-1.1,1-2.3,2.2-3.8,3.6c-1.5,1.4-3.1,2.9-4.8,4.4c-1.7,1.5-3.5,3-5.3,4.5s-3.6,2.8-5.3,4s-3.4,2.1-4.9,2.8s-2.9,1.1-4.1,1.1
		c-0.8,0-1.7-0.2-2.6-0.5c-1-0.3-1.8-0.7-2.6-1.3c-0.8-0.6-1.5-1.2-2-2c-0.5-0.8-0.8-1.6-0.8-2.5c0-0.4,0-0.8,0-1.3
		c0-0.5,0-1.2,0.1-2c0.1-0.8,0.3-1.8,0.5-3s0.7-2.6,1.2-4.4c-1.5,1.6-3.2,3.2-5.2,4.9c-2,1.7-4.1,3.3-6.2,4.8
		c-2.2,1.5-4.4,2.9-6.6,4.1s-4.2,2.1-6.1,2.8c-0.2,0.1-0.4,0.1-0.5,0.1c-0.1,0-0.3,0-0.4,0c-0.4,0-1-0.2-1.8-0.7s-1.5-1-2.2-1.8
		s-1.3-1.6-1.8-2.5c-0.5-0.9-0.8-1.9-0.8-2.8c0-0.3,0.1-1.2,0.4-2.7c0.3-1.5,0.9-3.4,1.9-5.8c1-2.3,2.5-5,4.4-7.9s4.6-5.9,8-9
		c1.7-1.6,3.6-3,5.6-4.4c1.7-1.2,3.6-2.3,5.8-3.5c2.2-1.2,4.5-2.2,6.9-2.9c0.1,0,0.2,0,0.2-0.1c0.1,0,0.2,0,0.3,0.1
		c0.5,0.2,1.2,0.5,1.9,0.8c0.7,0.4,1.5,0.8,2.2,1.2c0.7,0.4,1.4,0.8,1.9,1.3c0.6,0.4,0.9,0.8,1.1,1c0,0.1,0,0.2,0,0.2l-0.1,0.1
		c-2,1.1-3.9,2.3-5.7,3.6c-1.8,1.3-3.4,2.5-4.7,3.7c-1.6,1.4-3.1,2.7-4.5,4.1c-3.2,3.2-5.5,6-6.7,8.3c-1.2,2.3-1.9,4-1.9,5
		c0,0.8,0.3,1.1,0.9,1.1c0.6,0,1.4-0.3,2.4-0.8c1-0.5,2-1.2,3.2-2.1c1.2-0.9,2.5-1.9,4-3.1c1.4-1.2,2.9-2.4,4.5-3.7
		c1.4-1.1,2.7-2.3,4-3.6c1.1-1.1,2.3-2.3,3.5-3.7c1.2-1.4,2.2-2.8,3.1-4.2c0,0,0-0.1,0.1-0.1c0,0,0.1,0,0.2,0c0.5,0.4,1,0.9,1.7,1.8
		c0.6,0.8,1.2,1.7,1.7,2.7c0.5,1,1,1.9,1.4,2.8c0.4,0.9,0.6,1.6,0.6,2.1c-1,2.1-1.8,4-2.4,5.7c-0.6,1.7-1,3.2-1.3,4.5
		c-0.3,1.3-0.5,2.4-0.5,3.3C581.9,105.4,581.9,106.1,581.9,106.6z"/>
	<path class="st0" d="M617.5,107.8c0.7,0,1.7-0.3,2.9-0.9c1.2-0.6,2.6-1.4,4-2.4c1.5-1,3-2,4.6-3.2c1.6-1.2,3.1-2.3,4.5-3.4
		c1.4-1.1,2.7-2.1,3.8-3.1c1.1-0.9,11.7-9.7,12.2-10.2c0.4,0.4-5.2,8.6-4.7,9.2c0.6,0.6-2.6,1.7-2.1,2.2c-1,1-2.2,2.2-3.7,3.6
		c-1.5,1.4-3.1,2.8-4.8,4.3c-1.7,1.5-3.5,2.9-5.3,4.4c-1.8,1.5-3.6,2.8-5.4,3.9c-1.8,1.2-3.4,2.1-4.9,2.8c-1.5,0.7-2.8,1.1-3.8,1.1
		c-1.4,0-2.8-0.5-4.4-1.5c-1.5-1-3-2.1-4.3-3.4c-1.3-1.3-2.5-2.6-3.4-4c-0.9-1.3-1.5-2.3-1.6-3c-0.1-0.3-0.1-0.6-0.1-1
		c0-0.4,0-0.8,0-1.2c0-2.2,0.3-5,0.8-8.4c0.6-3.4,1.3-7,2.2-10.8c0.9-3.8,2-7.6,3.2-11.3c1.2-3.8,2.5-7.1,3.8-10
		c2.7-5.9,5.5-11.2,8.4-15.7c2.9-4.6,5.7-8.6,8.4-12c2.8-3.4,5.4-6.3,7.9-8.6c2.5-2.3,4.8-4.2,6.8-5.6c2-1.4,3.7-2.4,5.1-3.1
		c1.4-0.6,2.4-0.9,2.9-0.9c0.8,0.3,1.7,0.8,2.6,1.4c0.9,0.6,1.7,1.2,2.4,1.9c0.8,0.7,1.4,1.3,2,2c0.6,0.6,1,1.1,1.3,1.4
		c0.4,0.4,0.6,0.7,0.7,1c0.1,0.3,0.2,0.8,0.2,1.3c0,1.1-0.3,2.5-0.8,4.4c-0.5,1.9-1.5,4.2-3,7.1c-1.5,2.9-3.5,6.3-6.1,10.3
		c-2.6,4-6,8.7-10.2,14c-2,2.5-4,5-6.2,7.6c-1.9,2.2-4,4.6-6.5,7.3c-2.4,2.6-5,5.1-7.5,7.5c-1.3,4.9-2.2,9.2-2.7,12.9
		c-0.5,3.7-0.8,6.6-0.8,8.7c0,1.4,0.1,2.3,0.3,2.7C616.8,107.6,617.1,107.8,617.5,107.8z M628.2,59c-0.8,1.7-1.5,3.3-2.1,4.9
		c-0.6,1.6-1.3,3.2-1.8,4.7c1.4-1.6,2.6-3,3.8-4.5c1.1-1.4,2.1-2.6,2.9-3.7c0.9-1.2,1.8-2.3,2.5-3.4c3.1-4.4,5.8-8.4,8.1-12
		s4.1-6.9,5.6-9.6c1.5-2.8,2.5-5.1,3.2-6.9c0.7-1.8,1-3.2,1-4c0-0.2,0-0.4,0-0.5c0-0.1-0.1-0.2-0.4-0.2c-0.4,0-1.3,0.7-2.7,2
		c-1.4,1.3-3.2,3.4-5.2,6.2c-2.1,2.8-4.4,6.5-6.9,10.9C633.5,47.4,630.9,52.7,628.2,59z"/>
	<path class="st0" d="M679.9,106.6c0,0.3,0.1,0.4,0.4,0.4c0.4,0,1.1-0.3,2-0.9c0.9-0.6,2-1.3,3.2-2.2c1.2-0.9,2.5-1.9,3.8-3
		c1.4-1.1,2.7-2.2,3.9-3.3c1.2-1.1,2.4-2,3.4-2.9c1-0.9,2.3-2.1,2.3-2.1s0.8,5.6-0.7,7c-1.5,1.4-3.1,2.9-4.8,4.4
		c-1.7,1.5-3.5,3-5.3,4.5s-3.6,2.8-5.3,4s-3.4,2.1-4.9,2.8s-2.9,1.1-4.1,1.1c-0.8,0-1.7-0.2-2.6-0.5c-1-0.3-1.8-0.7-2.6-1.3
		c-0.8-0.6-1.5-1.2-2-2c-0.5-0.8-0.8-1.6-0.8-2.5c0-0.4,0-0.8,0-1.3c0-0.5,0-1.2,0.1-2c0.1-0.8,0.3-1.8,0.5-3s0.7-2.6,1.2-4.4
		c-1.5,1.6-3.2,3.2-5.2,4.9c-2,1.7-4.1,3.3-6.2,4.8c-2.2,1.5-4.4,2.9-6.6,4.1s-4.2,2.1-6.1,2.8c-0.2,0.1-0.4,0.1-0.5,0.1
		c-0.1,0-0.3,0-0.4,0c-0.4,0-1-0.2-1.8-0.7s-1.5-1-2.2-1.8s-1.3-1.6-1.8-2.5c-0.5-0.9-0.8-1.9-0.8-2.8c0-0.3,0.1-1.2,0.4-2.7
		c0.3-1.5,0.9-3.4,1.9-5.8c1-2.3,2.5-5,4.4-7.9s4.6-5.9,8-9c1.7-1.6,3.6-3,5.6-4.4c1.7-1.2,3.6-2.3,5.8-3.5c2.2-1.2,4.5-2.2,6.9-2.9
		c0.1,0,0.2,0,0.2-0.1c0.1,0,0.2,0,0.3,0.1c0.5,0.2,1.2,0.5,1.9,0.8c0.7,0.4,1.5,0.8,2.2,1.2c0.7,0.4,1.4,0.8,1.9,1.3
		c0.6,0.4,0.9,0.8,1.1,1c0,0.1,0,0.2,0,0.2l-0.1,0.1c-2,1.1-3.9,2.3-5.7,3.6c-1.8,1.3-3.4,2.5-4.7,3.7c-1.6,1.4-3.1,2.7-4.5,4.1
		c-3.2,3.2-5.5,6-6.7,8.3c-1.2,2.3-1.9,4-1.9,5c0,0.8,0.3,1.1,0.9,1.1c0.6,0,1.4-0.3,2.4-0.8c1-0.5,2-1.2,3.2-2.1
		c1.2-0.9,2.5-1.9,4-3.1c1.4-1.2,2.9-2.4,4.5-3.7c1.4-1.1,2.7-2.3,4-3.6c1.1-1.1,2.3-2.3,3.5-3.7c1.2-1.4,2.2-2.8,3.1-4.2
		c0,0,0-0.1,0.1-0.1c0,0,0.1,0,0.2,0c0.5,0.4,1,0.9,1.7,1.8c0.6,0.8,1.2,1.7,1.7,2.7c0.5,1,1,1.9,1.4,2.8c0.4,0.9,0.6,1.6,0.6,2.1
		c-1,2.1-1.8,4-2.4,5.7c-0.6,1.7-1,3.2-1.3,4.5c-0.3,1.3-0.5,2.4-0.5,3.3C680,105.4,679.9,106.1,679.9,106.6z"/>
</g>
</svg>
