<svg xmlns="http://www.w3.org/2000/svg" width="184.347" height="144.527" viewBox="0 0 184.347 144.527">
  <g id="Group_158" data-name="Group 158" transform="translate(-389.326 -3513.737)">
    <path id="Path_285" data-name="Path 285" d="M493.6,336.362c2.807-2.738,3.787-7.25,2.189-10.079s-5.168-2.9-7.974-.163-6.751,10.142-5.153,12.971S490.794,339.1,493.6,336.362Zm-9.685,1.485a1.487,1.487,0,0,1-.364-2.016c.4-.826,1.2-1.263,1.8-.976a1.487,1.487,0,0,1,.364,2.016c-.4.826-1.2,1.263-1.8.976Z" transform="translate(-25.217 3235.768)" fill="#444"/>
    <path id="Path_286" data-name="Path 286" d="M512.684,348.054l-.811-.741a3.365,3.365,0,0,1-.892-1.092,3.3,3.3,0,0,1-.17-1.859,4.461,4.461,0,0,1,1.208-2.4l-.043.629a4.8,4.8,0,0,1,1.132-.968c.4-.207.841-.192,1.015.175.2.421.01,1.175.28,1.513.467.584,1.684-.677,2.2-.159.3.3.157,1.019,0,1.623a9.038,9.038,0,0,1-.76,2.15c-.625,1.125-1.766,1.868-2.537,1.565A2.106,2.106,0,0,1,512.684,348.054Z" transform="translate(-47.769 3221.992)" fill="#00a9b1"/>
    <path id="Path_287" data-name="Path 287" d="M508.4,366.009a2.485,2.485,0,0,1,.427-1.637l.14-.145a2.6,2.6,0,0,1,.921-.265.66.66,0,0,1,.68.464c.082.283.016.687.212.852.379.32,1.139-.67,1.5-.325.2.194.056.693-.2.938a1.552,1.552,0,0,1-.872.354l-1.392.231a2.37,2.37,0,0,1-.828.042A.731.731,0,0,1,508.4,366.009Z" transform="translate(-45.876 3204.188)" fill="#00a9b1"/>
    <path id="Path_288" data-name="Path 288" d="M501.106,360.085a11.825,11.825,0,0,1,1.129-2.84l.189-.3a4.85,4.85,0,0,1,.93-.854c.264-.145.448-.038.382.436-.059.419-.3,1.1-.208,1.279.185.341,1.308-1.609,1.465-1.218a3.277,3.277,0,0,1-.612,1.61,3.64,3.64,0,0,1-.927.974l-1.327,1.016a2.248,2.248,0,0,1-.745.45C501.178,360.675,501.047,360.517,501.106,360.085Z" transform="translate(-40.115 3210.471)" fill="#00a9b1"/>
    <path id="Path_289" data-name="Path 289" d="M466.293,358.917a2.233,2.233,0,0,0-3.013-1.625l-5.19-6-1.119,3.968,5.1,5.091a2.245,2.245,0,0,0,4.222-1.432Z" transform="translate(-5.149 3214.229)" fill="#444"/>
    <path id="Path_290" data-name="Path 290" d="M359.581,257.508,358.2,259.84s3.631,1.8,3.7,3.219.33,1.06.871,1.45a3.415,3.415,0,0,1,1.2,2.509c.02,1.11,8.608,9.71,8.608,9.71l-2.339,3.241a12.523,12.523,0,0,0-2.521-1.819c-1.39-.729-5.249-2.083-5.529-2.833s-1.409-1.3-2.49-2.075,1.235-1.441-.566-2.741-11.57-11.528-13.32-12.518-1.762-4.009-1.762-4.009l1.3-1.8Z" transform="translate(84.336 3292.78)" fill="#444"/>
    <path id="Path_291" data-name="Path 291" d="M695.09,199.15v-1.139a5.627,5.627,0,0,0,0-1.011V103.893a2.179,2.179,0,0,0-4.357,0V197a5.628,5.628,0,0,0,0,1.011v1.139l-22.055,45.124a5.6,5.6,0,0,0,7.922,0l14.132-35.856v35.318a2.179,2.179,0,0,0,4.357,0V208.418l14.132,35.856a5.6,5.6,0,0,0,7.922,0Z" transform="translate(-172.93 3412.022)" fill="#444"/>
    <path id="Path_292" data-name="Path 292" d="M232.388,552.66a34.572,34.572,0,0,1-6-7.942,35.264,35.264,0,0,1-3.514-9.266,33.87,33.87,0,0,1-.727-10.025,35.1,35.1,0,0,1,7.271-18.8q.386-.494.789-.974c.3-.357.81.157.512.512a33.915,33.915,0,0,0,2.18,45.977c.333.328-.18.84-.512.512Z" transform="translate(181.032 3091.985)" fill="#444"/>
    <path id="Path_293" data-name="Path 293" d="M256.163,512.346a8.761,8.761,0,0,0,.86-.375l.042.066Z" transform="translate(153.995 3086.887)" fill="#fff"/>
    <path id="Path_294" data-name="Path 294" d="M256.656,466.45a6.987,6.987,0,0,1-.635,1.91,9.155,9.155,0,0,1-3.816,3.959c-.091.049-.185.1-.28.146-.113-.176-.228-.353-.338-.529a12.266,12.266,0,0,1-1.7-3.783,5.531,5.531,0,0,1,.854-4.631,3.528,3.528,0,0,1,4.348-1.016,3.061,3.061,0,0,1,1,.97c-.14.173-.28.344-.42.517a.531.531,0,0,1-.04.046c-.122.152-.246.3-.368.453-.508.623-1.013,1.25-1.52,1.87a9.621,9.621,0,0,0,2.171.149l.176-.009C256.282,466.489,256.471,466.474,256.656,466.45Z" transform="translate(159.095 3126.393)" fill="#444"/>
    <path id="Path_295" data-name="Path 295" d="M201.075,472.256l-.195,2.536-.052.687-.167-.082a14.839,14.839,0,0,1-7.745-9.484,14.416,14.416,0,0,1-.38-2.156l2.959-.459a9.712,9.712,0,0,0-2.937-2.545,14.678,14.678,0,0,1,2.661-7.039c.255,4.251,4.707,6.954,6.337,10.886a8.843,8.843,0,0,1-.48,7.656Z" transform="translate(204.42 3133.057)" fill="#444"/>
    <path id="Path_296" data-name="Path 296" d="M171.084,587.178c-.237.012-.474.018-.708.015a14.859,14.859,0,0,1-10.776-4.728,14.433,14.433,0,0,1-2.655-4.157l.061-.009,2.959-.459a9.673,9.673,0,0,0-4.029-3.071,14.492,14.492,0,0,1-.049-4.151c2.226,3.628,7.428,3.919,10.715,6.62a8.863,8.863,0,0,1,3.026,5.118,8.337,8.337,0,0,1,.155,1.5c0,.122,0,.24,0,.359l.073.164Z" transform="translate(233.566 3040.408)" fill="#444"/>
    <path id="Path_297" data-name="Path 297" d="M247.19,621.679c-.629.772-1.259,1.551-1.888,2.323a9.643,9.643,0,0,0,2.347.14,14.861,14.861,0,0,1-3.883,6.589c-.173.17-.353.338-.535.5l-.113.1-.164-.465,0,0-.93-2.576a8.8,8.8,0,0,1-2.357-4.321v-.006a8.487,8.487,0,0,1-.149-2.919c.52-4.224,4.09-8.021,3.2-12.184a14.738,14.738,0,0,1,4.409,5.981c-.508.623-1.013,1.25-1.52,1.87a9.616,9.616,0,0,0,2.171.149A14.218,14.218,0,0,1,248.19,620c0,.152,0,.3,0,.453-.319.4-.642.788-.961,1.183a.536.536,0,0,1-.04.046Z" transform="translate(167.239 3010.106)" fill="#444"/>
    <path id="Path_298" data-name="Path 298" d="M871.206,626.636a34.575,34.575,0,0,1,.3-9.949,35.266,35.266,0,0,1,3.068-9.423A33.876,33.876,0,0,1,880.291,599a35.1,35.1,0,0,1,17.445-10.09q.61-.144,1.226-.264c.458-.09.533.63.078.72a33.915,33.915,0,0,0-27.114,37.2.362.362,0,0,1-.72.078Z" transform="translate(-333.258 3026.129)" fill="#444"/>
    <path id="Path_299" data-name="Path 299" d="M996.977,591.375a8.8,8.8,0,0,0,.906.247c0,.026-.006.052-.008.078Z" transform="translate(-433.112 3023.958)" fill="#fff"/>
    <path id="Path_300" data-name="Path 300" d="M1008.81,561.076a6.987,6.987,0,0,1-1.692,1.09,9.155,9.155,0,0,1-5.455.694c-.1-.019-.207-.038-.309-.062.023-.208.043-.418.069-.624a12.264,12.264,0,0,1,1.048-4.011,5.531,5.531,0,0,1,3.568-3.073,3.528,3.528,0,0,1,4.025,1.933,3.06,3.06,0,0,1,.174,1.385l-.651.14a.548.548,0,0,1-.059.011c-.19.042-.381.08-.571.122-.786.168-1.572.339-2.357.5a9.621,9.621,0,0,0,1.6,1.477l.143.1C1008.493,560.872,1008.65,560.979,1008.81,561.076Z" transform="translate(-436.581 3052.782)" fill="#444"/>
    <path id="Path_301" data-name="Path 301" d="M947.124,530.914l-1.741,1.854-.471.5c-.026-.056-.053-.113-.079-.169a14.839,14.839,0,0,1-.092-12.244,14.418,14.418,0,0,1,1.055-1.918l2.593,1.5a9.711,9.711,0,0,0-.694-3.824,14.677,14.677,0,0,1,6.485-3.818c-2.465,3.473-.69,8.369-1.883,12.454A8.843,8.843,0,0,1,947.124,530.914Z" transform="translate(-390.703 3086.234)" fill="#444"/>
    <path id="Path_302" data-name="Path 302" d="M867.641,595.558c-.192-.139-.381-.283-.562-.432a14.859,14.859,0,0,1-5.435-10.438,14.435,14.435,0,0,1,.536-4.9l.053.031c.863.5,1.73,1,2.593,1.5a9.674,9.674,0,0,0-1.215-4.918,14.49,14.49,0,0,1,2.563-3.265c-.539,4.222,3.333,7.71,4.2,11.874a8.863,8.863,0,0,1-.849,5.884,8.338,8.338,0,0,1-.82,1.268c-.074.1-.148.189-.225.28l-.046.174Z" transform="translate(-325.836 3038.417)" fill="#444"/>
    <path id="Path_303" data-name="Path 303" d="M879.485,677.65c-.974.208-1.953.42-2.927.627a9.64,9.64,0,0,0,1.742,1.58,14.862,14.862,0,0,1-7.155,2.7c-.242.024-.486.042-.728.051l-.151.008.164-.465v0l.889-2.59a8.8,8.8,0,0,1,.871-4.844l0,0a8.492,8.492,0,0,1,1.713-2.368c3.052-2.965,8.214-3.688,10.13-7.488a14.739,14.739,0,0,1-.312,7.424c-.786.168-1.572.339-2.357.5a9.616,9.616,0,0,0,1.6,1.477,14.219,14.219,0,0,1-1.648,2.709c-.093.12-.186.237-.284.353-.5.108-.993.212-1.49.32a.515.515,0,0,1-.059.011Z" transform="translate(-332.692 2965.726)" fill="#444"/>
    <path id="Path_304" data-name="Path 304" d="M658.2,254.7h-80.69a3.542,3.542,0,0,1-3.538-3.538V194.752a3.542,3.542,0,0,1,3.538-3.538H658.2a3.542,3.542,0,0,1,3.538,3.538v56.414A3.542,3.542,0,0,1,658.2,254.7Z" transform="translate(-97.875 3341.092)" fill="#242424"/>
    <path id="Path_305" data-name="Path 305" d="M730.04,186.024H706.18a5.712,5.712,0,0,1-5.706-5.706v-.1h35.272v.1A5.712,5.712,0,0,1,730.04,186.024Z" transform="translate(-198.129 3349.81)" fill="#444"/>
    <path id="Path_306" data-name="Path 306" d="M730.54,492.024H706.68a5.712,5.712,0,0,1-5.706-5.706v-.1h35.272v.1A5.712,5.712,0,0,1,730.54,492.024Z" transform="translate(-198.525 3107.3)" fill="#444"/>
    <path id="Path_307" data-name="Path 307" d="M768.716,395.578c0,3.438-2.579-.415-6.017-.415a6.225,6.225,0,0,1,0-12.449C766.136,382.714,768.716,392.14,768.716,395.578Z" transform="translate(-242.51 3189.325)" fill="#00a9b1"/>
    <path id="Path_308" data-name="Path 308" d="M656.886,270.938a6.225,6.225,0,0,1-6.224,6.225c-3.438,0-5.187,6.965-5.187,3.527s1.749-15.976,5.187-15.976A6.224,6.224,0,0,1,656.886,270.938Z" transform="translate(-154.54 3282.842)" fill="#00a9b1"/>
    <path id="Path_309" data-name="Path 309" d="M658.339,258.074a2.777,2.777,0,0,1,2.852.187A4.147,4.147,0,0,1,662.935,261a8.816,8.816,0,0,1-.012,3.554A3.185,3.185,0,0,1,660.9,267.2a1.582,1.582,0,0,1-1.989-.889,2.041,2.041,0,0,1,.37-1.967,2.422,2.422,0,0,1,2.734-.42,3.585,3.585,0,0,1,1.939,2.516,7.606,7.606,0,0,1-.216,3.819c-.363,1.348-.843,2.666-1.275,3.993a33.94,33.94,0,0,0-1.82,7.952c-.308,4.166,1.064,8.974,4.872,11.209a9.631,9.631,0,0,0,6.83.922A14.864,14.864,0,0,0,678.817,291a28.542,28.542,0,0,0,2.755-2.7,2.038,2.038,0,0,1,2.176-.644c1.98.629,1.615,3.8-.344,4.187a3.107,3.107,0,0,1-2.514-.83,4.83,4.83,0,0,1-1.447-2.47,7.281,7.281,0,0,1,1.266-5.85,10.945,10.945,0,0,1,5.636-3.718,36.075,36.075,0,0,1,7.518-1.275,29.336,29.336,0,0,0,7.658-1.512,19.162,19.162,0,0,0,5.413-3.212,20.013,20.013,0,0,0,6.584-10.527,18.333,18.333,0,0,0,.462-3.03c.027-.4-.6-.4-.622,0a19.275,19.275,0,0,1-10.87,15.684,23.731,23.731,0,0,1-7.678,1.876,47.454,47.454,0,0,0-8.035,1.215,12.462,12.462,0,0,0-6.194,3.659,8.074,8.074,0,0,0-1.879,6.068c.252,2.006,1.531,4.07,3.632,4.506a2.68,2.68,0,0,0,2.664-.848,3.139,3.139,0,0,0,.424-3.258,2.6,2.6,0,0,0-3.29-1.19,3.169,3.169,0,0,0-1.129.872,19.726,19.726,0,0,1-6.288,4.911,10.447,10.447,0,0,1-7.4.629c-4.582-1.491-6.338-6.73-6.061-11.132a33.973,33.973,0,0,1,1.941-8.39c.457-1.392.977-2.781,1.3-4.212a7.331,7.331,0,0,0-.043-3.9,4.074,4.074,0,0,0-2.191-2.548,3.146,3.146,0,0,0-3.088.252c-1.279.958-1.4,3.332.184,4.069a2.759,2.759,0,0,0,3.085-.7,5.465,5.465,0,0,0,1.247-3.409c.184-2.3-.322-5.063-2.656-6.1a3.28,3.28,0,0,0-3,.066.311.311,0,0,0,.314.537Z" transform="translate(-164.372 3288.844)" fill="#444"/>
    <path id="Path_310" data-name="Path 310" d="M823.276,232.126c0,3.645,5.722,12.941,3.8,15.731q-.358.523-.757,1.017a17.141,17.141,0,0,1-2.942,2.886c-.185.145-.371.284-.56.419a17.457,17.457,0,0,1-2.106,1.28l-.4.2A17.326,17.326,0,0,1,800.639,225.7c.154-.154.311-.3.473-.45a17.254,17.254,0,0,1,5.509-3.4s0,0,0,0a17.393,17.393,0,0,1,9.567-.8h0c.071.015.141.029.212.046C824.245,222.751,823.276,223.8,823.276,232.126Z" transform="translate(-273.417 3317.713)" fill="#00a9b1"/>
    <path id="Path_311" data-name="Path 311" d="M839.537,270.7a.328.328,0,0,1,0,.079l-.4.2a.311.311,0,0,1-.218-.278,4.252,4.252,0,0,0-.18-.923c-.809-2.606-3.648-3.938-6.125-4.409-3.031-.579-6.22-.338-9.1-1.589a7.861,7.861,0,0,1-3.052-2.22,5.586,5.586,0,0,1-1.214-3.807c.17-3.235,2.45-5.766,3.231-8.818a5.432,5.432,0,0,0-.251-3.755,3.33,3.33,0,0,0-2.519-2.019.3.3,0,0,1-.232-.139c.154-.154.311-.3.473-.45a3.023,3.023,0,0,1,.616.16,4.334,4.334,0,0,1,2.372,2.527,6.211,6.211,0,0,1,.108,3.971c-.832,3.062-3.276,5.72-3.181,9.021.083,2.861,2.581,4.646,5.1,5.4,3.116.934,6.492.492,9.575,1.573C836.956,266.078,839.311,267.98,839.537,270.7Z" transform="translate(-292.245 3300.388)" fill="#444"/>
    <path id="Path_312" data-name="Path 312" d="M865.869,258.053c-.185.145-.371.284-.56.419a.26.26,0,0,1-.068-.2,10.533,10.533,0,0,0-2.587-7.33,10.409,10.409,0,0,0-2.689-2.228,17.714,17.714,0,0,0-3.384-1.311,7.9,7.9,0,0,1-3.162-1.67,5.251,5.251,0,0,1-1.454-3.249c-.313-2.872,1.125-5.511,1.241-8.339a5.254,5.254,0,0,0-1.008-3.5,3.121,3.121,0,0,0-2.805-1.34c-.373.046-.392-.5-.068-.608a.332.332,0,0,1,.068-.014,3.706,3.706,0,0,1,3.291,1.581,5.917,5.917,0,0,1,1.135,4.077c-.178,2.838-1.672,5.567-1.187,8.451a4.372,4.372,0,0,0,1.874,3.021,13.872,13.872,0,0,0,3.446,1.378,11.534,11.534,0,0,1,3.28,1.606,11.389,11.389,0,0,1,2.544,2.575,11.033,11.033,0,0,1,2.1,6.689Z" transform="translate(-315.912 3311.42)" fill="#444"/>
    <path id="Path_313" data-name="Path 313" d="M903.887,250.813q-.358.523-.757,1.017a11.773,11.773,0,0,0-.181-4.851,12.22,12.22,0,0,0-2.851-5.359,10.7,10.7,0,0,0-2.374-1.936,8.752,8.752,0,0,1-2.818-2.081c-1.544-2.108-.5-4.859,0-7.125a5.9,5.9,0,0,0-.081-3.587,2.78,2.78,0,0,0-2.127-1.822c-.4-.039-.4-.664,0-.622q.112.012.224.031a3.4,3.4,0,0,1,2.411,2.033,6.477,6.477,0,0,1,.174,4.133c-.5,2.276-1.666,5.291.415,7.15.878.784,2.017,1.218,2.963,1.913a11.568,11.568,0,0,1,2.257,2.176A12.985,12.985,0,0,1,903.887,250.813Z" transform="translate(-350.231 3314.756)" fill="#444"/>
    <path id="Path_314" data-name="Path 314" d="M255.165,610.171h3.682l1.752-14.2h-5.434Z" transform="translate(187.104 3041.421)" fill="#444"/>
    <path id="Path_315" data-name="Path 315" d="M401.559,761.536h2.64l.471-2.493,1.207,2.493h7a1.574,1.574,0,0,0,.895-2.87l-5.592-3.862v-2.52l-5.882.351Z" transform="translate(38.767 2896.435)" fill="#444"/>
    <path id="Path_316" data-name="Path 316" d="M117.583,582.55l3.167,1.878,8.751-11.321-4.674-2.772Z" transform="translate(296.14 3061.736)" fill="#444"/>
    <path id="Path_317" data-name="Path 317" d="M249.6,724.791l2.271,1.347,1.677-1.9-.233,2.76,6.023,3.572a1.574,1.574,0,0,0,2.233-2.012l-2.84-6.175,1.286-2.168-5.239-2.7Z" transform="translate(159.194 2923.991)" fill="#444"/>
    <path id="Path_318" data-name="Path 318" d="M203.749,226.77l3.034,11.406-17,.224,2.236-10.959Z" transform="translate(238.918 3334.017)" fill="#444"/>
    <path id="Path_319" data-name="Path 319" d="M319.136,373.611l3.61,11.774,1.6,31.487L320.2,446.936h-4.585l-1.879-29.573-4.62-20.235,2.705,21.164-14.169,20.715h-6.962l12.8-22.828-7.451-23.7s.747-11.719,5.473-17.944l1.15-3.323Z" transform="translate(126.631 3198.438)" fill="#444"/>
    <path id="Path_320" data-name="Path 320" d="M357.169,246.025c-.01-.1-.024-.21-.044-.312a9.408,9.408,0,0,0-10.655-7.922,9.606,9.606,0,0,0-5.926,3.314v0c-.078.093-.151.19-.224.288-.132.166-.254.342-.371.517a9.416,9.416,0,0,0-1.562,5.4s.888,4.73,1.074,5.984c.127.81.225,1.606.3,2.382.044.39.078.776.107,1.152v0c.146,1.86.2,3.529.239,4.822a17.688,17.688,0,0,0,.537,2.724c.03.023.063.045.1.066a1.743,1.743,0,0,0,1.641.06l2.2-1.024h0a8.49,8.49,0,0,1,4.673-.722,57.916,57.916,0,0,0,6.583.662c.2-.176,1.2-9.039,1.454-11.826.034-.4.063-.815.078-1.259v0A28.779,28.779,0,0,0,357.169,246.025Z" transform="translate(88.833 3304.257)" fill="#444"/>
    <path id="Path_321" data-name="Path 321" d="M454.673,274.769a2.115,2.115,0,0,1-3.021,1.182L446.08,281l-.6-3.861,5.383-4.2a2.127,2.127,0,0,1,3.806,1.833Z" transform="translate(3.955 3277.106)" fill="#444"/>
    <path id="Path_322" data-name="Path 322" d="M367.752,238.367s5.484,1.024,2.363,11.669l1.205,5.276,5.654-3.252.342-1.375,4.95-3.475,2.341,4.22-2.846,2.719-.822,1.7-1.46.483-4.523,4.322-1.9,1.159s-2.411,1.494-4.556.685a5.839,5.839,0,0,1-1.587-.9,7.054,7.054,0,0,1-2.287-3.613,93.621,93.621,0,0,1-2.654-10.875Z" transform="translate(70.136 3303.723)" fill="#444"/>
    <path id="Path_323" data-name="Path 323" d="M475.306,261.5l-3.32-12.489a.275.275,0,0,1,.523-.169l4.468,11.673Z" transform="translate(-17.04 3295.56)" fill="#444"/>
    <path id="Path_324" data-name="Path 324" d="M486.743,306.811a6.274,6.274,0,0,1-1.4-.47c-.227-.108-.446-.231-.661-.357-.076-.043-.152-.088-.227-.132l-.537-.315c-.152-.088-.306-.178-.457-.267a.983.983,0,0,1-.528-.532.813.813,0,0,1,.191-.669,2.737,2.737,0,0,1,.561-.5l1.407-1.031.126-.275a3.549,3.549,0,0,1,1.035.669,1.267,1.267,0,0,1,.363.925,1.068,1.068,0,0,1-.037.223,6.765,6.765,0,0,1-.469.9,1.722,1.722,0,0,0-.074.2,1.406,1.406,0,0,0,.155,1.187A1.3,1.3,0,0,0,486.743,306.811Z" transform="translate(-25.714 3253.083)" fill="#00a9b1"/>
    <path id="Path_326" data-name="Path 326" d="M490.546,312.9a6.276,6.276,0,0,1-1.4-.47c-.227-.108-.446-.231-.661-.357-.076-.043-.152-.088-.227-.132l-.537-.315a3.026,3.026,0,0,1,.2-.243,5.7,5.7,0,0,1,2.5-1.435,1.066,1.066,0,0,1-.037.223,6.765,6.765,0,0,1-.469.9,1.724,1.724,0,0,0-.074.2,1.406,1.406,0,0,0,.155,1.187A1.3,1.3,0,0,0,490.546,312.9Z" transform="translate(-29.517 3246.992)" fill="#00a9b1"/>
    <path id="Path_327" data-name="Path 327" d="M349.155,796.153a.246.246,0,0,1-.247.247H170a.247.247,0,0,1,0-.494H348.908a.246.246,0,0,1,.247.247Z" transform="translate(222.479 2861.864)" fill="#444"/>
    <circle id="Ellipse_274" data-name="Ellipse 274" cx="7.187" cy="7.187" r="7.187" transform="translate(425.667 3536.177) rotate(-61.337)" fill="#444"/>
    <path id="Path_328" data-name="Path 328" d="M328.826,149.108v.005a3.612,3.612,0,0,1-.119.927c-.013.053-.028.109-.045.162v0a3.665,3.665,0,0,1-2.26,2.353c-.078.03-.159.056-.24.078a3.275,3.275,0,0,1-.52.106,3.315,3.315,0,0,1-.477.033,3.633,3.633,0,0,1-.374-.018,3.535,3.535,0,0,1-.851-.194,1.069,1.069,0,0,1-.126-.045.615.615,0,0,1-.061-.025,3.664,3.664,0,0,1-1.891-4.961l0,0a3.591,3.591,0,0,1,.72-1.01c.661-.659.953-2.31,1.958-2.31a1.372,1.372,0,0,1,.144.005c.674.023,1.92,1.477,2.45,1.821a3.573,3.573,0,0,1,1,.952,3.619,3.619,0,0,1,.591,1.3A3.67,3.67,0,0,1,328.826,149.108Z" transform="translate(102.211 3378.345)" fill="#444"/>
    <path id="Path_329" data-name="Path 329" d="M257.409,141.1a5.787,5.787,0,0,1-2.262,1.264,9.514,9.514,0,0,0-5.527,6.951,35.932,35.932,0,0,1-.544,3.728,3.444,3.444,0,0,1-2.45,2.6,4.644,4.644,0,0,1-2.467-.5l-1.3-.525q.678-1.7,1.355-3.4a17.255,17.255,0,0,1-2.513,2.94l-4.666-1.88c3.83.015,3.177-3.7,4.033-7.434.471-2.05,4.482-3.438,5.268-5.388a5.966,5.966,0,0,1,10.822-.544C257.944,139.218,257.967,140.442,257.409,141.1Z" transform="translate(169.155 3385.083)" fill="#444"/>
    <path id="Path_330" data-name="Path 330" d="M349.468,151.872c-.7-.923-2.468-.959-2.822.145l-.745-1.01c-.967-2.112-3.517-1.682-5.822-1.4a7.166,7.166,0,0,0-5.369,3.984,9.793,9.793,0,0,0-.531,6.8,7.447,7.447,0,0,0,2.351,3.964c1.218.979,6.942,3.3,7.419,1.3-.6,2.6.6,2.194,2.377,4.189.919-2.76,1.35-7.961,2.268-10.721l.415-1.246c.292-.876.583-1.753.794-2.652A4.024,4.024,0,0,0,349.468,151.872Z" transform="translate(92.457 3374.256)" fill="#444"/>
    <path id="Path_331" data-name="Path 331" d="M385.328,166.055l-.307-1.956c.209-2.432-.132-6.3,1.464-6.833l.976.976C386.843,158.448,385.669,162.085,385.328,166.055Z" transform="translate(51.874 3367.997)" fill="#444"/>
    <path id="Path_332" data-name="Path 332" d="M388.756,139.411c0,1.49-.511,2.7-1.141,2.7s-1.141-1.208-1.141-2.7a4.457,4.457,0,0,1,1.141-2.7A4.456,4.456,0,0,1,388.756,139.411Z" transform="translate(50.722 3384.284)" fill="#444"/>
    <path id="Path_333" data-name="Path 333" d="M392.268,141.738c-.6,1.364-1.552,2.265-2.129,2.011s-.56-1.564.039-2.928a4.456,4.456,0,0,1,2.129-2.011A4.456,4.456,0,0,1,392.268,141.738Z" transform="translate(48.151 3382.624)" fill="#444"/>
  </g>
</svg>
