<svg xmlns="http://www.w3.org/2000/svg" width="36.173" height="35.643" viewBox="0 0 36.173 35.643">
  <path id="Path_284" data-name="Path 284" d="M35.4,4.8A13.112,13.112,0,0,0,27.168,1.6c-3.61.045-6.757,1.993-9.621,4.094A54.965,54.965,0,0,0,4.462,18.507c-1.333,1.915-3.089,4.837-2.953,8.1a10.927,10.927,0,0,0,2.235,5.872,23.228,23.228,0,0,0,2,2.388l.225.242c.8.868,1.973,2.135,3.7,2.135a3.76,3.76,0,0,0,.573-.047,7.234,7.234,0,0,0,4.25-2.755A10.817,10.817,0,0,0,15.569,32.8a5.485,5.485,0,0,0-1.016-6.551A8.31,8.31,0,0,1,12.666,23.7a3.1,3.1,0,0,1-.328-1.213,3.581,3.581,0,0,1,.426-1.319c1.812-3.713,5.277-7.033,10.3-9.869a2.024,2.024,0,0,1,2,.092,1.748,1.748,0,0,1,.376.337A15.005,15.005,0,0,0,26.6,12.986,14.873,14.873,0,0,0,27.892,14.1l.228.186a4.335,4.335,0,0,0,1.339.854,5.427,5.427,0,0,0,2.633.276,6.821,6.821,0,0,0,3.5-2.218A7.946,7.946,0,0,0,37.61,9.19C38.027,6.925,36.319,5.547,35.4,4.8ZM13.111,31.49a8,8,0,0,1-.793,1.216,4.473,4.473,0,0,1-2.5,1.739c-.479.05-.941-.326-1.561-.974,1.578-1.595,3.1-3.264,4.581-4.945A2.7,2.7,0,0,1,13.111,31.49ZM26.595,9.07a4.754,4.754,0,0,0-4.9-.192C16.172,12,12.326,15.722,10.264,19.949a5.966,5.966,0,0,0-.71,2.471,5.665,5.665,0,0,0,.571,2.418,9.589,9.589,0,0,0,.907,1.539C9.543,28.081,8,29.759,6.407,31.37c-.134-.17-.281-.348-.4-.515a8.239,8.239,0,0,1-1.717-4.369c-.1-2.418,1.353-4.806,2.455-6.39A52.39,52.39,0,0,1,19.195,7.938c2.491-1.826,5.182-3.523,8.007-3.557h.086a8.993,8.993,0,0,1,4.325,1.252c-.284.3-.548.615-.8.921a13.432,13.432,0,0,1-.977,1.085c-.256.248-.537.473-.813.7a10.9,10.9,0,0,0-1.533,1.531,4.667,4.667,0,0,0-.888-.8A.01.01,0,0,0,26.595,9.07Zm6.983,2.215a4.4,4.4,0,0,1-2.015,1.4,2.548,2.548,0,0,1-1.163-.161,2.591,2.591,0,0,1-.481-.356l-.32-.264c-.042-.033-.078-.072-.12-.1a6.461,6.461,0,0,1,1.308-1.311c.334-.276.665-.548.974-.846a16.454,16.454,0,0,0,1.183-1.305,12.8,12.8,0,0,1,1.021-1.1c.746.64.988,1.016.91,1.444A5.146,5.146,0,0,1,33.577,11.286Z" transform="translate(-1.501 -1.596)" fill="#00a9b1"/>
</svg>
